%TF.GenerationSoftware,KiCad,Pcbnew,8.0.2*%
%TF.CreationDate,2024-06-05T10:22:25+03:00*%
%TF.ProjectId,LED driver,4c454420-6472-4697-9665-722e6b696361,rev?*%
%TF.SameCoordinates,Original*%
%TF.FileFunction,Paste,Top*%
%TF.FilePolarity,Positive*%
%FSLAX46Y46*%
G04 Gerber Fmt 4.6, Leading zero omitted, Abs format (unit mm)*
G04 Created by KiCad (PCBNEW 8.0.2) date 2024-06-05 10:22:25*
%MOMM*%
%LPD*%
G01*
G04 APERTURE LIST*
G04 Aperture macros list*
%AMRoundRect*
0 Rectangle with rounded corners*
0 $1 Rounding radius*
0 $2 $3 $4 $5 $6 $7 $8 $9 X,Y pos of 4 corners*
0 Add a 4 corners polygon primitive as box body*
4,1,4,$2,$3,$4,$5,$6,$7,$8,$9,$2,$3,0*
0 Add four circle primitives for the rounded corners*
1,1,$1+$1,$2,$3*
1,1,$1+$1,$4,$5*
1,1,$1+$1,$6,$7*
1,1,$1+$1,$8,$9*
0 Add four rect primitives between the rounded corners*
20,1,$1+$1,$2,$3,$4,$5,0*
20,1,$1+$1,$4,$5,$6,$7,0*
20,1,$1+$1,$6,$7,$8,$9,0*
20,1,$1+$1,$8,$9,$2,$3,0*%
G04 Aperture macros list end*
%ADD10RoundRect,0.225000X-0.250000X0.225000X-0.250000X-0.225000X0.250000X-0.225000X0.250000X0.225000X0*%
%ADD11RoundRect,0.200000X0.200000X0.275000X-0.200000X0.275000X-0.200000X-0.275000X0.200000X-0.275000X0*%
%ADD12RoundRect,0.200000X0.275000X-0.200000X0.275000X0.200000X-0.275000X0.200000X-0.275000X-0.200000X0*%
%ADD13RoundRect,0.250000X-1.075000X0.375000X-1.075000X-0.375000X1.075000X-0.375000X1.075000X0.375000X0*%
%ADD14RoundRect,0.150000X0.512500X0.150000X-0.512500X0.150000X-0.512500X-0.150000X0.512500X-0.150000X0*%
%ADD15R,0.900000X1.700000*%
%ADD16RoundRect,0.225000X0.250000X-0.225000X0.250000X0.225000X-0.250000X0.225000X-0.250000X-0.225000X0*%
%ADD17RoundRect,0.150000X-0.587500X-0.150000X0.587500X-0.150000X0.587500X0.150000X-0.587500X0.150000X0*%
%ADD18RoundRect,0.200000X-0.275000X0.200000X-0.275000X-0.200000X0.275000X-0.200000X0.275000X0.200000X0*%
%ADD19RoundRect,0.225000X0.225000X0.250000X-0.225000X0.250000X-0.225000X-0.250000X0.225000X-0.250000X0*%
%ADD20RoundRect,0.250001X0.462499X0.624999X-0.462499X0.624999X-0.462499X-0.624999X0.462499X-0.624999X0*%
%ADD21RoundRect,0.250000X0.400000X0.450000X-0.400000X0.450000X-0.400000X-0.450000X0.400000X-0.450000X0*%
%ADD22RoundRect,0.250000X1.000000X0.900000X-1.000000X0.900000X-1.000000X-0.900000X1.000000X-0.900000X0*%
%ADD23R,0.400000X0.800000*%
%ADD24R,0.800000X0.400000*%
%ADD25R,0.700000X0.700000*%
G04 APERTURE END LIST*
D10*
%TO.C,C6*%
X123875000Y-76780000D03*
X123875000Y-78330000D03*
%TD*%
D11*
%TO.C,R10*%
X141475000Y-64580000D03*
X139825000Y-64580000D03*
%TD*%
%TO.C,R14*%
X126350000Y-67445000D03*
X124700000Y-67445000D03*
%TD*%
D12*
%TO.C,R12*%
X107435000Y-92880000D03*
X107435000Y-91230000D03*
%TD*%
D11*
%TO.C,R3*%
X146475000Y-86580000D03*
X144825000Y-86580000D03*
%TD*%
D13*
%TO.C,L1*%
X126785000Y-73555000D03*
X126785000Y-76355000D03*
%TD*%
D14*
%TO.C,U2*%
X128392500Y-71425000D03*
X128392500Y-70475000D03*
X128392500Y-69525000D03*
X126117500Y-69525000D03*
X126117500Y-70475000D03*
X126117500Y-71425000D03*
%TD*%
D15*
%TO.C,SW1*%
X111715000Y-94925000D03*
X115115000Y-94925000D03*
%TD*%
D16*
%TO.C,C1*%
X103425000Y-92830000D03*
X103425000Y-91280000D03*
%TD*%
D10*
%TO.C,C5*%
X130535000Y-72980000D03*
X130535000Y-74530000D03*
%TD*%
D17*
%TO.C,Q5*%
X143612500Y-62600000D03*
X143612500Y-64500000D03*
X145487500Y-63550000D03*
%TD*%
D11*
%TO.C,R13*%
X122310000Y-95845000D03*
X120660000Y-95845000D03*
%TD*%
D18*
%TO.C,R16*%
X130535000Y-65930000D03*
X130535000Y-67580000D03*
%TD*%
D17*
%TO.C,Q4*%
X143612500Y-69600000D03*
X143612500Y-71500000D03*
X145487500Y-70550000D03*
%TD*%
D11*
%TO.C,R9*%
X141475000Y-62580000D03*
X139825000Y-62580000D03*
%TD*%
D16*
%TO.C,C3*%
X105385000Y-92830000D03*
X105385000Y-91280000D03*
%TD*%
D17*
%TO.C,Q3*%
X143612500Y-76600000D03*
X143612500Y-78500000D03*
X145487500Y-77550000D03*
%TD*%
D11*
%TO.C,R8*%
X141475000Y-71580000D03*
X139825000Y-71580000D03*
%TD*%
%TO.C,R6*%
X141475000Y-78580000D03*
X139825000Y-78580000D03*
%TD*%
D18*
%TO.C,R15*%
X130535000Y-69430000D03*
X130535000Y-71080000D03*
%TD*%
D10*
%TO.C,C2*%
X115075000Y-90520000D03*
X115075000Y-92070000D03*
%TD*%
D19*
%TO.C,C4*%
X123900000Y-69545000D03*
X122350000Y-69545000D03*
%TD*%
D20*
%TO.C,F1*%
X122792500Y-59825000D03*
X119817500Y-59825000D03*
%TD*%
D21*
%TO.C,D1*%
X122755000Y-56075000D03*
X119855000Y-56075000D03*
%TD*%
D22*
%TO.C,D2*%
X123055000Y-73200000D03*
X118755000Y-73200000D03*
%TD*%
D11*
%TO.C,R1*%
X146475000Y-93580000D03*
X144825000Y-93580000D03*
%TD*%
%TO.C,R2*%
X146475000Y-95580000D03*
X144825000Y-95580000D03*
%TD*%
D17*
%TO.C,Q1*%
X148612500Y-93600000D03*
X148612500Y-95500000D03*
X150487500Y-94550000D03*
%TD*%
D11*
%TO.C,R7*%
X141475000Y-69580000D03*
X139825000Y-69580000D03*
%TD*%
D17*
%TO.C,Q2*%
X148612500Y-86600000D03*
X148612500Y-88500000D03*
X150487500Y-87550000D03*
%TD*%
D11*
%TO.C,R4*%
X146475000Y-88580000D03*
X144825000Y-88580000D03*
%TD*%
%TO.C,R5*%
X141475000Y-76580000D03*
X139825000Y-76580000D03*
%TD*%
D12*
%TO.C,R11*%
X109535000Y-92880000D03*
X109535000Y-91230000D03*
%TD*%
D23*
%TO.C,U1*%
X102805000Y-88575000D03*
X103605000Y-88575000D03*
X104405000Y-88575000D03*
X105205000Y-88575000D03*
X106005000Y-88575000D03*
X106805000Y-88575000D03*
X107605000Y-88575000D03*
X108405000Y-88575000D03*
X109205000Y-88575000D03*
X110005000Y-88575000D03*
X110805000Y-88575000D03*
D24*
X111705000Y-87475000D03*
X111705000Y-86675000D03*
X111705000Y-85875000D03*
X111705000Y-85075000D03*
X111705000Y-84275000D03*
X111705000Y-83475000D03*
X111705000Y-82675000D03*
X111705000Y-81875000D03*
X111705000Y-81075000D03*
X111705000Y-80275000D03*
X111705000Y-79475000D03*
X111705000Y-78675000D03*
X111705000Y-77875000D03*
D23*
X110805000Y-76775000D03*
X110005000Y-76775000D03*
X109205000Y-76775000D03*
X108405000Y-76775000D03*
X107605000Y-76775000D03*
X106805000Y-76775000D03*
X106005000Y-76775000D03*
X105205000Y-76775000D03*
X104405000Y-76775000D03*
X103605000Y-76775000D03*
X102805000Y-76775000D03*
D24*
X101905000Y-77875000D03*
X101905000Y-78675000D03*
X101905000Y-79475000D03*
X101905000Y-80275000D03*
X101905000Y-81075000D03*
X101905000Y-81875000D03*
X101905000Y-82675000D03*
X101905000Y-83475000D03*
X101905000Y-84275000D03*
X101905000Y-85075000D03*
X101905000Y-85875000D03*
X101905000Y-86675000D03*
X101905000Y-87475000D03*
D25*
X101855000Y-88625000D03*
X111755000Y-88625000D03*
X111755000Y-76725000D03*
X101855000Y-76725000D03*
%TD*%
M02*
