M48
; DRILL file {KiCad 8.0.2} date 2024-06-05T10:22:34+0300
; FORMAT={-:-/ absolute / inch / decimal}
; #@! TF.CreationDate,2024-06-05T10:22:34+03:00
; #@! TF.GenerationSoftware,Kicad,Pcbnew,8.0.2
; #@! TF.FileFunction,Plated,1,2,PTH
FMAT,2
INCH
; #@! TA.AperFunction,Plated,PTH,ViaDrill
T1C0.0118
; #@! TA.AperFunction,Plated,PTH,ViaDrill
T2C0.0157
; #@! TA.AperFunction,Plated,PTH,ComponentDrill
T3C0.0315
; #@! TA.AperFunction,Plated,PTH,ComponentDrill
T4C0.0394
; #@! TA.AperFunction,Plated,PTH,ComponentDrill
T5C0.0512
%
G90
G05
T1
X4.0719Y-3.5937
X4.149Y-3.5937
X4.2297Y-3.6567
X4.2443Y-3.0699
X4.2443Y-3.1171
X4.2915Y-3.0699
X4.3124Y-3.6567
X4.3388Y-3.0699
X4.453Y-3.4045
X4.453Y-3.4518
X4.4648Y-3.1604
X4.5002Y-3.1919
X4.638Y-2.9911
X4.638Y-3.0384
X4.638Y-3.0856
X4.6774Y-3.3297
X4.6774Y-3.4715
X4.7246Y-3.3297
X4.7246Y-3.377
X4.7246Y-3.4242
X4.7246Y-3.4715
X4.8154Y-3.7734
X4.9659Y-3.5976
X4.9844Y-3.3297
X4.9844Y-3.377
X4.9844Y-3.4242
X4.9844Y-3.4715
X5.0317Y-3.3297
X5.0317Y-3.4715
X5.1392Y-2.7984
T2
X4.5356Y-3.0959
X4.697Y-2.4242
X4.697Y-2.4734
X4.7463Y-2.4242
X4.7463Y-2.4734
X4.878Y-2.6762
X4.9037Y-2.2077
X4.9037Y-2.2569
X4.9037Y-2.3061
X4.9037Y-2.3553
X4.9608Y-3.062
X5.0199Y-3.062
T3
X4.2994Y-2.877
X4.3781Y-2.877
X4.4569Y-2.877
X4.5356Y-2.877
X4.6419Y-3.5856
X4.6419Y-3.6644
X4.6419Y-3.7431
X4.7837Y-3.5856
X4.7837Y-3.6644
X6.0061Y-2.7589
X6.0061Y-2.8376
X6.0061Y-2.9163
X6.0061Y-2.9951
X6.0061Y-3.0738
X6.0061Y-3.1526
T4
X5.0789Y-3.5939
X5.0789Y-3.6939
X5.128Y-3.2116
X5.1789Y-3.5939
X5.1789Y-3.6939
X5.228Y-3.2116
X5.2789Y-3.5939
X5.2789Y-3.6939
X5.328Y-3.2116
X5.3789Y-3.5939
X5.3789Y-3.6939
X5.386Y-2.503
X5.386Y-2.7785
X5.386Y-3.0541
X5.5829Y-3.4478
X5.5829Y-3.7234
T5
X3.9356Y-2.5053
X3.9356Y-2.7022
X4.286Y-2.273
X4.4829Y-2.273
M30
