%TF.GenerationSoftware,KiCad,Pcbnew,8.0.2*%
%TF.CreationDate,2024-06-05T10:22:25+03:00*%
%TF.ProjectId,LED driver,4c454420-6472-4697-9665-722e6b696361,rev?*%
%TF.SameCoordinates,Original*%
%TF.FileFunction,Profile,NP*%
%FSLAX46Y46*%
G04 Gerber Fmt 4.6, Leading zero omitted, Abs format (unit mm)*
G04 Created by KiCad (PCBNEW 8.0.2) date 2024-06-05 10:22:25*
%MOMM*%
%LPD*%
G01*
G04 APERTURE LIST*
%TA.AperFunction,Profile*%
%ADD10C,0.100000*%
%TD*%
%TA.AperFunction,Profile*%
%ADD11C,0.050000*%
%TD*%
G04 APERTURE END LIST*
D10*
X94805000Y-57575000D02*
G75*
G02*
X99805000Y-52575000I5000000J0D01*
G01*
D11*
X100805000Y-76075000D02*
X95105000Y-76075000D01*
X156805000Y-57575000D02*
G75*
G02*
X152805000Y-57575000I-2000000J0D01*
G01*
X152805000Y-57575000D02*
G75*
G02*
X156805000Y-57575000I2000000J0D01*
G01*
X95105000Y-89275000D02*
X100805000Y-89275000D01*
X156805000Y-92575000D02*
G75*
G02*
X152805000Y-92575000I-2000000J0D01*
G01*
X152805000Y-92575000D02*
G75*
G02*
X156805000Y-92575000I2000000J0D01*
G01*
X101105000Y-88975000D02*
X101105000Y-76375000D01*
X99805000Y-52575000D02*
X154805000Y-52575000D01*
X101105000Y-88975000D02*
G75*
G02*
X100805000Y-89275000I-300000J0D01*
G01*
X101805000Y-92575000D02*
G75*
G02*
X97805000Y-92575000I-2000000J0D01*
G01*
X97805000Y-92575000D02*
G75*
G02*
X101805000Y-92575000I2000000J0D01*
G01*
X101805000Y-57575000D02*
G75*
G02*
X97805000Y-57575000I-2000000J0D01*
G01*
X97805000Y-57575000D02*
G75*
G02*
X101805000Y-57575000I2000000J0D01*
G01*
X94805000Y-75775000D02*
X94805000Y-57575000D01*
X95105000Y-76075000D02*
G75*
G02*
X94805000Y-75775000I0J300000D01*
G01*
X100805000Y-76075000D02*
G75*
G02*
X101105000Y-76375000I0J-300000D01*
G01*
X159805000Y-92575000D02*
G75*
G02*
X154805000Y-97575000I-5000000J0D01*
G01*
X159805000Y-57575000D02*
X159805000Y-92575000D01*
X154805000Y-52575000D02*
G75*
G02*
X159805000Y-57575000I0J-5000000D01*
G01*
X94805000Y-89575000D02*
G75*
G02*
X95105000Y-89275000I300000J0D01*
G01*
X99805000Y-97575000D02*
G75*
G02*
X94805000Y-92575000I0J5000000D01*
G01*
X94805000Y-92575000D02*
X94805000Y-89575000D01*
X154805000Y-97575000D02*
X99805000Y-97575000D01*
M02*
