%TF.GenerationSoftware,KiCad,Pcbnew,8.0.1-8.0.1-0~ubuntu23.10.1*%
%TF.CreationDate,2024-04-04T11:37:09+03:00*%
%TF.ProjectId,LED driver,4c454420-6472-4697-9665-722e6b696361,rev?*%
%TF.SameCoordinates,Original*%
%TF.FileFunction,Soldermask,Top*%
%TF.FilePolarity,Negative*%
%FSLAX46Y46*%
G04 Gerber Fmt 4.6, Leading zero omitted, Abs format (unit mm)*
G04 Created by KiCad (PCBNEW 8.0.1-8.0.1-0~ubuntu23.10.1) date 2024-04-04 11:37:09*
%MOMM*%
%LPD*%
G01*
G04 APERTURE LIST*
G04 Aperture macros list*
%AMRoundRect*
0 Rectangle with rounded corners*
0 $1 Rounding radius*
0 $2 $3 $4 $5 $6 $7 $8 $9 X,Y pos of 4 corners*
0 Add a 4 corners polygon primitive as box body*
4,1,4,$2,$3,$4,$5,$6,$7,$8,$9,$2,$3,0*
0 Add four circle primitives for the rounded corners*
1,1,$1+$1,$2,$3*
1,1,$1+$1,$4,$5*
1,1,$1+$1,$6,$7*
1,1,$1+$1,$8,$9*
0 Add four rect primitives between the rounded corners*
20,1,$1+$1,$2,$3,$4,$5,0*
20,1,$1+$1,$4,$5,$6,$7,0*
20,1,$1+$1,$6,$7,$8,$9,0*
20,1,$1+$1,$8,$9,$2,$3,0*%
G04 Aperture macros list end*
%ADD10R,0.900000X1.700000*%
%ADD11C,0.600000*%
%ADD12R,2.900000X2.900000*%
%ADD13R,1.500000X0.900000*%
%ADD14RoundRect,0.237500X0.250000X0.237500X-0.250000X0.237500X-0.250000X-0.237500X0.250000X-0.237500X0*%
%ADD15RoundRect,0.237500X-0.250000X-0.237500X0.250000X-0.237500X0.250000X0.237500X-0.250000X0.237500X0*%
%ADD16RoundRect,0.250001X-0.462499X-1.074999X0.462499X-1.074999X0.462499X1.074999X-0.462499X1.074999X0*%
%ADD17R,1.700000X1.700000*%
%ADD18O,1.700000X1.700000*%
%ADD19C,1.600000*%
%ADD20R,2.000000X4.000000*%
%ADD21O,2.000000X3.300000*%
%ADD22O,3.500000X2.000000*%
%ADD23RoundRect,0.150000X-0.150000X0.512500X-0.150000X-0.512500X0.150000X-0.512500X0.150000X0.512500X0*%
%ADD24RoundRect,0.237500X0.237500X-0.250000X0.237500X0.250000X-0.237500X0.250000X-0.237500X-0.250000X0*%
%ADD25RoundRect,0.250000X1.450000X-0.400000X1.450000X0.400000X-1.450000X0.400000X-1.450000X-0.400000X0*%
%ADD26RoundRect,0.237500X-0.237500X0.250000X-0.237500X-0.250000X0.237500X-0.250000X0.237500X0.250000X0*%
%ADD27RoundRect,0.237500X0.237500X-0.300000X0.237500X0.300000X-0.237500X0.300000X-0.237500X-0.300000X0*%
%ADD28R,2.600000X2.600000*%
%ADD29C,2.600000*%
%ADD30RoundRect,0.237500X0.287500X0.237500X-0.287500X0.237500X-0.287500X-0.237500X0.287500X-0.237500X0*%
%ADD31RoundRect,0.237500X0.300000X0.237500X-0.300000X0.237500X-0.300000X-0.237500X0.300000X-0.237500X0*%
%ADD32RoundRect,0.237500X-0.300000X-0.237500X0.300000X-0.237500X0.300000X0.237500X-0.300000X0.237500X0*%
%ADD33RoundRect,0.250000X-1.000000X-0.650000X1.000000X-0.650000X1.000000X0.650000X-1.000000X0.650000X0*%
%ADD34RoundRect,0.250000X-0.400000X-0.450000X0.400000X-0.450000X0.400000X0.450000X-0.400000X0.450000X0*%
%ADD35R,1.150000X1.150000*%
%ADD36C,1.150000*%
G04 APERTURE END LIST*
D10*
%TO.C,SW1*%
X123020266Y-59785435D03*
X126420266Y-59785435D03*
%TD*%
D11*
%TO.C,U1*%
X143678146Y-71300367D03*
X143678146Y-70200367D03*
X143128146Y-71850367D03*
X143128146Y-70750367D03*
X143128146Y-69650367D03*
X142578146Y-71300367D03*
D12*
X142578146Y-70750367D03*
D11*
X142578146Y-70200367D03*
X142028146Y-71850367D03*
X142028146Y-70750367D03*
X142028146Y-69650367D03*
X141478146Y-71300367D03*
X141478146Y-70200367D03*
D13*
X150368146Y-64550367D03*
X150368146Y-66050367D03*
X150368146Y-67550367D03*
X150368146Y-69050367D03*
X150368146Y-70550367D03*
X150368146Y-72050367D03*
X150368146Y-73550367D03*
X150368146Y-75050367D03*
X150368146Y-76550367D03*
X132868146Y-76550367D03*
X132868146Y-75050367D03*
X132868146Y-73550367D03*
X132868146Y-72050367D03*
X132868146Y-70550367D03*
X132868146Y-69050367D03*
X132868146Y-67550367D03*
X132868146Y-66050367D03*
X132868146Y-64550367D03*
%TD*%
D14*
%TO.C,R15*%
X129268538Y-64641505D03*
X127443538Y-64641505D03*
%TD*%
D15*
%TO.C,R12*%
X131175925Y-79605649D03*
X133000925Y-79605649D03*
%TD*%
D14*
%TO.C,R11*%
X153591699Y-79696247D03*
X155416699Y-79696247D03*
%TD*%
D16*
%TO.C,L1*%
X128362500Y-70565000D03*
X125387500Y-70565000D03*
%TD*%
D17*
%TO.C,J6*%
X104193957Y-83603448D03*
D18*
X101653957Y-83603448D03*
X104193957Y-86143448D03*
X101653957Y-86143448D03*
X104193957Y-88683448D03*
X101653957Y-88683448D03*
%TD*%
D17*
%TO.C,J5*%
X154563514Y-69341476D03*
D18*
X154563514Y-71881476D03*
X154563514Y-74421476D03*
X154563514Y-76961476D03*
%TD*%
D17*
%TO.C,J4*%
X140199256Y-80114274D03*
D18*
X142739256Y-80114274D03*
%TD*%
D19*
%TO.C,J3*%
X101000000Y-75100000D03*
D20*
X110000000Y-75100000D03*
D21*
X104000000Y-75100000D03*
D22*
X103000000Y-70600000D03*
X103000000Y-79600000D03*
%TD*%
D23*
%TO.C,Q4*%
X117356735Y-93549651D03*
X116406735Y-91274651D03*
X118306735Y-91274651D03*
%TD*%
D14*
%TO.C,R1*%
X140168956Y-87328246D03*
X138343956Y-87328246D03*
%TD*%
D23*
%TO.C,Q5*%
X111306735Y-91274651D03*
X109406735Y-91274651D03*
X110356735Y-93549651D03*
%TD*%
D24*
%TO.C,R13*%
X148337375Y-79009915D03*
X148337375Y-80834915D03*
%TD*%
D14*
%TO.C,R6*%
X126178128Y-89207417D03*
X124353128Y-89207417D03*
%TD*%
%TO.C,R2*%
X140178128Y-89207417D03*
X138353128Y-89207417D03*
%TD*%
D25*
%TO.C,F1*%
X113885000Y-74860000D03*
X113885000Y-70410000D03*
%TD*%
D26*
%TO.C,R17*%
X152397514Y-64721115D03*
X152397514Y-66546115D03*
%TD*%
D23*
%TO.C,Q3*%
X125306735Y-91274651D03*
X123406735Y-91274651D03*
X124356735Y-93549651D03*
%TD*%
D26*
%TO.C,R16*%
X119836086Y-73972814D03*
X119836086Y-72147814D03*
%TD*%
D27*
%TO.C,C4*%
X129245493Y-68033294D03*
X129245493Y-66308294D03*
%TD*%
D28*
%TO.C,J1*%
X111805000Y-62975000D03*
D29*
X106805000Y-62975000D03*
%TD*%
D23*
%TO.C,Q1*%
X139306735Y-91274651D03*
X137406735Y-91274651D03*
X138356735Y-93549651D03*
%TD*%
D15*
%TO.C,R19*%
X121454115Y-67859268D03*
X119629115Y-67859268D03*
%TD*%
%TO.C,R18*%
X124412500Y-66000000D03*
X122587500Y-66000000D03*
%TD*%
D23*
%TO.C,Q2*%
X132306735Y-91274651D03*
X130406735Y-91274651D03*
X131356735Y-93549651D03*
%TD*%
D14*
%TO.C,R9*%
X112168956Y-87328246D03*
X110343956Y-87328246D03*
%TD*%
%TO.C,R8*%
X119178128Y-89207417D03*
X117353128Y-89207417D03*
%TD*%
D27*
%TO.C,C3*%
X130975632Y-68040442D03*
X130975632Y-66315442D03*
%TD*%
D14*
%TO.C,R20*%
X117784602Y-60655577D03*
X119609602Y-60655577D03*
%TD*%
D30*
%TO.C,D3*%
X117785674Y-58915606D03*
X119535674Y-58915606D03*
%TD*%
D14*
%TO.C,R7*%
X119168956Y-87328246D03*
X117343956Y-87328246D03*
%TD*%
D31*
%TO.C,C6*%
X126694168Y-73168619D03*
X128419168Y-73168619D03*
%TD*%
D14*
%TO.C,R10*%
X112178128Y-89207417D03*
X110353128Y-89207417D03*
%TD*%
D26*
%TO.C,R14*%
X150161756Y-80827450D03*
X150161756Y-79002450D03*
%TD*%
D14*
%TO.C,R5*%
X126168956Y-87328246D03*
X124343956Y-87328246D03*
%TD*%
D32*
%TO.C,C5*%
X125362500Y-68000000D03*
X123637500Y-68000000D03*
%TD*%
D31*
%TO.C,C2*%
X119903925Y-75726290D03*
X121628925Y-75726290D03*
%TD*%
D33*
%TO.C,D2*%
X128411761Y-75920583D03*
X124411761Y-75920583D03*
%TD*%
D27*
%TO.C,C1*%
X125775013Y-64235397D03*
X125775013Y-62510397D03*
%TD*%
D14*
%TO.C,R3*%
X133168956Y-87328246D03*
X131343956Y-87328246D03*
%TD*%
D23*
%TO.C,U2*%
X123450000Y-72137500D03*
X122500000Y-72137500D03*
X121550000Y-72137500D03*
X121550000Y-69862500D03*
X122500000Y-69862500D03*
X123450000Y-69862500D03*
%TD*%
D34*
%TO.C,D1*%
X113969311Y-77129526D03*
X116869311Y-77129526D03*
%TD*%
D35*
%TO.C,J2*%
X145259291Y-95594874D03*
D36*
X145259291Y-93594873D03*
X145259291Y-91594874D03*
X145259291Y-89594873D03*
X145259291Y-87594875D03*
X145259291Y-85594874D03*
%TD*%
D14*
%TO.C,R4*%
X133178128Y-89207417D03*
X131353128Y-89207417D03*
%TD*%
M02*
