%TF.GenerationSoftware,KiCad,Pcbnew,8.0.1-8.0.1-0~ubuntu23.10.1*%
%TF.CreationDate,2024-04-04T11:37:08+03:00*%
%TF.ProjectId,LED driver,4c454420-6472-4697-9665-722e6b696361,rev?*%
%TF.SameCoordinates,Original*%
%TF.FileFunction,Copper,L2,Bot*%
%TF.FilePolarity,Positive*%
%FSLAX46Y46*%
G04 Gerber Fmt 4.6, Leading zero omitted, Abs format (unit mm)*
G04 Created by KiCad (PCBNEW 8.0.1-8.0.1-0~ubuntu23.10.1) date 2024-04-04 11:37:08*
%MOMM*%
%LPD*%
G01*
G04 APERTURE LIST*
%TA.AperFunction,HeatsinkPad*%
%ADD10C,0.600000*%
%TD*%
%TA.AperFunction,ComponentPad*%
%ADD11R,1.700000X1.700000*%
%TD*%
%TA.AperFunction,ComponentPad*%
%ADD12O,1.700000X1.700000*%
%TD*%
%TA.AperFunction,ComponentPad*%
%ADD13R,2.000000X4.000000*%
%TD*%
%TA.AperFunction,ComponentPad*%
%ADD14O,2.000000X3.300000*%
%TD*%
%TA.AperFunction,ComponentPad*%
%ADD15O,3.500000X2.000000*%
%TD*%
%TA.AperFunction,ComponentPad*%
%ADD16R,2.600000X2.600000*%
%TD*%
%TA.AperFunction,ComponentPad*%
%ADD17C,2.600000*%
%TD*%
%TA.AperFunction,ComponentPad*%
%ADD18R,1.150000X1.150000*%
%TD*%
%TA.AperFunction,ComponentPad*%
%ADD19C,1.150000*%
%TD*%
%TA.AperFunction,ViaPad*%
%ADD20C,0.600000*%
%TD*%
%TA.AperFunction,ViaPad*%
%ADD21C,0.900000*%
%TD*%
%TA.AperFunction,Conductor*%
%ADD22C,1.000000*%
%TD*%
%TA.AperFunction,Conductor*%
%ADD23C,0.200000*%
%TD*%
%TA.AperFunction,Conductor*%
%ADD24C,0.500000*%
%TD*%
G04 APERTURE END LIST*
D10*
%TO.P,U1,19,GND*%
%TO.N,GND*%
X143678146Y-71300367D03*
X143678146Y-70200367D03*
X143128146Y-71850367D03*
X143128146Y-70750367D03*
X143128146Y-69650367D03*
X142578146Y-71300367D03*
X142578146Y-70200367D03*
X142028146Y-71850367D03*
X142028146Y-70750367D03*
X142028146Y-69650367D03*
X141478146Y-71300367D03*
X141478146Y-70200367D03*
%TD*%
D11*
%TO.P,J6,1,Pin_1*%
%TO.N,GND*%
X104193957Y-83603448D03*
D12*
%TO.P,J6,2,Pin_2*%
%TO.N,+3.3V*%
X101653957Y-83603448D03*
%TO.P,J6,3,Pin_3*%
%TO.N,/IO4*%
X104193957Y-86143448D03*
%TO.P,J6,4,Pin_4*%
%TO.N,/IO5*%
X101653957Y-86143448D03*
%TO.P,J6,5,Pin_5*%
%TO.N,/IO6*%
X104193957Y-88683448D03*
%TO.P,J6,6,Pin_6*%
%TO.N,/IO7*%
X101653957Y-88683448D03*
%TD*%
D11*
%TO.P,J5,1,Pin_1*%
%TO.N,GND*%
X154563514Y-69341476D03*
D12*
%TO.P,J5,2,Pin_2*%
%TO.N,/TX*%
X154563514Y-71881476D03*
%TO.P,J5,3,Pin_3*%
%TO.N,/RX*%
X154563514Y-74421476D03*
%TO.P,J5,4,Pin_4*%
%TO.N,Net-(J5-Pin_4)*%
X154563514Y-76961476D03*
%TD*%
D11*
%TO.P,J4,1,Pin_1*%
%TO.N,GND*%
X140199256Y-80114274D03*
D12*
%TO.P,J4,2,Pin_2*%
%TO.N,Net-(J4-Pin_2)*%
X142739256Y-80114274D03*
%TD*%
D13*
%TO.P,J3,1,Pin_1*%
%TO.N,GND*%
X110000000Y-75100000D03*
D14*
%TO.P,J3,2,Pin_2*%
%TO.N,Net-(J1-Pin_2)*%
X104000000Y-75100000D03*
D15*
%TO.P,J3,MP*%
%TO.N,N/C*%
X103000000Y-70600000D03*
X103000000Y-79600000D03*
%TD*%
D16*
%TO.P,J1,1,Pin_1*%
%TO.N,GND*%
X111805000Y-62975000D03*
D17*
%TO.P,J1,2,Pin_2*%
%TO.N,Net-(J1-Pin_2)*%
X106805000Y-62975000D03*
%TD*%
D18*
%TO.P,J2,1,1*%
%TO.N,+24V*%
X145259291Y-95594874D03*
D19*
%TO.P,J2,2,2*%
%TO.N,/W*%
X145259291Y-93594873D03*
%TO.P,J2,3,3*%
%TO.N,/B*%
X145259291Y-91594874D03*
%TO.P,J2,4,4*%
%TO.N,/R*%
X145259291Y-89594873D03*
%TO.P,J2,5,5*%
%TO.N,/G*%
X145259291Y-87594875D03*
%TO.P,J2,6,6*%
%TO.N,/WW*%
X145259291Y-85594874D03*
%TD*%
D20*
%TO.N,GND*%
X124305000Y-62075000D03*
%TO.N,+3.3V*%
X154805000Y-64575000D03*
X130805000Y-64575000D03*
D21*
%TO.N,GND*%
X130805000Y-73075000D03*
X136805000Y-67075000D03*
X115805000Y-63075000D03*
X145805000Y-80075000D03*
D20*
%TO.N,+3.3V*%
X131119500Y-81636781D03*
%TO.N,/IO4*%
X134305000Y-67575000D03*
%TO.N,/IO5*%
X134305000Y-69075000D03*
%TO.N,/IO7*%
X134305000Y-72075000D03*
%TO.N,/IO6*%
X134305000Y-70575000D03*
%TO.N,/PWM_WW*%
X110305000Y-86075000D03*
X146271526Y-67421000D03*
%TO.N,/PWM_W*%
X138305000Y-86075000D03*
X148805000Y-69075000D03*
%TO.N,/PWM_B*%
X131305000Y-86075000D03*
X148805000Y-67575000D03*
%TO.N,/PWM_G*%
X117805000Y-86075000D03*
X148151000Y-66050367D03*
%TO.N,/PWM_R*%
X124305000Y-86075000D03*
X148805000Y-64575000D03*
%TO.N,/WW*%
X107979717Y-91274651D03*
%TO.N,/W*%
X135994235Y-91274651D03*
%TO.N,/B*%
X128994235Y-91274651D03*
%TO.N,/R*%
X121994235Y-91274651D03*
%TO.N,/G*%
X114994235Y-91274651D03*
%TD*%
D22*
%TO.N,GND*%
X124305000Y-66075000D02*
X135805000Y-66075000D01*
X118805000Y-66075000D02*
X124305000Y-66075000D01*
D23*
X124305000Y-62075000D02*
X124305000Y-66075000D01*
%TO.N,+3.3V*%
X154151000Y-63921000D02*
X154805000Y-64575000D01*
X130805000Y-64575000D02*
X131459000Y-63921000D01*
X131459000Y-63921000D02*
X154151000Y-63921000D01*
D22*
%TO.N,GND*%
X115805000Y-63075000D02*
X118805000Y-66075000D01*
X135805000Y-66075000D02*
X136805000Y-67075000D01*
D24*
X136805000Y-67075000D02*
X136805000Y-70712028D01*
X136805000Y-70712028D02*
X134442028Y-73075000D01*
X134442028Y-73075000D02*
X130805000Y-73075000D01*
X145805000Y-80075000D02*
X145805000Y-78099990D01*
X145805000Y-78099990D02*
X154563514Y-69341476D01*
D23*
X140199256Y-80114274D02*
X141403256Y-81318274D01*
X141403256Y-81318274D02*
X144561726Y-81318274D01*
X144561726Y-81318274D02*
X145805000Y-80075000D01*
D24*
%TO.N,+3.3V*%
X107625892Y-87617080D02*
X113606191Y-81636781D01*
X107625892Y-90491448D02*
X107625892Y-87617080D01*
X100721448Y-90491448D02*
X107625892Y-90491448D01*
X100299957Y-90069957D02*
X100721448Y-90491448D01*
X113606191Y-81636781D02*
X131119500Y-81636781D01*
X100299957Y-84957448D02*
X100299957Y-90069957D01*
X101653957Y-83603448D02*
X100299957Y-84957448D01*
D23*
%TO.N,/PWM_WW*%
X138897000Y-75664792D02*
X129594792Y-84967000D01*
X146271526Y-67421000D02*
X146071526Y-67621000D01*
X146071526Y-67621000D02*
X141116948Y-67621000D01*
X138897000Y-69840948D02*
X138897000Y-75664792D01*
X141116948Y-67621000D02*
X138897000Y-69840948D01*
X129594792Y-84967000D02*
X111413000Y-84967000D01*
X111413000Y-84967000D02*
X110305000Y-86075000D01*
%TO.N,/PWM_G*%
X148151000Y-66050367D02*
X148151000Y-66586948D01*
X139351000Y-70029000D02*
X139351000Y-75852844D01*
X148151000Y-66586948D02*
X146662948Y-68075000D01*
X146662948Y-68075000D02*
X141305000Y-68075000D01*
X141305000Y-68075000D02*
X139351000Y-70029000D01*
X139351000Y-75852844D02*
X129782844Y-85421000D01*
X129782844Y-85421000D02*
X118459000Y-85421000D01*
X118459000Y-85421000D02*
X117805000Y-86075000D01*
%TO.N,/PWM_R*%
X148805000Y-64575000D02*
X148805000Y-66575000D01*
X148805000Y-66575000D02*
X146851000Y-68529000D01*
X146851000Y-68529000D02*
X141493052Y-68529000D01*
X129805000Y-86075000D02*
X124305000Y-86075000D01*
X141493052Y-68529000D02*
X139805000Y-70217052D01*
X139805000Y-76040896D02*
X130851000Y-84994896D01*
X139805000Y-70217052D02*
X139805000Y-76040896D01*
X130851000Y-84994896D02*
X130851000Y-85029000D01*
X130851000Y-85029000D02*
X129805000Y-86075000D01*
%TO.N,/IO7*%
X101653957Y-88683448D02*
X102857957Y-89887448D01*
X105397957Y-89182162D02*
X105397957Y-88121500D01*
X102857957Y-89887448D02*
X104692671Y-89887448D01*
X104692671Y-89887448D02*
X105397957Y-89182162D01*
X105397957Y-88121500D02*
X122326742Y-71192715D01*
X133422715Y-71192715D02*
X134305000Y-72075000D01*
X122326742Y-71192715D02*
X133422715Y-71192715D01*
%TO.N,/IO5*%
X101653957Y-86143448D02*
X102857957Y-84939448D01*
X134094949Y-69285051D02*
X134305000Y-69075000D01*
X102857957Y-84939448D02*
X106653853Y-84939448D01*
X106653853Y-84939448D02*
X122308250Y-69285051D01*
X122308250Y-69285051D02*
X134094949Y-69285051D01*
%TO.N,/IO4*%
X134959000Y-68229000D02*
X134305000Y-67575000D01*
X134459000Y-69921000D02*
X134959000Y-69421000D01*
X122314353Y-69921000D02*
X134459000Y-69921000D01*
X134959000Y-69421000D02*
X134959000Y-68229000D01*
X106091905Y-86143448D02*
X122314353Y-69921000D01*
X104193957Y-86143448D02*
X106091905Y-86143448D01*
%TO.N,/IO6*%
X122302405Y-70575000D02*
X134305000Y-70575000D01*
X104193957Y-88683448D02*
X122302405Y-70575000D01*
%TO.N,/PWM_B*%
X148805000Y-67575000D02*
X148805000Y-68421000D01*
X148805000Y-68421000D02*
X148534104Y-68421000D01*
X131305000Y-85182948D02*
X131305000Y-86075000D01*
X148534104Y-68421000D02*
X147851000Y-69104104D01*
X147851000Y-69104104D02*
X147383844Y-69104104D01*
X147383844Y-69104104D02*
X131305000Y-85182948D01*
%TO.N,/PWM_W*%
X148805000Y-69075000D02*
X148522156Y-69075000D01*
X148522156Y-69075000D02*
X148039052Y-69558104D01*
X148039052Y-69558104D02*
X147571896Y-69558104D01*
X147571896Y-69558104D02*
X138305000Y-78825000D01*
X138305000Y-78825000D02*
X138305000Y-86075000D01*
D24*
%TO.N,/WW*%
X107979717Y-91274651D02*
X111179368Y-88075000D01*
X111179368Y-88075000D02*
X142779165Y-88075000D01*
X142779165Y-88075000D02*
X145259291Y-85594874D01*
%TO.N,/G*%
X114994235Y-91274651D02*
X117428013Y-88840873D01*
X117428013Y-88840873D02*
X144013293Y-88840873D01*
X144013293Y-88840873D02*
X145259291Y-87594875D01*
%TO.N,/W*%
X135994235Y-91274651D02*
X136044235Y-91224651D01*
X142889069Y-91224651D02*
X145259291Y-93594873D01*
X136044235Y-91224651D02*
X142889069Y-91224651D01*
%TO.N,/B*%
X128994235Y-91274651D02*
X129798235Y-90470651D01*
X129798235Y-90470651D02*
X144135068Y-90470651D01*
X144135068Y-90470651D02*
X145259291Y-91594874D01*
%TO.N,/R*%
X121994235Y-91274651D02*
X123674013Y-89594873D01*
X123674013Y-89594873D02*
X145259291Y-89594873D01*
%TD*%
M02*
