%TF.GenerationSoftware,KiCad,Pcbnew,8.0.2*%
%TF.CreationDate,2024-06-05T10:22:25+03:00*%
%TF.ProjectId,LED driver,4c454420-6472-4697-9665-722e6b696361,rev?*%
%TF.SameCoordinates,Original*%
%TF.FileFunction,Copper,L1,Top*%
%TF.FilePolarity,Positive*%
%FSLAX46Y46*%
G04 Gerber Fmt 4.6, Leading zero omitted, Abs format (unit mm)*
G04 Created by KiCad (PCBNEW 8.0.2) date 2024-06-05 10:22:25*
%MOMM*%
%LPD*%
G01*
G04 APERTURE LIST*
G04 Aperture macros list*
%AMRoundRect*
0 Rectangle with rounded corners*
0 $1 Rounding radius*
0 $2 $3 $4 $5 $6 $7 $8 $9 X,Y pos of 4 corners*
0 Add a 4 corners polygon primitive as box body*
4,1,4,$2,$3,$4,$5,$6,$7,$8,$9,$2,$3,0*
0 Add four circle primitives for the rounded corners*
1,1,$1+$1,$2,$3*
1,1,$1+$1,$4,$5*
1,1,$1+$1,$6,$7*
1,1,$1+$1,$8,$9*
0 Add four rect primitives between the rounded corners*
20,1,$1+$1,$2,$3,$4,$5,0*
20,1,$1+$1,$4,$5,$6,$7,0*
20,1,$1+$1,$6,$7,$8,$9,0*
20,1,$1+$1,$8,$9,$2,$3,0*%
%AMFreePoly0*
4,1,19,0.500000,-0.750000,0.000000,-0.750000,0.000000,-0.744911,-0.071157,-0.744911,-0.207708,-0.704816,-0.327430,-0.627875,-0.420627,-0.520320,-0.479746,-0.390866,-0.500000,-0.250000,-0.500000,0.250000,-0.479746,0.390866,-0.420627,0.520320,-0.327430,0.627875,-0.207708,0.704816,-0.071157,0.744911,0.000000,0.744911,0.000000,0.750000,0.500000,0.750000,0.500000,-0.750000,0.500000,-0.750000,
$1*%
%AMFreePoly1*
4,1,19,0.000000,0.744911,0.071157,0.744911,0.207708,0.704816,0.327430,0.627875,0.420627,0.520320,0.479746,0.390866,0.500000,0.250000,0.500000,-0.250000,0.479746,-0.390866,0.420627,-0.520320,0.327430,-0.627875,0.207708,-0.704816,0.071157,-0.744911,0.000000,-0.744911,0.000000,-0.750000,-0.500000,-0.750000,-0.500000,0.750000,0.000000,0.750000,0.000000,0.744911,0.000000,0.744911,
$1*%
G04 Aperture macros list end*
%TA.AperFunction,ComponentPad*%
%ADD10R,1.700000X1.700000*%
%TD*%
%TA.AperFunction,ComponentPad*%
%ADD11O,1.700000X1.700000*%
%TD*%
%TA.AperFunction,SMDPad,CuDef*%
%ADD12RoundRect,0.225000X-0.250000X0.225000X-0.250000X-0.225000X0.250000X-0.225000X0.250000X0.225000X0*%
%TD*%
%TA.AperFunction,ComponentPad*%
%ADD13R,2.600000X2.600000*%
%TD*%
%TA.AperFunction,ComponentPad*%
%ADD14C,2.600000*%
%TD*%
%TA.AperFunction,SMDPad,CuDef*%
%ADD15RoundRect,0.200000X0.200000X0.275000X-0.200000X0.275000X-0.200000X-0.275000X0.200000X-0.275000X0*%
%TD*%
%TA.AperFunction,ComponentPad*%
%ADD16C,2.000000*%
%TD*%
%TA.AperFunction,SMDPad,CuDef*%
%ADD17RoundRect,0.200000X0.275000X-0.200000X0.275000X0.200000X-0.275000X0.200000X-0.275000X-0.200000X0*%
%TD*%
%TA.AperFunction,SMDPad,CuDef*%
%ADD18RoundRect,0.250000X-1.075000X0.375000X-1.075000X-0.375000X1.075000X-0.375000X1.075000X0.375000X0*%
%TD*%
%TA.AperFunction,SMDPad,CuDef*%
%ADD19RoundRect,0.150000X0.512500X0.150000X-0.512500X0.150000X-0.512500X-0.150000X0.512500X-0.150000X0*%
%TD*%
%TA.AperFunction,SMDPad,CuDef*%
%ADD20R,0.900000X1.700000*%
%TD*%
%TA.AperFunction,SMDPad,CuDef*%
%ADD21RoundRect,0.225000X0.250000X-0.225000X0.250000X0.225000X-0.250000X0.225000X-0.250000X-0.225000X0*%
%TD*%
%TA.AperFunction,SMDPad,CuDef*%
%ADD22RoundRect,0.150000X-0.587500X-0.150000X0.587500X-0.150000X0.587500X0.150000X-0.587500X0.150000X0*%
%TD*%
%TA.AperFunction,SMDPad,CuDef*%
%ADD23RoundRect,0.200000X-0.275000X0.200000X-0.275000X-0.200000X0.275000X-0.200000X0.275000X0.200000X0*%
%TD*%
%TA.AperFunction,ComponentPad*%
%ADD24R,1.350000X1.350000*%
%TD*%
%TA.AperFunction,ComponentPad*%
%ADD25O,1.350000X1.350000*%
%TD*%
%TA.AperFunction,SMDPad,CuDef*%
%ADD26FreePoly0,90.000000*%
%TD*%
%TA.AperFunction,SMDPad,CuDef*%
%ADD27FreePoly1,90.000000*%
%TD*%
%TA.AperFunction,SMDPad,CuDef*%
%ADD28RoundRect,0.225000X0.225000X0.250000X-0.225000X0.250000X-0.225000X-0.250000X0.225000X-0.250000X0*%
%TD*%
%TA.AperFunction,SMDPad,CuDef*%
%ADD29RoundRect,0.250001X0.462499X0.624999X-0.462499X0.624999X-0.462499X-0.624999X0.462499X-0.624999X0*%
%TD*%
%TA.AperFunction,SMDPad,CuDef*%
%ADD30RoundRect,0.237500X-0.237500X0.250000X-0.237500X-0.250000X0.237500X-0.250000X0.237500X0.250000X0*%
%TD*%
%TA.AperFunction,SMDPad,CuDef*%
%ADD31RoundRect,0.237500X-0.237500X0.287500X-0.237500X-0.287500X0.237500X-0.287500X0.237500X0.287500X0*%
%TD*%
%TA.AperFunction,SMDPad,CuDef*%
%ADD32RoundRect,0.250000X0.400000X0.450000X-0.400000X0.450000X-0.400000X-0.450000X0.400000X-0.450000X0*%
%TD*%
%TA.AperFunction,SMDPad,CuDef*%
%ADD33RoundRect,0.250000X1.000000X0.900000X-1.000000X0.900000X-1.000000X-0.900000X1.000000X-0.900000X0*%
%TD*%
%TA.AperFunction,SMDPad,CuDef*%
%ADD34R,0.400000X0.800000*%
%TD*%
%TA.AperFunction,SMDPad,CuDef*%
%ADD35R,0.800000X0.400000*%
%TD*%
%TA.AperFunction,SMDPad,CuDef*%
%ADD36R,1.450000X1.450000*%
%TD*%
%TA.AperFunction,SMDPad,CuDef*%
%ADD37R,0.700000X0.700000*%
%TD*%
%TA.AperFunction,ComponentPad*%
%ADD38R,1.150000X1.150000*%
%TD*%
%TA.AperFunction,ComponentPad*%
%ADD39C,1.150000*%
%TD*%
%TA.AperFunction,ViaPad*%
%ADD40C,0.800000*%
%TD*%
%TA.AperFunction,ViaPad*%
%ADD41C,0.600000*%
%TD*%
%TA.AperFunction,Conductor*%
%ADD42C,0.500000*%
%TD*%
%TA.AperFunction,Conductor*%
%ADD43C,0.250000*%
%TD*%
G04 APERTURE END LIST*
D10*
%TO.P,J3,1,Pin_1*%
%TO.N,GND*%
X129005000Y-91285000D03*
D11*
%TO.P,J3,2,Pin_2*%
%TO.N,+3.3V*%
X129005000Y-93825000D03*
%TO.P,J3,3,Pin_3*%
%TO.N,/IO0*%
X131545000Y-91285000D03*
%TO.P,J3,4,Pin_4*%
%TO.N,/IO1*%
X131545000Y-93825000D03*
%TO.P,J3,5,Pin_5*%
%TO.N,/IO2*%
X134085000Y-91285000D03*
%TO.P,J3,6,Pin_6*%
%TO.N,/IO3*%
X134085000Y-93825000D03*
%TO.P,J3,7,Pin_7*%
%TO.N,/IO18*%
X136625000Y-91285000D03*
%TO.P,J3,8,Pin_8*%
%TO.N,/IO19*%
X136625000Y-93825000D03*
%TD*%
D12*
%TO.P,C6,1*%
%TO.N,+3.3V*%
X123875000Y-76780000D03*
%TO.P,C6,2*%
%TO.N,GND*%
X123875000Y-78330000D03*
%TD*%
D13*
%TO.P,J1,1,Pin_1*%
%TO.N,GND*%
X113865000Y-57735000D03*
D14*
%TO.P,J1,2,Pin_2*%
%TO.N,Net-(J1-Pin_2)*%
X108865000Y-57735000D03*
%TD*%
D15*
%TO.P,R10,1*%
%TO.N,Net-(Q5-G)*%
X141475000Y-64580000D03*
%TO.P,R10,2*%
%TO.N,GND*%
X139825000Y-64580000D03*
%TD*%
%TO.P,R14,1*%
%TO.N,Net-(U2-EN)*%
X126350000Y-67445000D03*
%TO.P,R14,2*%
%TO.N,VCC*%
X124700000Y-67445000D03*
%TD*%
D16*
%TO.P,TP3,1,1*%
%TO.N,/PWM_R*%
X136805000Y-77575000D03*
%TD*%
D17*
%TO.P,R12,1*%
%TO.N,+3.3V*%
X107435000Y-92880000D03*
%TO.P,R12,2*%
%TO.N,/IO2*%
X107435000Y-91230000D03*
%TD*%
D15*
%TO.P,R3,1*%
%TO.N,Net-(Q2-G)*%
X146475000Y-86580000D03*
%TO.P,R3,2*%
%TO.N,/PWM_B*%
X144825000Y-86580000D03*
%TD*%
D18*
%TO.P,L1,1,1*%
%TO.N,Net-(D2-K)*%
X126785000Y-73555000D03*
%TO.P,L1,2,2*%
%TO.N,+3.3V*%
X126785000Y-76355000D03*
%TD*%
D19*
%TO.P,U2,1,BST*%
%TO.N,Net-(U2-BST)*%
X128392500Y-71425000D03*
%TO.P,U2,2,GND*%
%TO.N,GND*%
X128392500Y-70475000D03*
%TO.P,U2,3,FB*%
%TO.N,Net-(U2-FB)*%
X128392500Y-69525000D03*
%TO.P,U2,4,EN*%
%TO.N,Net-(U2-EN)*%
X126117500Y-69525000D03*
%TO.P,U2,5,IN*%
%TO.N,VCC*%
X126117500Y-70475000D03*
%TO.P,U2,6,SW*%
%TO.N,Net-(D2-K)*%
X126117500Y-71425000D03*
%TD*%
D20*
%TO.P,SW1,1,1*%
%TO.N,GND*%
X111715000Y-94925000D03*
%TO.P,SW1,2,2*%
%TO.N,Net-(U1-EN)*%
X115115000Y-94925000D03*
%TD*%
D21*
%TO.P,C1,1*%
%TO.N,GND*%
X103425000Y-92830000D03*
%TO.P,C1,2*%
%TO.N,+3.3V*%
X103425000Y-91280000D03*
%TD*%
D16*
%TO.P,TP4,1,1*%
%TO.N,/PWM_G*%
X136805000Y-70575000D03*
%TD*%
D12*
%TO.P,C5,1*%
%TO.N,Net-(U2-BST)*%
X130535000Y-72980000D03*
%TO.P,C5,2*%
%TO.N,Net-(D2-K)*%
X130535000Y-74530000D03*
%TD*%
D22*
%TO.P,Q5,1,G*%
%TO.N,Net-(Q5-G)*%
X143612500Y-62600000D03*
%TO.P,Q5,2,S*%
%TO.N,GND*%
X143612500Y-64500000D03*
%TO.P,Q5,3,D*%
%TO.N,/WW*%
X145487500Y-63550000D03*
%TD*%
D13*
%TO.P,J1,1,Pin_1*%
%TO.N,GND*%
X99965000Y-63635000D03*
D14*
%TO.P,J1,2,Pin_2*%
%TO.N,Net-(J1-Pin_2)*%
X99965000Y-68635000D03*
%TD*%
D15*
%TO.P,R13,1*%
%TO.N,+3.3V*%
X122310000Y-95845000D03*
%TO.P,R13,2*%
%TO.N,Net-(JP2-B)*%
X120660000Y-95845000D03*
%TD*%
D23*
%TO.P,R16,1*%
%TO.N,GND*%
X130535000Y-65930000D03*
%TO.P,R16,2*%
%TO.N,Net-(U2-FB)*%
X130535000Y-67580000D03*
%TD*%
D22*
%TO.P,Q4,1,G*%
%TO.N,Net-(Q4-G)*%
X143612500Y-69600000D03*
%TO.P,Q4,2,S*%
%TO.N,GND*%
X143612500Y-71500000D03*
%TO.P,Q4,3,D*%
%TO.N,/G*%
X145487500Y-70550000D03*
%TD*%
D24*
%TO.P,J4,1,Pin_1*%
%TO.N,Net-(J4-Pin_1)*%
X109205000Y-73075000D03*
D25*
%TO.P,J4,2,Pin_2*%
%TO.N,/RX*%
X111205000Y-73075000D03*
%TO.P,J4,3,Pin_3*%
%TO.N,/TX*%
X113205000Y-73075000D03*
%TO.P,J4,4,Pin_4*%
%TO.N,GND*%
X115205000Y-73075000D03*
%TD*%
D16*
%TO.P,TP1,1,1*%
%TO.N,/PWM_W*%
X141805000Y-94575000D03*
%TD*%
D15*
%TO.P,R9,1*%
%TO.N,Net-(Q5-G)*%
X141475000Y-62580000D03*
%TO.P,R9,2*%
%TO.N,/PWM_WW*%
X139825000Y-62580000D03*
%TD*%
D21*
%TO.P,C3,1*%
%TO.N,GND*%
X105385000Y-92830000D03*
%TO.P,C3,2*%
%TO.N,+3.3V*%
X105385000Y-91280000D03*
%TD*%
D22*
%TO.P,Q3,1,G*%
%TO.N,Net-(Q3-G)*%
X143612500Y-76600000D03*
%TO.P,Q3,2,S*%
%TO.N,GND*%
X143612500Y-78500000D03*
%TO.P,Q3,3,D*%
%TO.N,/R*%
X145487500Y-77550000D03*
%TD*%
D15*
%TO.P,R8,1*%
%TO.N,Net-(Q4-G)*%
X141475000Y-71580000D03*
%TO.P,R8,2*%
%TO.N,GND*%
X139825000Y-71580000D03*
%TD*%
D26*
%TO.P,JP3,1,A*%
%TO.N,+3.3V*%
X115205000Y-78635000D03*
D27*
%TO.P,JP3,2,B*%
%TO.N,Net-(J4-Pin_1)*%
X115205000Y-77335000D03*
%TD*%
D15*
%TO.P,R6,1*%
%TO.N,Net-(Q3-G)*%
X141475000Y-78580000D03*
%TO.P,R6,2*%
%TO.N,GND*%
X139825000Y-78580000D03*
%TD*%
D23*
%TO.P,R15,1*%
%TO.N,Net-(U2-FB)*%
X130535000Y-69430000D03*
%TO.P,R15,2*%
%TO.N,+3.3V*%
X130535000Y-71080000D03*
%TD*%
D16*
%TO.P,TP2,1,1*%
%TO.N,/PWM_B*%
X141805000Y-87575000D03*
%TD*%
D12*
%TO.P,C2,1*%
%TO.N,GND*%
X115075000Y-90520000D03*
%TO.P,C2,2*%
%TO.N,Net-(U1-EN)*%
X115075000Y-92070000D03*
%TD*%
D28*
%TO.P,C4,1*%
%TO.N,VCC*%
X123900000Y-69545000D03*
%TO.P,C4,2*%
%TO.N,GND*%
X122350000Y-69545000D03*
%TD*%
D29*
%TO.P,F1,1*%
%TO.N,VCC*%
X122792500Y-59825000D03*
%TO.P,F1,2*%
%TO.N,Net-(J1-Pin_2)*%
X119817500Y-59825000D03*
%TD*%
D24*
%TO.P,JP1,1,A*%
%TO.N,/IO9*%
X121505000Y-91075000D03*
D25*
%TO.P,JP1,2,B*%
%TO.N,GND*%
X121505000Y-93075000D03*
%TD*%
D30*
%TO.P,R17,1*%
%TO.N,GND*%
X124075000Y-91342500D03*
%TO.P,R17,2*%
%TO.N,Net-(D3-A)*%
X124075000Y-93167500D03*
%TD*%
D31*
%TO.P,D3,1,K*%
%TO.N,+3.3V*%
X126135000Y-91380000D03*
%TO.P,D3,2,A*%
%TO.N,Net-(D3-A)*%
X126135000Y-93130000D03*
%TD*%
D32*
%TO.P,D1,1,A1*%
%TO.N,VCC*%
X122755000Y-56075000D03*
%TO.P,D1,2,A2*%
%TO.N,GND*%
X119855000Y-56075000D03*
%TD*%
D16*
%TO.P,TP5,1,1*%
%TO.N,/PWM_WW*%
X136805000Y-63575000D03*
%TD*%
D33*
%TO.P,D2,1,K*%
%TO.N,Net-(D2-K)*%
X123055000Y-73200000D03*
%TO.P,D2,2,A*%
%TO.N,GND*%
X118755000Y-73200000D03*
%TD*%
D15*
%TO.P,R1,1*%
%TO.N,Net-(Q1-G)*%
X146475000Y-93580000D03*
%TO.P,R1,2*%
%TO.N,/PWM_W*%
X144825000Y-93580000D03*
%TD*%
D10*
%TO.P,J5,1,Pin_1*%
%TO.N,VCC*%
X135330000Y-81575000D03*
D11*
%TO.P,J5,2,Pin_2*%
%TO.N,GND*%
X132790000Y-81575000D03*
%TO.P,J5,3,Pin_3*%
%TO.N,+3.3V*%
X130250000Y-81575000D03*
%TD*%
D15*
%TO.P,R2,1*%
%TO.N,Net-(Q1-G)*%
X146475000Y-95580000D03*
%TO.P,R2,2*%
%TO.N,GND*%
X144825000Y-95580000D03*
%TD*%
D22*
%TO.P,Q1,1,G*%
%TO.N,Net-(Q1-G)*%
X148612500Y-93600000D03*
%TO.P,Q1,2,S*%
%TO.N,GND*%
X148612500Y-95500000D03*
%TO.P,Q1,3,D*%
%TO.N,/W*%
X150487500Y-94550000D03*
%TD*%
D15*
%TO.P,R7,1*%
%TO.N,Net-(Q4-G)*%
X141475000Y-69580000D03*
%TO.P,R7,2*%
%TO.N,/PWM_G*%
X139825000Y-69580000D03*
%TD*%
D22*
%TO.P,Q2,1,G*%
%TO.N,Net-(Q2-G)*%
X148612500Y-86600000D03*
%TO.P,Q2,2,S*%
%TO.N,GND*%
X148612500Y-88500000D03*
%TO.P,Q2,3,D*%
%TO.N,/B*%
X150487500Y-87550000D03*
%TD*%
D15*
%TO.P,R4,1*%
%TO.N,Net-(Q2-G)*%
X146475000Y-88580000D03*
%TO.P,R4,2*%
%TO.N,GND*%
X144825000Y-88580000D03*
%TD*%
%TO.P,R5,1*%
%TO.N,Net-(Q3-G)*%
X141475000Y-76580000D03*
%TO.P,R5,2*%
%TO.N,/PWM_R*%
X139825000Y-76580000D03*
%TD*%
D17*
%TO.P,R11,1*%
%TO.N,+3.3V*%
X109535000Y-92880000D03*
%TO.P,R11,2*%
%TO.N,Net-(U1-EN)*%
X109535000Y-91230000D03*
%TD*%
D34*
%TO.P,U1,1,GND*%
%TO.N,GND*%
X102805000Y-88575000D03*
%TO.P,U1,2,GND_2*%
X103605000Y-88575000D03*
%TO.P,U1,3,3V3*%
%TO.N,+3.3V*%
X104405000Y-88575000D03*
%TO.P,U1,4*%
%TO.N,N/C*%
X105205000Y-88575000D03*
%TO.P,U1,5,IO2*%
%TO.N,/IO2*%
X106005000Y-88575000D03*
%TO.P,U1,6,IO3*%
%TO.N,/IO3*%
X106805000Y-88575000D03*
%TO.P,U1,7*%
%TO.N,N/C*%
X107605000Y-88575000D03*
%TO.P,U1,8,EN*%
%TO.N,Net-(U1-EN)*%
X108405000Y-88575000D03*
%TO.P,U1,9*%
%TO.N,N/C*%
X109205000Y-88575000D03*
%TO.P,U1,10*%
X110005000Y-88575000D03*
%TO.P,U1,11,GND_3*%
%TO.N,GND*%
X110805000Y-88575000D03*
D35*
%TO.P,U1,12,IO0*%
%TO.N,/IO0*%
X111705000Y-87475000D03*
%TO.P,U1,13,IO1*%
%TO.N,/IO1*%
X111705000Y-86675000D03*
%TO.P,U1,14,GND_4*%
%TO.N,GND*%
X111705000Y-85875000D03*
%TO.P,U1,15*%
%TO.N,N/C*%
X111705000Y-85075000D03*
%TO.P,U1,16,IO10*%
%TO.N,unconnected-(U1-IO10-Pad16)*%
X111705000Y-84275000D03*
%TO.P,U1,17*%
%TO.N,N/C*%
X111705000Y-83475000D03*
%TO.P,U1,18,IO4*%
%TO.N,/PWM_R*%
X111705000Y-82675000D03*
%TO.P,U1,19,IO5*%
%TO.N,/PWM_G*%
X111705000Y-81875000D03*
%TO.P,U1,20,IO6*%
%TO.N,/PWM_B*%
X111705000Y-81075000D03*
%TO.P,U1,21,IO7*%
%TO.N,/PWM_W*%
X111705000Y-80275000D03*
%TO.P,U1,22,IO8*%
%TO.N,Net-(JP2-C)*%
X111705000Y-79475000D03*
%TO.P,U1,23,IO9*%
%TO.N,/IO9*%
X111705000Y-78675000D03*
%TO.P,U1,24*%
%TO.N,N/C*%
X111705000Y-77875000D03*
D34*
%TO.P,U1,25*%
X110805000Y-76775000D03*
%TO.P,U1,26,IO18*%
%TO.N,/IO18*%
X110005000Y-76775000D03*
%TO.P,U1,27,IO19*%
%TO.N,/IO19*%
X109205000Y-76775000D03*
%TO.P,U1,28*%
%TO.N,N/C*%
X108405000Y-76775000D03*
%TO.P,U1,29*%
X107605000Y-76775000D03*
%TO.P,U1,30,RXD0*%
%TO.N,/RX*%
X106805000Y-76775000D03*
%TO.P,U1,31,TXD0*%
%TO.N,/TX*%
X106005000Y-76775000D03*
%TO.P,U1,32*%
%TO.N,N/C*%
X105205000Y-76775000D03*
%TO.P,U1,33*%
X104405000Y-76775000D03*
%TO.P,U1,34*%
X103605000Y-76775000D03*
%TO.P,U1,35*%
X102805000Y-76775000D03*
D35*
%TO.P,U1,36,GND_5*%
%TO.N,GND*%
X101905000Y-77875000D03*
%TO.P,U1,37,GND_6*%
X101905000Y-78675000D03*
%TO.P,U1,38,GND_7*%
X101905000Y-79475000D03*
%TO.P,U1,39,GND_8*%
X101905000Y-80275000D03*
%TO.P,U1,40,GND_9*%
X101905000Y-81075000D03*
%TO.P,U1,41,GND_10*%
X101905000Y-81875000D03*
%TO.P,U1,42,GND_11*%
X101905000Y-82675000D03*
%TO.P,U1,43,GND_12*%
X101905000Y-83475000D03*
%TO.P,U1,44,GND_13*%
X101905000Y-84275000D03*
%TO.P,U1,45,GND_14*%
X101905000Y-85075000D03*
%TO.P,U1,46,GND_15*%
X101905000Y-85875000D03*
%TO.P,U1,47,GND_16*%
X101905000Y-86675000D03*
%TO.P,U1,48,GND_17*%
X101905000Y-87475000D03*
D36*
%TO.P,U1,49,GND_18*%
X106805000Y-82675000D03*
%TO.P,U1,50,GND_19*%
X104830000Y-80700000D03*
%TO.P,U1,51,GND_20*%
X104830000Y-82675000D03*
%TO.P,U1,52,GND_21*%
X104830000Y-84650000D03*
%TO.P,U1,53,GND_22*%
X106805000Y-84650000D03*
%TO.P,U1,54,GND_23*%
X108780000Y-84650000D03*
%TO.P,U1,55,GND_24*%
X108780000Y-82675000D03*
%TO.P,U1,56,GND_25*%
X108780000Y-80700000D03*
%TO.P,U1,57,GND_26*%
X106805000Y-80700000D03*
D37*
%TO.P,U1,58,GND_27*%
X101855000Y-88625000D03*
%TO.P,U1,59,GND_28*%
X111755000Y-88625000D03*
%TO.P,U1,60,GND_29*%
X111755000Y-76725000D03*
%TO.P,U1,61,GND_30*%
X101855000Y-76725000D03*
%TD*%
D24*
%TO.P,JP2,1,A*%
%TO.N,/PWM_WW*%
X117905000Y-91075000D03*
D25*
%TO.P,JP2,2,C*%
%TO.N,Net-(JP2-C)*%
X117905000Y-93075000D03*
%TO.P,JP2,3,B*%
%TO.N,Net-(JP2-B)*%
X117905000Y-95075000D03*
%TD*%
D38*
%TO.P,J2,1,Pin_1*%
%TO.N,VCC*%
X152554999Y-80074986D03*
D39*
%TO.P,J2,2,Pin_2*%
%TO.N,/W*%
X152554999Y-78074985D03*
%TO.P,J2,3,Pin_3*%
%TO.N,/B*%
X152554999Y-76074986D03*
%TO.P,J2,4,Pin_4*%
%TO.N,/R*%
X152554999Y-74074985D03*
%TO.P,J2,5,Pin_5*%
%TO.N,/G*%
X152554999Y-72074987D03*
%TO.P,J2,6,Pin_6*%
%TO.N,/WW*%
X152554999Y-70074986D03*
%TD*%
D40*
%TO.N,VCC*%
X124555000Y-59825000D03*
X124555000Y-58575000D03*
X124555000Y-57325000D03*
X123900000Y-67975000D03*
X124555000Y-56075000D03*
D41*
%TO.N,+3.3V*%
X107435000Y-92880000D03*
D40*
X115205000Y-78635000D03*
D41*
X105385000Y-91280000D03*
X103425000Y-91280000D03*
X122310000Y-95845000D03*
D40*
X127505000Y-77775000D03*
D41*
X126135000Y-91380000D03*
X109535000Y-92880000D03*
X130535000Y-71080000D03*
D40*
X126005000Y-77775000D03*
D41*
%TO.N,/PWM_W*%
X113405000Y-80275000D03*
X120005000Y-84575000D03*
X126605000Y-84575000D03*
%TO.N,/PWM_B*%
X114305000Y-81075000D03*
X118805000Y-84575000D03*
X127805000Y-84575000D03*
%TO.N,/PWM_R*%
X117805000Y-78375000D03*
%TO.N,/PWM_G*%
X117805000Y-75975000D03*
%TO.N,/PWM_WW*%
X117805000Y-77175000D03*
%TO.N,/IO9*%
X107805000Y-77975000D03*
D40*
%TO.N,Net-(J1-Pin_2)*%
X120555000Y-61575000D03*
X119305000Y-62825000D03*
X119305000Y-61575000D03*
X120555000Y-62825000D03*
D41*
%TO.N,Net-(JP2-C)*%
X107805000Y-79175000D03*
%TO.N,/IO0*%
X113105000Y-87675000D03*
X118805000Y-88175000D03*
X127805000Y-88175000D03*
%TO.N,/IO19*%
X109005000Y-77975000D03*
X126605000Y-86975000D03*
X120005000Y-86975000D03*
%TO.N,/IO18*%
X126605000Y-85775000D03*
X110205000Y-77975000D03*
X120005000Y-85775000D03*
%TO.N,/IO1*%
X120005000Y-88175000D03*
X126605000Y-88175000D03*
X113105000Y-86475000D03*
%TD*%
D42*
%TO.N,VCC*%
X124700000Y-67445000D02*
X124170000Y-67975000D01*
X124830000Y-70475000D02*
X123900000Y-69545000D01*
X126117500Y-70475000D02*
X124830000Y-70475000D01*
X124170000Y-67975000D02*
X123900000Y-67975000D01*
X123900000Y-67975000D02*
X123900000Y-69545000D01*
%TO.N,Net-(D2-K)*%
X126785000Y-73555000D02*
X127760000Y-74530000D01*
X126117500Y-71425000D02*
X126117500Y-72887500D01*
X126117500Y-72887500D02*
X126785000Y-73555000D01*
X127760000Y-74530000D02*
X130535000Y-74530000D01*
X123055000Y-73200000D02*
X126430000Y-73200000D01*
X126430000Y-73200000D02*
X126785000Y-73555000D01*
%TO.N,Net-(U2-BST)*%
X128980000Y-71425000D02*
X130535000Y-72980000D01*
X128392500Y-71425000D02*
X128980000Y-71425000D01*
%TO.N,+3.3V*%
X123875000Y-76780000D02*
X124280000Y-76375000D01*
X104405000Y-91280000D02*
X104405000Y-88575000D01*
X124280000Y-76375000D02*
X126105000Y-76375000D01*
X103425000Y-91280000D02*
X105385000Y-91280000D01*
D43*
%TO.N,Net-(U1-EN)*%
X114640000Y-91575000D02*
X115115000Y-92050000D01*
X108405000Y-90100000D02*
X109535000Y-91230000D01*
X115115000Y-92050000D02*
X115115000Y-94925000D01*
X109535000Y-91230000D02*
X109880000Y-91575000D01*
X109880000Y-91575000D02*
X114640000Y-91575000D01*
X108405000Y-88575000D02*
X108405000Y-90100000D01*
D42*
%TO.N,/W*%
X153805000Y-79324986D02*
X152554999Y-78074985D01*
X150487500Y-94550000D02*
X150487500Y-91550000D01*
X153805000Y-88232500D02*
X153805000Y-79324986D01*
X150487500Y-91550000D02*
X153805000Y-88232500D01*
%TO.N,/B*%
X150487500Y-87550000D02*
X150487500Y-78142485D01*
X150487500Y-78142485D02*
X152554999Y-76074986D01*
%TO.N,/R*%
X145487500Y-77550000D02*
X149079984Y-77550000D01*
X149079984Y-77550000D02*
X152554999Y-74074985D01*
%TO.N,/WW*%
X145487500Y-63550000D02*
X152012486Y-70074986D01*
X152012486Y-70074986D02*
X152554999Y-70074986D01*
%TO.N,/G*%
X151030012Y-70550000D02*
X152554999Y-72074987D01*
X145487500Y-70550000D02*
X151030012Y-70550000D01*
%TO.N,Net-(Q1-G)*%
X146475000Y-95580000D02*
X146475000Y-93580000D01*
X148612500Y-93600000D02*
X146495000Y-93600000D01*
X146495000Y-93600000D02*
X146475000Y-93580000D01*
%TO.N,Net-(Q2-G)*%
X148612500Y-86600000D02*
X146495000Y-86600000D01*
X146475000Y-88580000D02*
X146475000Y-86580000D01*
X146495000Y-86600000D02*
X146475000Y-86580000D01*
%TO.N,Net-(Q3-G)*%
X143612500Y-76600000D02*
X141495000Y-76600000D01*
X141475000Y-78580000D02*
X141475000Y-76580000D01*
X141495000Y-76600000D02*
X141475000Y-76580000D01*
%TO.N,Net-(Q4-G)*%
X141475000Y-71580000D02*
X141475000Y-69580000D01*
X143612500Y-69600000D02*
X141495000Y-69600000D01*
X141495000Y-69600000D02*
X141475000Y-69580000D01*
%TO.N,Net-(Q5-G)*%
X143612500Y-62600000D02*
X141495000Y-62600000D01*
X141495000Y-62600000D02*
X141475000Y-62580000D01*
X141475000Y-64580000D02*
X141475000Y-62580000D01*
%TO.N,Net-(U2-EN)*%
X126117500Y-67677500D02*
X126117500Y-69525000D01*
X126350000Y-67445000D02*
X126117500Y-67677500D01*
%TO.N,Net-(U2-FB)*%
X128392500Y-69525000D02*
X130440000Y-69525000D01*
X130440000Y-69525000D02*
X130535000Y-69430000D01*
X130535000Y-67580000D02*
X130535000Y-69430000D01*
%TO.N,Net-(D3-A)*%
X126097500Y-93167500D02*
X124162500Y-93167500D01*
D43*
%TO.N,/RX*%
X106805000Y-76775000D02*
X106805000Y-72475000D01*
X107705000Y-71575000D02*
X109715000Y-71575000D01*
X109715000Y-71575000D02*
X111255000Y-73115000D01*
X106805000Y-72475000D02*
X107705000Y-71575000D01*
%TO.N,/TX*%
X106005000Y-76775000D02*
X106005000Y-72475000D01*
X107405000Y-71075000D02*
X111205000Y-71075000D01*
X111205000Y-71075000D02*
X113205000Y-73075000D01*
X106005000Y-72475000D02*
X107405000Y-71075000D01*
%TO.N,/PWM_W*%
X113405000Y-80275000D02*
X111705000Y-80275000D01*
X125605000Y-85575000D02*
X126605000Y-84575000D01*
X121005000Y-85575000D02*
X125605000Y-85575000D01*
X120005000Y-84575000D02*
X121005000Y-85575000D01*
D42*
X142800000Y-93580000D02*
X144825000Y-93580000D01*
X141805000Y-94575000D02*
X142800000Y-93580000D01*
D43*
%TO.N,/PWM_B*%
X127030000Y-83800000D02*
X127805000Y-84575000D01*
X126283984Y-83800000D02*
X127030000Y-83800000D01*
X111705000Y-81075000D02*
X114305000Y-81075000D01*
X121651016Y-85125000D02*
X124958984Y-85125000D01*
D42*
X141805000Y-87575000D02*
X142800000Y-86580000D01*
D43*
X120326016Y-83800000D02*
X121651016Y-85125000D01*
D42*
X142800000Y-86580000D02*
X144825000Y-86580000D01*
D43*
X124958984Y-85125000D02*
X126283984Y-83800000D01*
X118805000Y-84575000D02*
X119580000Y-83800000D01*
X119580000Y-83800000D02*
X120326016Y-83800000D01*
%TO.N,/PWM_R*%
X117805000Y-78375000D02*
X117805000Y-79307412D01*
D42*
X137800000Y-76580000D02*
X139825000Y-76580000D01*
D43*
X117805000Y-79307412D02*
X114437412Y-82675000D01*
D42*
X136805000Y-77575000D02*
X137800000Y-76580000D01*
D43*
X114437412Y-82675000D02*
X111705000Y-82675000D01*
%TO.N,/PWM_G*%
X117005000Y-76775000D02*
X117005000Y-79471016D01*
X117005000Y-79471016D02*
X114601016Y-81875000D01*
D42*
X137800000Y-69580000D02*
X139825000Y-69580000D01*
D43*
X117805000Y-75975000D02*
X117005000Y-76775000D01*
D42*
X136805000Y-70575000D02*
X137800000Y-69580000D01*
D43*
X114601016Y-81875000D02*
X111705000Y-81875000D01*
%TO.N,/PWM_WW*%
X116405000Y-89575000D02*
X117905000Y-91075000D01*
X118605000Y-77975000D02*
X118605000Y-79175000D01*
X116405000Y-81375000D02*
X116405000Y-89575000D01*
X118605000Y-79175000D02*
X116405000Y-81375000D01*
D42*
X136805000Y-63575000D02*
X137800000Y-62580000D01*
D43*
X117805000Y-77175000D02*
X118605000Y-77975000D01*
D42*
X137800000Y-62580000D02*
X139825000Y-62580000D01*
D43*
%TO.N,/IO9*%
X111630000Y-78750000D02*
X111705000Y-78675000D01*
X107805000Y-77975000D02*
X108580000Y-78750000D01*
X108580000Y-78750000D02*
X111630000Y-78750000D01*
%TO.N,Net-(JP2-C)*%
X107805000Y-79175000D02*
X108105000Y-79475000D01*
X108105000Y-79475000D02*
X111705000Y-79475000D01*
%TO.N,/IO2*%
X135355000Y-94625000D02*
X135355000Y-92555000D01*
X106635000Y-92030000D02*
X106635000Y-93605000D01*
X131421396Y-97125000D02*
X133371396Y-95175000D01*
X133371396Y-95175000D02*
X134805000Y-95175000D01*
X110155000Y-97125000D02*
X131421396Y-97125000D01*
X134805000Y-95175000D02*
X135355000Y-94625000D01*
X135355000Y-92555000D02*
X134085000Y-91285000D01*
X106005000Y-89800000D02*
X107435000Y-91230000D01*
X107435000Y-91230000D02*
X106635000Y-92030000D01*
X106635000Y-93605000D02*
X110155000Y-97125000D01*
X106005000Y-88575000D02*
X106005000Y-89800000D01*
%TO.N,/IO0*%
X120326016Y-88950000D02*
X121601016Y-87675000D01*
X127030000Y-88950000D02*
X127805000Y-88175000D01*
X119580000Y-88950000D02*
X120326016Y-88950000D01*
X121601016Y-87675000D02*
X125008984Y-87675000D01*
X112905000Y-87475000D02*
X111705000Y-87475000D01*
X126283984Y-88950000D02*
X127030000Y-88950000D01*
X118805000Y-88175000D02*
X119580000Y-88950000D01*
X125008984Y-87675000D02*
X126283984Y-88950000D01*
X113105000Y-87675000D02*
X112905000Y-87475000D01*
%TO.N,/IO3*%
X131235000Y-96675000D02*
X134085000Y-93825000D01*
X106805000Y-88575000D02*
X106805000Y-89376996D01*
X108505000Y-94775000D02*
X110405000Y-96675000D01*
X106805000Y-89376996D02*
X108505000Y-91076996D01*
X110405000Y-96675000D02*
X131235000Y-96675000D01*
X108505000Y-91076996D02*
X108505000Y-94775000D01*
%TO.N,/IO19*%
X120005000Y-86975000D02*
X120205000Y-86775000D01*
X109005000Y-77975000D02*
X109205000Y-77775000D01*
X109205000Y-77775000D02*
X109205000Y-76775000D01*
X120205000Y-86775000D02*
X126405000Y-86775000D01*
X126405000Y-86775000D02*
X126605000Y-86975000D01*
%TO.N,/IO18*%
X110005000Y-77775000D02*
X110205000Y-77975000D01*
X120555000Y-86325000D02*
X126055000Y-86325000D01*
X110005000Y-76775000D02*
X110005000Y-77775000D01*
X126055000Y-86325000D02*
X126605000Y-85775000D01*
X120005000Y-85775000D02*
X120555000Y-86325000D01*
%TO.N,/IO1*%
X120005000Y-88175000D02*
X120955000Y-87225000D01*
X111705000Y-86675000D02*
X112905000Y-86675000D01*
X125655000Y-87225000D02*
X126605000Y-88175000D01*
X120955000Y-87225000D02*
X125655000Y-87225000D01*
X112905000Y-86675000D02*
X113105000Y-86475000D01*
%TO.N,Net-(JP2-B)*%
X117905000Y-95075000D02*
X118675000Y-95845000D01*
X118675000Y-95845000D02*
X120660000Y-95845000D01*
D42*
%TO.N,Net-(J4-Pin_1)*%
X115205000Y-76375000D02*
X115205000Y-77335000D01*
X111205000Y-75075000D02*
X113905000Y-75075000D01*
X113905000Y-75075000D02*
X115205000Y-76375000D01*
X109205000Y-73075000D02*
X111205000Y-75075000D01*
%TD*%
%TA.AperFunction,Conductor*%
%TO.N,VCC*%
G36*
X125248039Y-54594685D02*
G01*
X125293794Y-54647489D01*
X125305000Y-54699000D01*
X125305000Y-61201000D01*
X125285315Y-61268039D01*
X125232511Y-61313794D01*
X125181000Y-61325000D01*
X121729000Y-61325000D01*
X121661961Y-61305315D01*
X121616206Y-61252511D01*
X121605000Y-61201000D01*
X121605000Y-54699000D01*
X121624685Y-54631961D01*
X121677489Y-54586206D01*
X121729000Y-54575000D01*
X125181000Y-54575000D01*
X125248039Y-54594685D01*
G37*
%TD.AperFunction*%
%TD*%
%TA.AperFunction,Conductor*%
%TO.N,GND*%
G36*
X154807702Y-52875617D02*
G01*
X155209202Y-52893147D01*
X155219937Y-52894087D01*
X155615693Y-52946189D01*
X155626331Y-52948064D01*
X156016043Y-53034462D01*
X156026483Y-53037260D01*
X156407168Y-53157289D01*
X156417315Y-53160982D01*
X156786102Y-53313739D01*
X156795893Y-53318305D01*
X157149942Y-53502611D01*
X157159310Y-53508019D01*
X157495959Y-53722488D01*
X157504820Y-53728693D01*
X157821487Y-53971680D01*
X157829774Y-53978634D01*
X158124056Y-54248294D01*
X158131705Y-54255943D01*
X158401365Y-54550225D01*
X158408319Y-54558512D01*
X158651306Y-54875179D01*
X158657511Y-54884040D01*
X158871980Y-55220689D01*
X158877388Y-55230057D01*
X159061691Y-55584099D01*
X159066263Y-55593903D01*
X159219013Y-55962674D01*
X159222713Y-55972840D01*
X159342738Y-56353512D01*
X159345538Y-56363960D01*
X159431933Y-56753660D01*
X159433811Y-56764314D01*
X159485910Y-57160042D01*
X159486853Y-57170818D01*
X159504382Y-57572297D01*
X159504500Y-57577706D01*
X159504500Y-92572293D01*
X159504382Y-92577702D01*
X159486853Y-92979181D01*
X159485910Y-92989957D01*
X159433811Y-93385685D01*
X159431933Y-93396339D01*
X159345538Y-93786039D01*
X159342738Y-93796487D01*
X159222713Y-94177159D01*
X159219013Y-94187325D01*
X159066263Y-94556096D01*
X159061691Y-94565900D01*
X158877388Y-94919942D01*
X158871980Y-94929310D01*
X158657511Y-95265959D01*
X158651306Y-95274820D01*
X158408319Y-95591487D01*
X158401365Y-95599774D01*
X158131705Y-95894056D01*
X158124056Y-95901705D01*
X157829774Y-96171365D01*
X157821487Y-96178319D01*
X157504820Y-96421306D01*
X157495959Y-96427511D01*
X157159310Y-96641980D01*
X157149942Y-96647388D01*
X156795900Y-96831691D01*
X156786096Y-96836263D01*
X156417325Y-96989013D01*
X156407159Y-96992713D01*
X156026487Y-97112738D01*
X156016039Y-97115538D01*
X155626339Y-97201933D01*
X155615685Y-97203811D01*
X155219957Y-97255910D01*
X155209181Y-97256853D01*
X154807703Y-97274382D01*
X154802294Y-97274500D01*
X132102295Y-97274500D01*
X132035256Y-97254815D01*
X131989501Y-97202011D01*
X131979557Y-97132853D01*
X132008582Y-97069297D01*
X132014614Y-97062819D01*
X133490614Y-95586819D01*
X133551937Y-95553334D01*
X133578295Y-95550500D01*
X134854435Y-95550500D01*
X134854436Y-95550500D01*
X134895354Y-95539535D01*
X134906319Y-95536598D01*
X134925549Y-95531444D01*
X134949938Y-95524910D01*
X135035562Y-95475475D01*
X135105475Y-95405562D01*
X135655474Y-94855563D01*
X135667203Y-94835247D01*
X135673069Y-94825089D01*
X135691608Y-94792977D01*
X135704910Y-94769938D01*
X135715605Y-94730021D01*
X135751968Y-94670363D01*
X135814814Y-94639833D01*
X135884190Y-94648127D01*
X135918916Y-94670478D01*
X135958958Y-94706980D01*
X135958960Y-94706982D01*
X135998589Y-94731519D01*
X136132363Y-94814348D01*
X136322544Y-94888024D01*
X136523024Y-94925500D01*
X136523026Y-94925500D01*
X136726974Y-94925500D01*
X136726976Y-94925500D01*
X136927456Y-94888024D01*
X137117637Y-94814348D01*
X137291041Y-94706981D01*
X137435815Y-94575002D01*
X137435817Y-94575000D01*
X140549723Y-94575000D01*
X140566777Y-94769938D01*
X140568793Y-94792975D01*
X140568793Y-94792979D01*
X140625422Y-95004322D01*
X140625424Y-95004326D01*
X140625425Y-95004330D01*
X140636485Y-95028048D01*
X140717897Y-95202638D01*
X140717898Y-95202639D01*
X140843402Y-95381877D01*
X140998123Y-95536598D01*
X141177361Y-95662102D01*
X141375670Y-95754575D01*
X141587023Y-95811207D01*
X141769926Y-95827208D01*
X141804998Y-95830277D01*
X141805000Y-95830277D01*
X141805002Y-95830277D01*
X141833254Y-95827805D01*
X142022977Y-95811207D01*
X142234330Y-95754575D01*
X142432639Y-95662102D01*
X142611877Y-95536598D01*
X142766598Y-95381877D01*
X142892102Y-95202639D01*
X142984575Y-95004330D01*
X143041207Y-94792977D01*
X143060277Y-94575000D01*
X143059976Y-94571564D01*
X143054015Y-94503421D01*
X143041207Y-94357023D01*
X143019148Y-94274697D01*
X143008938Y-94236593D01*
X143010601Y-94166743D01*
X143049764Y-94108881D01*
X143113992Y-94081377D01*
X143128713Y-94080500D01*
X144168921Y-94080500D01*
X144235960Y-94100185D01*
X144268690Y-94130865D01*
X144277668Y-94143030D01*
X144302848Y-94177148D01*
X144302850Y-94177150D01*
X144412118Y-94257793D01*
X144443626Y-94268818D01*
X144540299Y-94302646D01*
X144570730Y-94305500D01*
X144570734Y-94305500D01*
X145079270Y-94305500D01*
X145109699Y-94302646D01*
X145109701Y-94302646D01*
X145173790Y-94280219D01*
X145237882Y-94257793D01*
X145347150Y-94177150D01*
X145427793Y-94067882D01*
X145451371Y-94000500D01*
X145472646Y-93939701D01*
X145472646Y-93939699D01*
X145475500Y-93909269D01*
X145475500Y-93250730D01*
X145472646Y-93220300D01*
X145472646Y-93220298D01*
X145430376Y-93099500D01*
X145427793Y-93092118D01*
X145347150Y-92982850D01*
X145237882Y-92902207D01*
X145237880Y-92902206D01*
X145109700Y-92857353D01*
X145079270Y-92854500D01*
X145079266Y-92854500D01*
X144570734Y-92854500D01*
X144570730Y-92854500D01*
X144540300Y-92857353D01*
X144540298Y-92857353D01*
X144412119Y-92902206D01*
X144412117Y-92902207D01*
X144302850Y-92982850D01*
X144302848Y-92982851D01*
X144268692Y-93029133D01*
X144213044Y-93071384D01*
X144168921Y-93079500D01*
X142734107Y-93079500D01*
X142659466Y-93099499D01*
X142659466Y-93099500D01*
X142606814Y-93113608D01*
X142606813Y-93113608D01*
X142606811Y-93113609D01*
X142506199Y-93171698D01*
X142492686Y-93179500D01*
X142492685Y-93179501D01*
X142440993Y-93231193D01*
X142318416Y-93353769D01*
X142257092Y-93387253D01*
X142198642Y-93385862D01*
X142022977Y-93338793D01*
X141805002Y-93319723D01*
X141804998Y-93319723D01*
X141659682Y-93332436D01*
X141587023Y-93338793D01*
X141587020Y-93338793D01*
X141375677Y-93395422D01*
X141375668Y-93395426D01*
X141177361Y-93487898D01*
X141177357Y-93487900D01*
X140998121Y-93613402D01*
X140843402Y-93768121D01*
X140717900Y-93947357D01*
X140717898Y-93947361D01*
X140625426Y-94145668D01*
X140625422Y-94145677D01*
X140568793Y-94357020D01*
X140568793Y-94357023D01*
X140566482Y-94383435D01*
X140550024Y-94571564D01*
X140549723Y-94575000D01*
X137435817Y-94575000D01*
X137441762Y-94569581D01*
X137441764Y-94569579D01*
X137564673Y-94406821D01*
X137655582Y-94224250D01*
X137711397Y-94028083D01*
X137730215Y-93825000D01*
X137726186Y-93781524D01*
X137711397Y-93621917D01*
X137692518Y-93555564D01*
X137655582Y-93425750D01*
X137643830Y-93402149D01*
X137589421Y-93292880D01*
X137564673Y-93243179D01*
X137473125Y-93121950D01*
X137441762Y-93080418D01*
X137291041Y-92943019D01*
X137291039Y-92943017D01*
X137117642Y-92835655D01*
X137117635Y-92835651D01*
X137022546Y-92798814D01*
X136927456Y-92761976D01*
X136726976Y-92724500D01*
X136523024Y-92724500D01*
X136322544Y-92761976D01*
X136322541Y-92761976D01*
X136322541Y-92761977D01*
X136132364Y-92835651D01*
X136132357Y-92835655D01*
X135958960Y-92943017D01*
X135958958Y-92943019D01*
X135938037Y-92962091D01*
X135875232Y-92992708D01*
X135805845Y-92984509D01*
X135751906Y-92940098D01*
X135730539Y-92873576D01*
X135730500Y-92870453D01*
X135730500Y-92505568D01*
X135730500Y-92505565D01*
X135729267Y-92500965D01*
X135717705Y-92457813D01*
X135704910Y-92410062D01*
X135655475Y-92324438D01*
X135585562Y-92254525D01*
X135144709Y-91813672D01*
X135111224Y-91752349D01*
X135115666Y-91690234D01*
X135114013Y-91689764D01*
X135153643Y-91550481D01*
X135171397Y-91488083D01*
X135190215Y-91285000D01*
X135190215Y-91284999D01*
X135519785Y-91284999D01*
X135519785Y-91285000D01*
X135538602Y-91488082D01*
X135594417Y-91684247D01*
X135594422Y-91684260D01*
X135685327Y-91866821D01*
X135808237Y-92029581D01*
X135958958Y-92166980D01*
X135958960Y-92166982D01*
X136021497Y-92205703D01*
X136132363Y-92274348D01*
X136322544Y-92348024D01*
X136523024Y-92385500D01*
X136523026Y-92385500D01*
X136726974Y-92385500D01*
X136726976Y-92385500D01*
X136927456Y-92348024D01*
X137117637Y-92274348D01*
X137291041Y-92166981D01*
X137441764Y-92029579D01*
X137564673Y-91866821D01*
X137655582Y-91684250D01*
X137711397Y-91488083D01*
X137730215Y-91285000D01*
X137729244Y-91274526D01*
X137711397Y-91081917D01*
X137701123Y-91045809D01*
X137655582Y-90885750D01*
X137652844Y-90880252D01*
X137611272Y-90796764D01*
X137564673Y-90703179D01*
X137490154Y-90604500D01*
X137441762Y-90540418D01*
X137291041Y-90403019D01*
X137291039Y-90403017D01*
X137117642Y-90295655D01*
X137117635Y-90295651D01*
X137022546Y-90258814D01*
X136927456Y-90221976D01*
X136726976Y-90184500D01*
X136523024Y-90184500D01*
X136322544Y-90221976D01*
X136322541Y-90221976D01*
X136322541Y-90221977D01*
X136132364Y-90295651D01*
X136132357Y-90295655D01*
X135958960Y-90403017D01*
X135958958Y-90403019D01*
X135808237Y-90540418D01*
X135685327Y-90703178D01*
X135594422Y-90885739D01*
X135594417Y-90885752D01*
X135538602Y-91081917D01*
X135519785Y-91284999D01*
X135190215Y-91284999D01*
X135189244Y-91274526D01*
X135171397Y-91081917D01*
X135161123Y-91045809D01*
X135115582Y-90885750D01*
X135112844Y-90880252D01*
X135071272Y-90796764D01*
X135024673Y-90703179D01*
X134950154Y-90604500D01*
X134901762Y-90540418D01*
X134751041Y-90403019D01*
X134751039Y-90403017D01*
X134577642Y-90295655D01*
X134577635Y-90295651D01*
X134482546Y-90258814D01*
X134387456Y-90221976D01*
X134186976Y-90184500D01*
X133983024Y-90184500D01*
X133782544Y-90221976D01*
X133782541Y-90221976D01*
X133782541Y-90221977D01*
X133592364Y-90295651D01*
X133592357Y-90295655D01*
X133418960Y-90403017D01*
X133418958Y-90403019D01*
X133268237Y-90540418D01*
X133145327Y-90703178D01*
X133054422Y-90885739D01*
X133054417Y-90885752D01*
X132998602Y-91081917D01*
X132979785Y-91284999D01*
X132979785Y-91285000D01*
X132998602Y-91488082D01*
X133054417Y-91684247D01*
X133054422Y-91684260D01*
X133145327Y-91866821D01*
X133268237Y-92029581D01*
X133418958Y-92166980D01*
X133418960Y-92166982D01*
X133481497Y-92205703D01*
X133592363Y-92274348D01*
X133782544Y-92348024D01*
X133983024Y-92385500D01*
X133983026Y-92385500D01*
X134186974Y-92385500D01*
X134186976Y-92385500D01*
X134387456Y-92348024D01*
X134477556Y-92313118D01*
X134547174Y-92307256D01*
X134608914Y-92339965D01*
X134610027Y-92341064D01*
X134943181Y-92674218D01*
X134976666Y-92735541D01*
X134979500Y-92761899D01*
X134979500Y-92870453D01*
X134959815Y-92937492D01*
X134907011Y-92983247D01*
X134837853Y-92993191D01*
X134774297Y-92964166D01*
X134771963Y-92962091D01*
X134751041Y-92943019D01*
X134751039Y-92943017D01*
X134577642Y-92835655D01*
X134577635Y-92835651D01*
X134482546Y-92798814D01*
X134387456Y-92761976D01*
X134186976Y-92724500D01*
X133983024Y-92724500D01*
X133782544Y-92761976D01*
X133782541Y-92761976D01*
X133782541Y-92761977D01*
X133592364Y-92835651D01*
X133592357Y-92835655D01*
X133418960Y-92943017D01*
X133418958Y-92943019D01*
X133268237Y-93080418D01*
X133145327Y-93243178D01*
X133054422Y-93425739D01*
X133054417Y-93425752D01*
X132998602Y-93621917D01*
X132979785Y-93824999D01*
X132979785Y-93825000D01*
X132998602Y-94028082D01*
X133033434Y-94150499D01*
X133054417Y-94224247D01*
X133055987Y-94229763D01*
X133054012Y-94230324D01*
X133059088Y-94290862D01*
X133026357Y-94352591D01*
X133025289Y-94353671D01*
X131115782Y-96263181D01*
X131054459Y-96296666D01*
X131028101Y-96299500D01*
X123084500Y-96299500D01*
X123017461Y-96279815D01*
X122971706Y-96227011D01*
X122960500Y-96175500D01*
X122960500Y-95891851D01*
X122961404Y-95876904D01*
X122965278Y-95845000D01*
X122961404Y-95813094D01*
X122960500Y-95798148D01*
X122960500Y-95515730D01*
X122957646Y-95485300D01*
X122957646Y-95485298D01*
X122921458Y-95381881D01*
X122912793Y-95357118D01*
X122832150Y-95247850D01*
X122722882Y-95167207D01*
X122722880Y-95167206D01*
X122594700Y-95122353D01*
X122564270Y-95119500D01*
X122564266Y-95119500D01*
X122055734Y-95119500D01*
X122055730Y-95119500D01*
X122025300Y-95122353D01*
X122025298Y-95122353D01*
X121897119Y-95167206D01*
X121897117Y-95167207D01*
X121787850Y-95247850D01*
X121707207Y-95357117D01*
X121707206Y-95357119D01*
X121662353Y-95485298D01*
X121662353Y-95485300D01*
X121659500Y-95515730D01*
X121659500Y-95798148D01*
X121658596Y-95813094D01*
X121654722Y-95844999D01*
X121658596Y-95876904D01*
X121659500Y-95891851D01*
X121659500Y-96175500D01*
X121639815Y-96242539D01*
X121587011Y-96288294D01*
X121535500Y-96299500D01*
X121434500Y-96299500D01*
X121367461Y-96279815D01*
X121321706Y-96227011D01*
X121310500Y-96175500D01*
X121310500Y-95515730D01*
X121307646Y-95485300D01*
X121307646Y-95485298D01*
X121271458Y-95381881D01*
X121262793Y-95357118D01*
X121182150Y-95247850D01*
X121072882Y-95167207D01*
X121072880Y-95167206D01*
X120944700Y-95122353D01*
X120914270Y-95119500D01*
X120914266Y-95119500D01*
X120405734Y-95119500D01*
X120405730Y-95119500D01*
X120375300Y-95122353D01*
X120375298Y-95122353D01*
X120247119Y-95167206D01*
X120247117Y-95167207D01*
X120137850Y-95247850D01*
X120106324Y-95290567D01*
X120057207Y-95357118D01*
X120046940Y-95386456D01*
X120006221Y-95443230D01*
X119941269Y-95468978D01*
X119929901Y-95469500D01*
X118920619Y-95469500D01*
X118853580Y-95449815D01*
X118807825Y-95397011D01*
X118797881Y-95327853D01*
X118802688Y-95307183D01*
X118808760Y-95288492D01*
X118815262Y-95268482D01*
X118835598Y-95075000D01*
X118815262Y-94881518D01*
X118755144Y-94696492D01*
X118755143Y-94696491D01*
X118755143Y-94696489D01*
X118755142Y-94696488D01*
X118685002Y-94575002D01*
X118657870Y-94528008D01*
X118602613Y-94466639D01*
X118527697Y-94383435D01*
X118527694Y-94383433D01*
X118527693Y-94383432D01*
X118527692Y-94383431D01*
X118370299Y-94269078D01*
X118362498Y-94265605D01*
X118297336Y-94236593D01*
X118192571Y-94189949D01*
X118192568Y-94189948D01*
X118188821Y-94188280D01*
X118135584Y-94143030D01*
X118115262Y-94076181D01*
X118134307Y-94008957D01*
X118186672Y-93962701D01*
X118188821Y-93961720D01*
X118192568Y-93960051D01*
X118192571Y-93960051D01*
X118370299Y-93880922D01*
X118527692Y-93766569D01*
X118657870Y-93621992D01*
X118755144Y-93453508D01*
X118815262Y-93268482D01*
X118835598Y-93075000D01*
X118815262Y-92881518D01*
X118811782Y-92870809D01*
X123349500Y-92870809D01*
X123349500Y-93464190D01*
X123355748Y-93522299D01*
X123404789Y-93653780D01*
X123421287Y-93675818D01*
X123488884Y-93766116D01*
X123601222Y-93850212D01*
X123683559Y-93880922D01*
X123732700Y-93899251D01*
X123790809Y-93905499D01*
X123790826Y-93905500D01*
X124359174Y-93905500D01*
X124359190Y-93905499D01*
X124417299Y-93899251D01*
X124548778Y-93850212D01*
X124661116Y-93766116D01*
X124689859Y-93727720D01*
X124697369Y-93717689D01*
X124753302Y-93675818D01*
X124796635Y-93668000D01*
X125413365Y-93668000D01*
X125480404Y-93687685D01*
X125512631Y-93717689D01*
X125530966Y-93742181D01*
X125548884Y-93766116D01*
X125661222Y-93850212D01*
X125743559Y-93880922D01*
X125792700Y-93899251D01*
X125850809Y-93905499D01*
X125850826Y-93905500D01*
X126419174Y-93905500D01*
X126419190Y-93905499D01*
X126477299Y-93899251D01*
X126608778Y-93850212D01*
X126642458Y-93824999D01*
X127899785Y-93824999D01*
X127899785Y-93825000D01*
X127918602Y-94028082D01*
X127974417Y-94224247D01*
X127974422Y-94224260D01*
X128065327Y-94406821D01*
X128188237Y-94569581D01*
X128338958Y-94706980D01*
X128338960Y-94706982D01*
X128378589Y-94731519D01*
X128512363Y-94814348D01*
X128702544Y-94888024D01*
X128903024Y-94925500D01*
X128903026Y-94925500D01*
X129106974Y-94925500D01*
X129106976Y-94925500D01*
X129307456Y-94888024D01*
X129497637Y-94814348D01*
X129671041Y-94706981D01*
X129815815Y-94575002D01*
X129821762Y-94569581D01*
X129821764Y-94569579D01*
X129944673Y-94406821D01*
X130035582Y-94224250D01*
X130091397Y-94028083D01*
X130110215Y-93825000D01*
X130110215Y-93824999D01*
X130439785Y-93824999D01*
X130439785Y-93825000D01*
X130458602Y-94028082D01*
X130514417Y-94224247D01*
X130514422Y-94224260D01*
X130605327Y-94406821D01*
X130728237Y-94569581D01*
X130878958Y-94706980D01*
X130878960Y-94706982D01*
X130918589Y-94731519D01*
X131052363Y-94814348D01*
X131242544Y-94888024D01*
X131443024Y-94925500D01*
X131443026Y-94925500D01*
X131646974Y-94925500D01*
X131646976Y-94925500D01*
X131847456Y-94888024D01*
X132037637Y-94814348D01*
X132211041Y-94706981D01*
X132355815Y-94575002D01*
X132361762Y-94569581D01*
X132361764Y-94569579D01*
X132484673Y-94406821D01*
X132575582Y-94224250D01*
X132631397Y-94028083D01*
X132650215Y-93825000D01*
X132646186Y-93781524D01*
X132631397Y-93621917D01*
X132612518Y-93555564D01*
X132575582Y-93425750D01*
X132563830Y-93402149D01*
X132509421Y-93292880D01*
X132484673Y-93243179D01*
X132393125Y-93121950D01*
X132361762Y-93080418D01*
X132211041Y-92943019D01*
X132211039Y-92943017D01*
X132037642Y-92835655D01*
X132037635Y-92835651D01*
X131942546Y-92798814D01*
X131847456Y-92761976D01*
X131646976Y-92724500D01*
X131443024Y-92724500D01*
X131242544Y-92761976D01*
X131242541Y-92761976D01*
X131242541Y-92761977D01*
X131052364Y-92835651D01*
X131052357Y-92835655D01*
X130878960Y-92943017D01*
X130878958Y-92943019D01*
X130728237Y-93080418D01*
X130605327Y-93243178D01*
X130514422Y-93425739D01*
X130514417Y-93425752D01*
X130458602Y-93621917D01*
X130439785Y-93824999D01*
X130110215Y-93824999D01*
X130106186Y-93781524D01*
X130091397Y-93621917D01*
X130072518Y-93555564D01*
X130035582Y-93425750D01*
X130023830Y-93402149D01*
X129969421Y-93292880D01*
X129944673Y-93243179D01*
X129853125Y-93121950D01*
X129821762Y-93080418D01*
X129671041Y-92943019D01*
X129671039Y-92943017D01*
X129497642Y-92835655D01*
X129497635Y-92835651D01*
X129402546Y-92798814D01*
X129307456Y-92761976D01*
X129106976Y-92724500D01*
X128903024Y-92724500D01*
X128702544Y-92761976D01*
X128702541Y-92761976D01*
X128702541Y-92761977D01*
X128512364Y-92835651D01*
X128512357Y-92835655D01*
X128338960Y-92943017D01*
X128338958Y-92943019D01*
X128188237Y-93080418D01*
X128065327Y-93243178D01*
X127974422Y-93425739D01*
X127974417Y-93425752D01*
X127918602Y-93621917D01*
X127899785Y-93824999D01*
X126642458Y-93824999D01*
X126721116Y-93766116D01*
X126805212Y-93653778D01*
X126854251Y-93522299D01*
X126854794Y-93517246D01*
X126860499Y-93464190D01*
X126860500Y-93464173D01*
X126860500Y-92795826D01*
X126860499Y-92795809D01*
X126854251Y-92737700D01*
X126827881Y-92667000D01*
X126805212Y-92606222D01*
X126721116Y-92493884D01*
X126653612Y-92443351D01*
X126608780Y-92409789D01*
X126608778Y-92409788D01*
X126505268Y-92371181D01*
X126449337Y-92329310D01*
X126424920Y-92263846D01*
X126439772Y-92195573D01*
X126489177Y-92146168D01*
X126505268Y-92138819D01*
X126608778Y-92100212D01*
X126721116Y-92016116D01*
X126805212Y-91903778D01*
X126854251Y-91772299D01*
X126856519Y-91751205D01*
X126860499Y-91714190D01*
X126860500Y-91714173D01*
X126860500Y-91284999D01*
X130439785Y-91284999D01*
X130439785Y-91285000D01*
X130458602Y-91488082D01*
X130514417Y-91684247D01*
X130514422Y-91684260D01*
X130605327Y-91866821D01*
X130728237Y-92029581D01*
X130878958Y-92166980D01*
X130878960Y-92166982D01*
X130941497Y-92205703D01*
X131052363Y-92274348D01*
X131242544Y-92348024D01*
X131443024Y-92385500D01*
X131443026Y-92385500D01*
X131646974Y-92385500D01*
X131646976Y-92385500D01*
X131847456Y-92348024D01*
X132037637Y-92274348D01*
X132211041Y-92166981D01*
X132361764Y-92029579D01*
X132484673Y-91866821D01*
X132575582Y-91684250D01*
X132631397Y-91488083D01*
X132650215Y-91285000D01*
X132649244Y-91274526D01*
X132631397Y-91081917D01*
X132621123Y-91045809D01*
X132575582Y-90885750D01*
X132572844Y-90880252D01*
X132531272Y-90796764D01*
X132484673Y-90703179D01*
X132410154Y-90604500D01*
X132361762Y-90540418D01*
X132211041Y-90403019D01*
X132211039Y-90403017D01*
X132037642Y-90295655D01*
X132037635Y-90295651D01*
X131942546Y-90258814D01*
X131847456Y-90221976D01*
X131646976Y-90184500D01*
X131443024Y-90184500D01*
X131242544Y-90221976D01*
X131242541Y-90221976D01*
X131242541Y-90221977D01*
X131052364Y-90295651D01*
X131052357Y-90295655D01*
X130878960Y-90403017D01*
X130878958Y-90403019D01*
X130728237Y-90540418D01*
X130605327Y-90703178D01*
X130514422Y-90885739D01*
X130514417Y-90885752D01*
X130458602Y-91081917D01*
X130439785Y-91284999D01*
X126860500Y-91284999D01*
X126860500Y-91045826D01*
X126860499Y-91045809D01*
X126854251Y-90987700D01*
X126838254Y-90944811D01*
X126805212Y-90856222D01*
X126721116Y-90743884D01*
X126636495Y-90680537D01*
X126608780Y-90659789D01*
X126608778Y-90659788D01*
X126567033Y-90644218D01*
X126477299Y-90610748D01*
X126419190Y-90604500D01*
X126419174Y-90604500D01*
X125850826Y-90604500D01*
X125850809Y-90604500D01*
X125792700Y-90610748D01*
X125661219Y-90659789D01*
X125548884Y-90743884D01*
X125464789Y-90856219D01*
X125415748Y-90987700D01*
X125409500Y-91045809D01*
X125409500Y-91714190D01*
X125415748Y-91772299D01*
X125464789Y-91903780D01*
X125498351Y-91948612D01*
X125548884Y-92016116D01*
X125661222Y-92100212D01*
X125661221Y-92100212D01*
X125764729Y-92138819D01*
X125820663Y-92180690D01*
X125845079Y-92246155D01*
X125830227Y-92314428D01*
X125780821Y-92363833D01*
X125764729Y-92371181D01*
X125661222Y-92409787D01*
X125548884Y-92493884D01*
X125459473Y-92613322D01*
X125457466Y-92611819D01*
X125417458Y-92651830D01*
X125358028Y-92667000D01*
X124796635Y-92667000D01*
X124729596Y-92647315D01*
X124697369Y-92617311D01*
X124661117Y-92568886D01*
X124661118Y-92568886D01*
X124661116Y-92568884D01*
X124560929Y-92493884D01*
X124548780Y-92484789D01*
X124548778Y-92484788D01*
X124522144Y-92474854D01*
X124417299Y-92435748D01*
X124359190Y-92429500D01*
X124359174Y-92429500D01*
X123790826Y-92429500D01*
X123790809Y-92429500D01*
X123732700Y-92435748D01*
X123601219Y-92484789D01*
X123488884Y-92568884D01*
X123404789Y-92681219D01*
X123355748Y-92812700D01*
X123349500Y-92870809D01*
X118811782Y-92870809D01*
X118755144Y-92696492D01*
X118755143Y-92696491D01*
X118755143Y-92696489D01*
X118755142Y-92696488D01*
X118703025Y-92606219D01*
X118657870Y-92528008D01*
X118594666Y-92457813D01*
X118527697Y-92383435D01*
X118527694Y-92383433D01*
X118527693Y-92383432D01*
X118527692Y-92383431D01*
X118430916Y-92313119D01*
X118370297Y-92269076D01*
X118300002Y-92237780D01*
X118246765Y-92192530D01*
X118226443Y-92125681D01*
X118245488Y-92058457D01*
X118297853Y-92012201D01*
X118350437Y-92000500D01*
X118604676Y-92000500D01*
X118604677Y-92000499D01*
X118677740Y-91985966D01*
X118760601Y-91930601D01*
X118815966Y-91847740D01*
X118830500Y-91774674D01*
X118830500Y-90375326D01*
X118830500Y-90375323D01*
X118830499Y-90375321D01*
X120579500Y-90375321D01*
X120579500Y-91774678D01*
X120594032Y-91847735D01*
X120594033Y-91847739D01*
X120594034Y-91847740D01*
X120649399Y-91930601D01*
X120724163Y-91980556D01*
X120732260Y-91985966D01*
X120732264Y-91985967D01*
X120805321Y-92000499D01*
X120805324Y-92000500D01*
X120805326Y-92000500D01*
X122204676Y-92000500D01*
X122204677Y-92000499D01*
X122277740Y-91985966D01*
X122360601Y-91930601D01*
X122415966Y-91847740D01*
X122430500Y-91774674D01*
X122430500Y-90375326D01*
X122430500Y-90375323D01*
X122430499Y-90375321D01*
X122415967Y-90302264D01*
X122415966Y-90302260D01*
X122411550Y-90295651D01*
X122360601Y-90219399D01*
X122277740Y-90164034D01*
X122277739Y-90164033D01*
X122277735Y-90164032D01*
X122204677Y-90149500D01*
X122204674Y-90149500D01*
X120805326Y-90149500D01*
X120805323Y-90149500D01*
X120732264Y-90164032D01*
X120732260Y-90164033D01*
X120649399Y-90219399D01*
X120594033Y-90302260D01*
X120594032Y-90302264D01*
X120579500Y-90375321D01*
X118830499Y-90375321D01*
X118815967Y-90302264D01*
X118815966Y-90302260D01*
X118811550Y-90295651D01*
X118760601Y-90219399D01*
X118677740Y-90164034D01*
X118677739Y-90164033D01*
X118677735Y-90164032D01*
X118604677Y-90149500D01*
X118604674Y-90149500D01*
X117561899Y-90149500D01*
X117494860Y-90129815D01*
X117474218Y-90113181D01*
X116816819Y-89455782D01*
X116783334Y-89394459D01*
X116780500Y-89368101D01*
X116780500Y-84574999D01*
X118149722Y-84574999D01*
X118149722Y-84575000D01*
X118168762Y-84731818D01*
X118185998Y-84777264D01*
X118224780Y-84879523D01*
X118314517Y-85009530D01*
X118432760Y-85114283D01*
X118432762Y-85114284D01*
X118572634Y-85187696D01*
X118726014Y-85225500D01*
X118726015Y-85225500D01*
X118883985Y-85225500D01*
X119037365Y-85187696D01*
X119061555Y-85175000D01*
X119177240Y-85114283D01*
X119295483Y-85009530D01*
X119302950Y-84998711D01*
X119357233Y-84954722D01*
X119426681Y-84947062D01*
X119489246Y-84978165D01*
X119507050Y-84998712D01*
X119514518Y-85009531D01*
X119596527Y-85082185D01*
X119633654Y-85141374D01*
X119632886Y-85211240D01*
X119596527Y-85267815D01*
X119514518Y-85340468D01*
X119424781Y-85470475D01*
X119424780Y-85470476D01*
X119368762Y-85618181D01*
X119349722Y-85774999D01*
X119349722Y-85775000D01*
X119368762Y-85931818D01*
X119413255Y-86049134D01*
X119424780Y-86079523D01*
X119493791Y-86179502D01*
X119514518Y-86209531D01*
X119596527Y-86282185D01*
X119633654Y-86341374D01*
X119632886Y-86411240D01*
X119596527Y-86467815D01*
X119514518Y-86540468D01*
X119424781Y-86670475D01*
X119424780Y-86670476D01*
X119368762Y-86818181D01*
X119349722Y-86974999D01*
X119349722Y-86975000D01*
X119368762Y-87131818D01*
X119416539Y-87257793D01*
X119424780Y-87279523D01*
X119487560Y-87370475D01*
X119514518Y-87409531D01*
X119596527Y-87482185D01*
X119633654Y-87541374D01*
X119632886Y-87611240D01*
X119596527Y-87667815D01*
X119514517Y-87740468D01*
X119507048Y-87751290D01*
X119452764Y-87795279D01*
X119383315Y-87802936D01*
X119320751Y-87771831D01*
X119302952Y-87751290D01*
X119295484Y-87740471D01*
X119285377Y-87731517D01*
X119177240Y-87635717D01*
X119177238Y-87635716D01*
X119177237Y-87635715D01*
X119037365Y-87562303D01*
X118883986Y-87524500D01*
X118883985Y-87524500D01*
X118726015Y-87524500D01*
X118726014Y-87524500D01*
X118572634Y-87562303D01*
X118432762Y-87635715D01*
X118314516Y-87740471D01*
X118224781Y-87870475D01*
X118224780Y-87870476D01*
X118168762Y-88018181D01*
X118149722Y-88174999D01*
X118149722Y-88175000D01*
X118168762Y-88331818D01*
X118224780Y-88479523D01*
X118314517Y-88609530D01*
X118432760Y-88714283D01*
X118432762Y-88714284D01*
X118572634Y-88787696D01*
X118726014Y-88825500D01*
X118873101Y-88825500D01*
X118940140Y-88845185D01*
X118960782Y-88861819D01*
X119349438Y-89250475D01*
X119404839Y-89282461D01*
X119435059Y-89299909D01*
X119435063Y-89299911D01*
X119530564Y-89325500D01*
X119530565Y-89325500D01*
X119530566Y-89325500D01*
X120375451Y-89325500D01*
X120375452Y-89325500D01*
X120423202Y-89312705D01*
X120470954Y-89299910D01*
X120556578Y-89250475D01*
X120626491Y-89180562D01*
X121720234Y-88086819D01*
X121781557Y-88053334D01*
X121807915Y-88050500D01*
X124802085Y-88050500D01*
X124869124Y-88070185D01*
X124889766Y-88086819D01*
X125983509Y-89180562D01*
X126053422Y-89250475D01*
X126133147Y-89296504D01*
X126139046Y-89299910D01*
X126186795Y-89312705D01*
X126186796Y-89312705D01*
X126196887Y-89315408D01*
X126234548Y-89325500D01*
X126234549Y-89325500D01*
X126234550Y-89325500D01*
X127079435Y-89325500D01*
X127079436Y-89325500D01*
X127127186Y-89312705D01*
X127174938Y-89299910D01*
X127260562Y-89250475D01*
X127330475Y-89180562D01*
X127649217Y-88861818D01*
X127710540Y-88828334D01*
X127736898Y-88825500D01*
X127883985Y-88825500D01*
X128037365Y-88787696D01*
X128100467Y-88754577D01*
X128177240Y-88714283D01*
X128295483Y-88609530D01*
X128385220Y-88479523D01*
X128441237Y-88331818D01*
X128460278Y-88175000D01*
X128457282Y-88150321D01*
X128441237Y-88018181D01*
X128411219Y-87939032D01*
X128385220Y-87870477D01*
X128295483Y-87740470D01*
X128177240Y-87635717D01*
X128177238Y-87635716D01*
X128177237Y-87635715D01*
X128061551Y-87574997D01*
X140549723Y-87574997D01*
X140549723Y-87575002D01*
X140555035Y-87635715D01*
X140567022Y-87772739D01*
X140568793Y-87792975D01*
X140568793Y-87792979D01*
X140625422Y-88004322D01*
X140625424Y-88004326D01*
X140625425Y-88004330D01*
X140648276Y-88053334D01*
X140717897Y-88202638D01*
X140717898Y-88202639D01*
X140843402Y-88381877D01*
X140998123Y-88536598D01*
X141177361Y-88662102D01*
X141375670Y-88754575D01*
X141587023Y-88811207D01*
X141769926Y-88827208D01*
X141804998Y-88830277D01*
X141805000Y-88830277D01*
X141805002Y-88830277D01*
X141833254Y-88827805D01*
X142022977Y-88811207D01*
X142234330Y-88754575D01*
X142432639Y-88662102D01*
X142611877Y-88536598D01*
X142766598Y-88381877D01*
X142892102Y-88202639D01*
X142984575Y-88004330D01*
X143041207Y-87792977D01*
X143060277Y-87575000D01*
X143041207Y-87357023D01*
X143019148Y-87274697D01*
X143008938Y-87236593D01*
X143010601Y-87166743D01*
X143049764Y-87108881D01*
X143113992Y-87081377D01*
X143128713Y-87080500D01*
X144168921Y-87080500D01*
X144235960Y-87100185D01*
X144268690Y-87130865D01*
X144278303Y-87143890D01*
X144302848Y-87177148D01*
X144302850Y-87177150D01*
X144412118Y-87257793D01*
X144443626Y-87268818D01*
X144540299Y-87302646D01*
X144570730Y-87305500D01*
X144570734Y-87305500D01*
X145079270Y-87305500D01*
X145109699Y-87302646D01*
X145109701Y-87302646D01*
X145175781Y-87279523D01*
X145237882Y-87257793D01*
X145347150Y-87177150D01*
X145427793Y-87067882D01*
X145450219Y-87003790D01*
X145472646Y-86939701D01*
X145472646Y-86939699D01*
X145475500Y-86909269D01*
X145475500Y-86250730D01*
X145472646Y-86220300D01*
X145472646Y-86220298D01*
X145430376Y-86099500D01*
X145427793Y-86092118D01*
X145347150Y-85982850D01*
X145237882Y-85902207D01*
X145237880Y-85902206D01*
X145109700Y-85857353D01*
X145079270Y-85854500D01*
X145079266Y-85854500D01*
X144570734Y-85854500D01*
X144570730Y-85854500D01*
X144540300Y-85857353D01*
X144540298Y-85857353D01*
X144412119Y-85902206D01*
X144412117Y-85902207D01*
X144302850Y-85982850D01*
X144302848Y-85982851D01*
X144268692Y-86029133D01*
X144213044Y-86071384D01*
X144168921Y-86079500D01*
X142734107Y-86079500D01*
X142678357Y-86094437D01*
X142678358Y-86094438D01*
X142606814Y-86113608D01*
X142606812Y-86113608D01*
X142606812Y-86113609D01*
X142592358Y-86121954D01*
X142492686Y-86179500D01*
X142492685Y-86179501D01*
X142357902Y-86314283D01*
X142318416Y-86353769D01*
X142257092Y-86387253D01*
X142198642Y-86385862D01*
X142022977Y-86338793D01*
X141805002Y-86319723D01*
X141804998Y-86319723D01*
X141659682Y-86332436D01*
X141587023Y-86338793D01*
X141587020Y-86338793D01*
X141375677Y-86395422D01*
X141375668Y-86395426D01*
X141177361Y-86487898D01*
X141177357Y-86487900D01*
X140998121Y-86613402D01*
X140843402Y-86768121D01*
X140717900Y-86947357D01*
X140717898Y-86947361D01*
X140625426Y-87145668D01*
X140625422Y-87145677D01*
X140568793Y-87357020D01*
X140568793Y-87357023D01*
X140567616Y-87370475D01*
X140549723Y-87574997D01*
X128061551Y-87574997D01*
X128037365Y-87562303D01*
X127883986Y-87524500D01*
X127883985Y-87524500D01*
X127726015Y-87524500D01*
X127726014Y-87524500D01*
X127572634Y-87562303D01*
X127432762Y-87635715D01*
X127314515Y-87740471D01*
X127307048Y-87751290D01*
X127252764Y-87795279D01*
X127183315Y-87802936D01*
X127120751Y-87771831D01*
X127102952Y-87751290D01*
X127095484Y-87740471D01*
X127085377Y-87731517D01*
X127013471Y-87667814D01*
X126976346Y-87608627D01*
X126977113Y-87538761D01*
X127013471Y-87482185D01*
X127095483Y-87409530D01*
X127185220Y-87279523D01*
X127241237Y-87131818D01*
X127260278Y-86975000D01*
X127260004Y-86972739D01*
X127241237Y-86818181D01*
X127219992Y-86762164D01*
X127185220Y-86670477D01*
X127095483Y-86540470D01*
X127013471Y-86467814D01*
X126976346Y-86408627D01*
X126977113Y-86338761D01*
X127013471Y-86282185D01*
X127095483Y-86209530D01*
X127185220Y-86079523D01*
X127241237Y-85931818D01*
X127260278Y-85775000D01*
X127241237Y-85618182D01*
X127185220Y-85470477D01*
X127095483Y-85340470D01*
X127013471Y-85267814D01*
X126976346Y-85208627D01*
X126977113Y-85138761D01*
X127013471Y-85082185D01*
X127095483Y-85009530D01*
X127102950Y-84998711D01*
X127157233Y-84954722D01*
X127226681Y-84947062D01*
X127289246Y-84978165D01*
X127307049Y-84998711D01*
X127314517Y-85009530D01*
X127432760Y-85114283D01*
X127432762Y-85114284D01*
X127572634Y-85187696D01*
X127726014Y-85225500D01*
X127726015Y-85225500D01*
X127883985Y-85225500D01*
X128037365Y-85187696D01*
X128061555Y-85175000D01*
X128177240Y-85114283D01*
X128295483Y-85009530D01*
X128385220Y-84879523D01*
X128441237Y-84731818D01*
X128460278Y-84575000D01*
X128460004Y-84572739D01*
X128441237Y-84418181D01*
X128419992Y-84362164D01*
X128385220Y-84270477D01*
X128295483Y-84140470D01*
X128177240Y-84035717D01*
X128177238Y-84035716D01*
X128177237Y-84035715D01*
X128037365Y-83962303D01*
X127883986Y-83924500D01*
X127883985Y-83924500D01*
X127736899Y-83924500D01*
X127669860Y-83904815D01*
X127649218Y-83888181D01*
X127260563Y-83499526D01*
X127260562Y-83499525D01*
X127174938Y-83450090D01*
X127127186Y-83437295D01*
X127127184Y-83437294D01*
X127127182Y-83437293D01*
X127079436Y-83424500D01*
X127079435Y-83424500D01*
X126333420Y-83424500D01*
X126234548Y-83424500D01*
X126186796Y-83437295D01*
X126186795Y-83437294D01*
X126139047Y-83450089D01*
X126139046Y-83450089D01*
X126053419Y-83499527D01*
X124839766Y-84713181D01*
X124778443Y-84746666D01*
X124752085Y-84749500D01*
X121857915Y-84749500D01*
X121790876Y-84729815D01*
X121770234Y-84713181D01*
X120556579Y-83499526D01*
X120556578Y-83499525D01*
X120470954Y-83450090D01*
X120423202Y-83437295D01*
X120423200Y-83437294D01*
X120423198Y-83437293D01*
X120375452Y-83424500D01*
X120375451Y-83424500D01*
X119629436Y-83424500D01*
X119530564Y-83424500D01*
X119435061Y-83450089D01*
X119349438Y-83499525D01*
X119349435Y-83499527D01*
X118960781Y-83888181D01*
X118899458Y-83921666D01*
X118873100Y-83924500D01*
X118726014Y-83924500D01*
X118572634Y-83962303D01*
X118432762Y-84035715D01*
X118314516Y-84140471D01*
X118224781Y-84270475D01*
X118224780Y-84270476D01*
X118168762Y-84418181D01*
X118149722Y-84574999D01*
X116780500Y-84574999D01*
X116780500Y-81581899D01*
X116782526Y-81574999D01*
X129144785Y-81574999D01*
X129144785Y-81575000D01*
X129163602Y-81778082D01*
X129219417Y-81974247D01*
X129219422Y-81974260D01*
X129310327Y-82156821D01*
X129433237Y-82319581D01*
X129583958Y-82456980D01*
X129583960Y-82456982D01*
X129683141Y-82518392D01*
X129757363Y-82564348D01*
X129947544Y-82638024D01*
X130148024Y-82675500D01*
X130148026Y-82675500D01*
X130351974Y-82675500D01*
X130351976Y-82675500D01*
X130552456Y-82638024D01*
X130742637Y-82564348D01*
X130916041Y-82456981D01*
X131066764Y-82319579D01*
X131189673Y-82156821D01*
X131280582Y-81974250D01*
X131336397Y-81778083D01*
X131355215Y-81575000D01*
X131336397Y-81371917D01*
X131280582Y-81175750D01*
X131189673Y-80993179D01*
X131102758Y-80878085D01*
X131066762Y-80830418D01*
X130924051Y-80700321D01*
X134229500Y-80700321D01*
X134229500Y-82449678D01*
X134244032Y-82522735D01*
X134244033Y-82522739D01*
X134244034Y-82522740D01*
X134299399Y-82605601D01*
X134382260Y-82660966D01*
X134382264Y-82660967D01*
X134455321Y-82675499D01*
X134455324Y-82675500D01*
X134455326Y-82675500D01*
X136204676Y-82675500D01*
X136204677Y-82675499D01*
X136277740Y-82660966D01*
X136360601Y-82605601D01*
X136415966Y-82522740D01*
X136430500Y-82449674D01*
X136430500Y-80700326D01*
X136430500Y-80700323D01*
X136430499Y-80700321D01*
X136415967Y-80627264D01*
X136415966Y-80627260D01*
X136401834Y-80606110D01*
X136360601Y-80544399D01*
X136293664Y-80499674D01*
X136277739Y-80489033D01*
X136277735Y-80489032D01*
X136204677Y-80474500D01*
X136204674Y-80474500D01*
X134455326Y-80474500D01*
X134455323Y-80474500D01*
X134382264Y-80489032D01*
X134382260Y-80489033D01*
X134299399Y-80544399D01*
X134244033Y-80627260D01*
X134244032Y-80627264D01*
X134229500Y-80700321D01*
X130924051Y-80700321D01*
X130916041Y-80693019D01*
X130916039Y-80693017D01*
X130742642Y-80585655D01*
X130742635Y-80585651D01*
X130613734Y-80535715D01*
X130552456Y-80511976D01*
X130351976Y-80474500D01*
X130148024Y-80474500D01*
X129947544Y-80511976D01*
X129947541Y-80511976D01*
X129947541Y-80511977D01*
X129757364Y-80585651D01*
X129757357Y-80585655D01*
X129583960Y-80693017D01*
X129583958Y-80693019D01*
X129433237Y-80830418D01*
X129310327Y-80993178D01*
X129219422Y-81175739D01*
X129219417Y-81175752D01*
X129163602Y-81371917D01*
X129144785Y-81574999D01*
X116782526Y-81574999D01*
X116800185Y-81514860D01*
X116816819Y-81494218D01*
X117836537Y-80474500D01*
X118905475Y-79405563D01*
X118907390Y-79402246D01*
X118949063Y-79330067D01*
X118949064Y-79330064D01*
X118954908Y-79319941D01*
X118954907Y-79319941D01*
X118954910Y-79319938D01*
X118971562Y-79257793D01*
X118980500Y-79224436D01*
X118980500Y-79125564D01*
X118980500Y-77925565D01*
X118972079Y-77894139D01*
X118961458Y-77854500D01*
X118954910Y-77830062D01*
X118915790Y-77762304D01*
X118905475Y-77744437D01*
X118905474Y-77744436D01*
X118905473Y-77744434D01*
X118489517Y-77328480D01*
X118456032Y-77267157D01*
X118454102Y-77225857D01*
X118460278Y-77175000D01*
X118441237Y-77018182D01*
X118385220Y-76870477D01*
X118295483Y-76740470D01*
X118213471Y-76667814D01*
X118176346Y-76608627D01*
X118177113Y-76538761D01*
X118195919Y-76509498D01*
X123149500Y-76509498D01*
X123149500Y-77050481D01*
X123149501Y-77050490D01*
X123155587Y-77107114D01*
X123190112Y-77199676D01*
X123203372Y-77235226D01*
X123285313Y-77344687D01*
X123394774Y-77426628D01*
X123522886Y-77474412D01*
X123579515Y-77480500D01*
X124170484Y-77480499D01*
X124227114Y-77474412D01*
X124355226Y-77426628D01*
X124464687Y-77344687D01*
X124546628Y-77235226D01*
X124594412Y-77107114D01*
X124597537Y-77078050D01*
X124600499Y-77050501D01*
X124600500Y-77050484D01*
X124600500Y-76999500D01*
X124620185Y-76932461D01*
X124672989Y-76886706D01*
X124724500Y-76875500D01*
X125025500Y-76875500D01*
X125092539Y-76895185D01*
X125138294Y-76947989D01*
X125149500Y-76999500D01*
X125149500Y-78151002D01*
X125155338Y-78205312D01*
X125166543Y-78256818D01*
X125166546Y-78256827D01*
X125173779Y-78283192D01*
X125173783Y-78283203D01*
X125223105Y-78369818D01*
X125223110Y-78369825D01*
X125223112Y-78369828D01*
X125233553Y-78381877D01*
X125268863Y-78422628D01*
X125268866Y-78422631D01*
X125268867Y-78422632D01*
X125301641Y-78454257D01*
X125389976Y-78500465D01*
X125389977Y-78500465D01*
X125389977Y-78500466D01*
X125434218Y-78513456D01*
X125457015Y-78520150D01*
X125457019Y-78520150D01*
X125457021Y-78520151D01*
X125468652Y-78521823D01*
X125529000Y-78530500D01*
X125529001Y-78530500D01*
X128081000Y-78530500D01*
X128135313Y-78524661D01*
X128186824Y-78513455D01*
X128213198Y-78506219D01*
X128255404Y-78482185D01*
X128299818Y-78456894D01*
X128299819Y-78456892D01*
X128299828Y-78456888D01*
X128352632Y-78411133D01*
X128384257Y-78378359D01*
X128430465Y-78290024D01*
X128432470Y-78283198D01*
X128448863Y-78227367D01*
X128450150Y-78222985D01*
X128460500Y-78151000D01*
X128460500Y-77575000D01*
X135549723Y-77575000D01*
X135564546Y-77744437D01*
X135568793Y-77792975D01*
X135568793Y-77792979D01*
X135625422Y-78004322D01*
X135625424Y-78004326D01*
X135625425Y-78004330D01*
X135653257Y-78064015D01*
X135717897Y-78202638D01*
X135732144Y-78222985D01*
X135843402Y-78381877D01*
X135998123Y-78536598D01*
X136177361Y-78662102D01*
X136375670Y-78754575D01*
X136587023Y-78811207D01*
X136769926Y-78827208D01*
X136804998Y-78830277D01*
X136805000Y-78830277D01*
X136805002Y-78830277D01*
X136833254Y-78827805D01*
X137022977Y-78811207D01*
X137234330Y-78754575D01*
X137432639Y-78662102D01*
X137611877Y-78536598D01*
X137766598Y-78381877D01*
X137892102Y-78202639D01*
X137984575Y-78004330D01*
X138041207Y-77792977D01*
X138060277Y-77575000D01*
X138041207Y-77357023D01*
X138019580Y-77276309D01*
X138008938Y-77236593D01*
X138010601Y-77166743D01*
X138049764Y-77108881D01*
X138113992Y-77081377D01*
X138128713Y-77080500D01*
X139168921Y-77080500D01*
X139235960Y-77100185D01*
X139268690Y-77130865D01*
X139279615Y-77145668D01*
X139302848Y-77177148D01*
X139302850Y-77177150D01*
X139412118Y-77257793D01*
X139438879Y-77267157D01*
X139540299Y-77302646D01*
X139570730Y-77305500D01*
X139570734Y-77305500D01*
X140079270Y-77305500D01*
X140109699Y-77302646D01*
X140109701Y-77302646D01*
X140173790Y-77280219D01*
X140237882Y-77257793D01*
X140347150Y-77177150D01*
X140427793Y-77067882D01*
X140450219Y-77003790D01*
X140472646Y-76939701D01*
X140472646Y-76939699D01*
X140475500Y-76909269D01*
X140475500Y-76250730D01*
X140472646Y-76220300D01*
X140472646Y-76220298D01*
X140430376Y-76099500D01*
X140427793Y-76092118D01*
X140347150Y-75982850D01*
X140237882Y-75902207D01*
X140237880Y-75902206D01*
X140109700Y-75857353D01*
X140079270Y-75854500D01*
X140079266Y-75854500D01*
X139570734Y-75854500D01*
X139570730Y-75854500D01*
X139540300Y-75857353D01*
X139540298Y-75857353D01*
X139412119Y-75902206D01*
X139412117Y-75902207D01*
X139302850Y-75982850D01*
X139302848Y-75982851D01*
X139268692Y-76029133D01*
X139213044Y-76071384D01*
X139168921Y-76079500D01*
X137734107Y-76079500D01*
X137670635Y-76096506D01*
X137670636Y-76096507D01*
X137606812Y-76113608D01*
X137499754Y-76175419D01*
X137492686Y-76179500D01*
X137492685Y-76179501D01*
X137352462Y-76319723D01*
X137318416Y-76353769D01*
X137257092Y-76387253D01*
X137198642Y-76385862D01*
X137022977Y-76338793D01*
X136805002Y-76319723D01*
X136804998Y-76319723D01*
X136659682Y-76332436D01*
X136587023Y-76338793D01*
X136587020Y-76338793D01*
X136375677Y-76395422D01*
X136375668Y-76395426D01*
X136177361Y-76487898D01*
X136177357Y-76487900D01*
X135998121Y-76613402D01*
X135843402Y-76768121D01*
X135717900Y-76947357D01*
X135717898Y-76947361D01*
X135625426Y-77145668D01*
X135625422Y-77145677D01*
X135568793Y-77357020D01*
X135568793Y-77357024D01*
X135557991Y-77480499D01*
X135549723Y-77575000D01*
X128460500Y-77575000D01*
X128460500Y-75799000D01*
X128454661Y-75744687D01*
X128443455Y-75693176D01*
X128436219Y-75666802D01*
X128425766Y-75648445D01*
X128386894Y-75580181D01*
X128386890Y-75580176D01*
X128386888Y-75580172D01*
X128351097Y-75538867D01*
X128341136Y-75527371D01*
X128308359Y-75495743D01*
X128220022Y-75449534D01*
X128220022Y-75449533D01*
X128152990Y-75429851D01*
X128152978Y-75429848D01*
X128081001Y-75419500D01*
X128081000Y-75419500D01*
X125529000Y-75419500D01*
X125528997Y-75419500D01*
X125474687Y-75425338D01*
X125423181Y-75436543D01*
X125423172Y-75436546D01*
X125396807Y-75443779D01*
X125396796Y-75443783D01*
X125310181Y-75493105D01*
X125310173Y-75493111D01*
X125257371Y-75538863D01*
X125225743Y-75571640D01*
X125179534Y-75659977D01*
X125179533Y-75659977D01*
X125159851Y-75727009D01*
X125159848Y-75727021D01*
X125153936Y-75768146D01*
X125124911Y-75831702D01*
X125066133Y-75869477D01*
X125031198Y-75874500D01*
X124214107Y-75874500D01*
X124110702Y-75902207D01*
X124110701Y-75902206D01*
X124086814Y-75908607D01*
X123972686Y-75974500D01*
X123972683Y-75974502D01*
X123972678Y-75974508D01*
X123904003Y-76043182D01*
X123842679Y-76076666D01*
X123816323Y-76079500D01*
X123579519Y-76079500D01*
X123579509Y-76079501D01*
X123522885Y-76085587D01*
X123394773Y-76133372D01*
X123285313Y-76215313D01*
X123203373Y-76324771D01*
X123155587Y-76452889D01*
X123149500Y-76509498D01*
X118195919Y-76509498D01*
X118213471Y-76482185D01*
X118295483Y-76409530D01*
X118385220Y-76279523D01*
X118441237Y-76131818D01*
X118460278Y-75975000D01*
X118460218Y-75974501D01*
X118441237Y-75818181D01*
X118406662Y-75727015D01*
X118385220Y-75670477D01*
X118295483Y-75540470D01*
X118177240Y-75435717D01*
X118177238Y-75435716D01*
X118177237Y-75435715D01*
X118037365Y-75362303D01*
X117883986Y-75324500D01*
X117883985Y-75324500D01*
X117726015Y-75324500D01*
X117726014Y-75324500D01*
X117572634Y-75362303D01*
X117432762Y-75435715D01*
X117387857Y-75475497D01*
X117316327Y-75538867D01*
X117314516Y-75540471D01*
X117224781Y-75670475D01*
X117224780Y-75670476D01*
X117168762Y-75818181D01*
X117149722Y-75974999D01*
X117149722Y-75975001D01*
X117155896Y-76025854D01*
X117144435Y-76094777D01*
X117120481Y-76128480D01*
X116774438Y-76474525D01*
X116704527Y-76544435D01*
X116655089Y-76630062D01*
X116655089Y-76630063D01*
X116650847Y-76645895D01*
X116631810Y-76716946D01*
X116631807Y-76716958D01*
X116629500Y-76725564D01*
X116629500Y-79264115D01*
X116609815Y-79331154D01*
X116593181Y-79351796D01*
X115100376Y-80844600D01*
X115039053Y-80878085D01*
X114969361Y-80873101D01*
X114913428Y-80831229D01*
X114896756Y-80800895D01*
X114885220Y-80770477D01*
X114795483Y-80640470D01*
X114677240Y-80535717D01*
X114677238Y-80535716D01*
X114677237Y-80535715D01*
X114537365Y-80462303D01*
X114383986Y-80424500D01*
X114383985Y-80424500D01*
X114226015Y-80424500D01*
X114226014Y-80424500D01*
X114210876Y-80428231D01*
X114141074Y-80425161D01*
X114084012Y-80384841D01*
X114057807Y-80320071D01*
X114058106Y-80292887D01*
X114060278Y-80274999D01*
X114041237Y-80118181D01*
X113993438Y-79992147D01*
X113985220Y-79970477D01*
X113895483Y-79840470D01*
X113777240Y-79735717D01*
X113777238Y-79735716D01*
X113777237Y-79735715D01*
X113637365Y-79662303D01*
X113483986Y-79624500D01*
X113483985Y-79624500D01*
X113326015Y-79624500D01*
X113326014Y-79624500D01*
X113172634Y-79662303D01*
X113032762Y-79735715D01*
X112914516Y-79840470D01*
X112912089Y-79843987D01*
X112910742Y-79845938D01*
X112856463Y-79889929D01*
X112808692Y-79899500D01*
X112466847Y-79899500D01*
X112399808Y-79879815D01*
X112354053Y-79827011D01*
X112344109Y-79757853D01*
X112345230Y-79751309D01*
X112355499Y-79699678D01*
X112355500Y-79699676D01*
X112355500Y-79250323D01*
X112355499Y-79250321D01*
X112340967Y-79177264D01*
X112340967Y-79177262D01*
X112340966Y-79177260D01*
X112318667Y-79143887D01*
X112297791Y-79077214D01*
X112316275Y-79009834D01*
X112318628Y-79006170D01*
X112340966Y-78972740D01*
X112355500Y-78899674D01*
X112355500Y-78450326D01*
X112355500Y-78450323D01*
X112355499Y-78450321D01*
X112340967Y-78377264D01*
X112340967Y-78377262D01*
X112340966Y-78377260D01*
X112318667Y-78343887D01*
X112297791Y-78277214D01*
X112316275Y-78209834D01*
X112318628Y-78206170D01*
X112340966Y-78172740D01*
X112355500Y-78099674D01*
X112355500Y-77650326D01*
X112355500Y-77650323D01*
X112355499Y-77650321D01*
X112340967Y-77577264D01*
X112340966Y-77577260D01*
X112316384Y-77540470D01*
X112285601Y-77494399D01*
X112202740Y-77439034D01*
X112202739Y-77439033D01*
X112202735Y-77439032D01*
X112129677Y-77424500D01*
X112129674Y-77424500D01*
X111361874Y-77424500D01*
X111294835Y-77404815D01*
X111249080Y-77352011D01*
X111239136Y-77282853D01*
X111240257Y-77276309D01*
X111255499Y-77199678D01*
X111255500Y-77199676D01*
X111255500Y-76350323D01*
X111255499Y-76350321D01*
X111240967Y-76277264D01*
X111240966Y-76277260D01*
X111223242Y-76250734D01*
X111185601Y-76194399D01*
X111102740Y-76139034D01*
X111102739Y-76139033D01*
X111102735Y-76139032D01*
X111029677Y-76124500D01*
X111029674Y-76124500D01*
X110580326Y-76124500D01*
X110580323Y-76124500D01*
X110507264Y-76139032D01*
X110507260Y-76139033D01*
X110473890Y-76161331D01*
X110407212Y-76182208D01*
X110339832Y-76163723D01*
X110336110Y-76161331D01*
X110302739Y-76139033D01*
X110302735Y-76139032D01*
X110229677Y-76124500D01*
X110229674Y-76124500D01*
X109780326Y-76124500D01*
X109780323Y-76124500D01*
X109707264Y-76139032D01*
X109707260Y-76139033D01*
X109673890Y-76161331D01*
X109607212Y-76182208D01*
X109539832Y-76163723D01*
X109536110Y-76161331D01*
X109502739Y-76139033D01*
X109502735Y-76139032D01*
X109429677Y-76124500D01*
X109429674Y-76124500D01*
X108980326Y-76124500D01*
X108980323Y-76124500D01*
X108907264Y-76139032D01*
X108907260Y-76139033D01*
X108873890Y-76161331D01*
X108807212Y-76182208D01*
X108739832Y-76163723D01*
X108736110Y-76161331D01*
X108702739Y-76139033D01*
X108702735Y-76139032D01*
X108629677Y-76124500D01*
X108629674Y-76124500D01*
X108180326Y-76124500D01*
X108180323Y-76124500D01*
X108107264Y-76139032D01*
X108107260Y-76139033D01*
X108073890Y-76161331D01*
X108007212Y-76182208D01*
X107939832Y-76163723D01*
X107936110Y-76161331D01*
X107902739Y-76139033D01*
X107902735Y-76139032D01*
X107829677Y-76124500D01*
X107829674Y-76124500D01*
X107380326Y-76124500D01*
X107380321Y-76124500D01*
X107328691Y-76134770D01*
X107259099Y-76128543D01*
X107203922Y-76085680D01*
X107180678Y-76019790D01*
X107180500Y-76013153D01*
X107180500Y-72681899D01*
X107200185Y-72614860D01*
X107216819Y-72594218D01*
X107824218Y-71986819D01*
X107885541Y-71953334D01*
X107911899Y-71950500D01*
X108343063Y-71950500D01*
X108410102Y-71970185D01*
X108455857Y-72022989D01*
X108465801Y-72092147D01*
X108436776Y-72155703D01*
X108411955Y-72177600D01*
X108362842Y-72210417D01*
X108349399Y-72219399D01*
X108294033Y-72302260D01*
X108294032Y-72302264D01*
X108279500Y-72375321D01*
X108279500Y-73774678D01*
X108294032Y-73847735D01*
X108294033Y-73847739D01*
X108294034Y-73847740D01*
X108349399Y-73930601D01*
X108420146Y-73977872D01*
X108432260Y-73985966D01*
X108432264Y-73985967D01*
X108505321Y-74000499D01*
X108505324Y-74000500D01*
X108505326Y-74000500D01*
X109371324Y-74000500D01*
X109438363Y-74020185D01*
X109459005Y-74036819D01*
X110897686Y-75475500D01*
X110987524Y-75527368D01*
X111007440Y-75538867D01*
X111011814Y-75541392D01*
X111139107Y-75575500D01*
X111139108Y-75575500D01*
X113646324Y-75575500D01*
X113713363Y-75595185D01*
X113734005Y-75611819D01*
X114603558Y-76481372D01*
X114637043Y-76542695D01*
X114632059Y-76612387D01*
X114590187Y-76668320D01*
X114579467Y-76675211D01*
X114579487Y-76675242D01*
X114514588Y-76716950D01*
X114514572Y-76716961D01*
X114405922Y-76811106D01*
X114358297Y-76866069D01*
X114280568Y-76987017D01*
X114280566Y-76987022D01*
X114250356Y-77053174D01*
X114209850Y-77191124D01*
X114209847Y-77191136D01*
X114199500Y-77263110D01*
X114199500Y-77835004D01*
X114218947Y-77932771D01*
X114220926Y-77937548D01*
X114228394Y-78007018D01*
X114220926Y-78032452D01*
X114218947Y-78037228D01*
X114199500Y-78134995D01*
X114199500Y-78706889D01*
X114209847Y-78778863D01*
X114209849Y-78778871D01*
X114250356Y-78916826D01*
X114267044Y-78953368D01*
X114280566Y-78982977D01*
X114280568Y-78982982D01*
X114358297Y-79103930D01*
X114405922Y-79158893D01*
X114514572Y-79253038D01*
X114514579Y-79253043D01*
X114514584Y-79253047D01*
X114559113Y-79281664D01*
X114575756Y-79292360D01*
X114575772Y-79292369D01*
X114706542Y-79352089D01*
X114706546Y-79352091D01*
X114776323Y-79372579D01*
X114776326Y-79372579D01*
X114776328Y-79372580D01*
X114807553Y-79377069D01*
X114918638Y-79393041D01*
X114918639Y-79393041D01*
X114991358Y-79393041D01*
X114991361Y-79393041D01*
X114997955Y-79392092D01*
X115000258Y-79391762D01*
X115017903Y-79390500D01*
X115392097Y-79390500D01*
X115409742Y-79391762D01*
X115412574Y-79392169D01*
X115418639Y-79393041D01*
X115418642Y-79393041D01*
X115491361Y-79393041D01*
X115491362Y-79393041D01*
X115618416Y-79374773D01*
X115633671Y-79372580D01*
X115633671Y-79372579D01*
X115633677Y-79372579D01*
X115703454Y-79352091D01*
X115783625Y-79315478D01*
X115834227Y-79292369D01*
X115834231Y-79292366D01*
X115834239Y-79292363D01*
X115895416Y-79253047D01*
X115895424Y-79253040D01*
X115895427Y-79253038D01*
X116004077Y-79158893D01*
X116027555Y-79131798D01*
X116051702Y-79103931D01*
X116129434Y-78982977D01*
X116159644Y-78916826D01*
X116200151Y-78778871D01*
X116210500Y-78706889D01*
X116210500Y-78135000D01*
X116210500Y-78134997D01*
X116210499Y-78134995D01*
X116191052Y-78037229D01*
X116191051Y-78037228D01*
X116191051Y-78037224D01*
X116191048Y-78037219D01*
X116189077Y-78032460D01*
X116181604Y-77962991D01*
X116189077Y-77937540D01*
X116191047Y-77932781D01*
X116191051Y-77932776D01*
X116210500Y-77835000D01*
X116210500Y-77263111D01*
X116200151Y-77191129D01*
X116159644Y-77053174D01*
X116129434Y-76987023D01*
X116129432Y-76987020D01*
X116129431Y-76987017D01*
X116051702Y-76866069D01*
X116004077Y-76811106D01*
X115895427Y-76716961D01*
X115895418Y-76716955D01*
X115895416Y-76716953D01*
X115882328Y-76708542D01*
X115834248Y-76677642D01*
X115834236Y-76677635D01*
X115777986Y-76651946D01*
X115725183Y-76606190D01*
X115705500Y-76539153D01*
X115705500Y-76309110D01*
X115705500Y-76309108D01*
X115671392Y-76181814D01*
X115605500Y-76067686D01*
X115512314Y-75974500D01*
X114212314Y-74674500D01*
X114155250Y-74641554D01*
X114098187Y-74608608D01*
X114034539Y-74591554D01*
X113970892Y-74574500D01*
X113970891Y-74574500D01*
X111463676Y-74574500D01*
X111396637Y-74554815D01*
X111375995Y-74538181D01*
X111049995Y-74212181D01*
X111016510Y-74150858D01*
X111021494Y-74081166D01*
X111063366Y-74025233D01*
X111128830Y-74000816D01*
X111137676Y-74000500D01*
X111302274Y-74000500D01*
X111492571Y-73960051D01*
X111664796Y-73883372D01*
X111670297Y-73880923D01*
X111670297Y-73880922D01*
X111670299Y-73880922D01*
X111827692Y-73766569D01*
X111846077Y-73746151D01*
X111877091Y-73711706D01*
X111957870Y-73621992D01*
X112055144Y-73453508D01*
X112087069Y-73355252D01*
X112126506Y-73297576D01*
X112190864Y-73270377D01*
X112259711Y-73282291D01*
X112311187Y-73329535D01*
X112322931Y-73355252D01*
X112354855Y-73453507D01*
X112354857Y-73453511D01*
X112407497Y-73544686D01*
X112452130Y-73621992D01*
X112475948Y-73648444D01*
X112582302Y-73766564D01*
X112582305Y-73766566D01*
X112582308Y-73766569D01*
X112677304Y-73835588D01*
X112739702Y-73880923D01*
X112807926Y-73911297D01*
X112917429Y-73960051D01*
X113107726Y-74000500D01*
X113302274Y-74000500D01*
X113492571Y-73960051D01*
X113664796Y-73883372D01*
X113670297Y-73880923D01*
X113670297Y-73880922D01*
X113670299Y-73880922D01*
X113827692Y-73766569D01*
X113846077Y-73746151D01*
X113877091Y-73711706D01*
X113957870Y-73621992D01*
X114055144Y-73453508D01*
X114115262Y-73268482D01*
X114135598Y-73075000D01*
X114115262Y-72881518D01*
X114055144Y-72696492D01*
X114055143Y-72696491D01*
X114055143Y-72696489D01*
X114055142Y-72696488D01*
X113973742Y-72555500D01*
X113957870Y-72528008D01*
X113865630Y-72425565D01*
X113827697Y-72383435D01*
X113827694Y-72383433D01*
X113827693Y-72383432D01*
X113827692Y-72383431D01*
X113748995Y-72326254D01*
X113670297Y-72269076D01*
X113632246Y-72252135D01*
X121554500Y-72252135D01*
X121554500Y-74147870D01*
X121554501Y-74147876D01*
X121560908Y-74207483D01*
X121611202Y-74342328D01*
X121611206Y-74342335D01*
X121697452Y-74457544D01*
X121697455Y-74457547D01*
X121812664Y-74543793D01*
X121812671Y-74543797D01*
X121947517Y-74594091D01*
X121947516Y-74594091D01*
X121954444Y-74594835D01*
X122007127Y-74600500D01*
X124102872Y-74600499D01*
X124162483Y-74594091D01*
X124297331Y-74543796D01*
X124412546Y-74457546D01*
X124498796Y-74342331D01*
X124549091Y-74207483D01*
X124555500Y-74147873D01*
X124555500Y-73824500D01*
X124575185Y-73757461D01*
X124627989Y-73711706D01*
X124679500Y-73700500D01*
X125085501Y-73700500D01*
X125152540Y-73720185D01*
X125198295Y-73772989D01*
X125209501Y-73824500D01*
X125209501Y-73977876D01*
X125215908Y-74037483D01*
X125266202Y-74172328D01*
X125266206Y-74172335D01*
X125352452Y-74287544D01*
X125352455Y-74287547D01*
X125467664Y-74373793D01*
X125467671Y-74373797D01*
X125602517Y-74424091D01*
X125602516Y-74424091D01*
X125609444Y-74424835D01*
X125662127Y-74430500D01*
X126901323Y-74430499D01*
X126968362Y-74450184D01*
X126989004Y-74466818D01*
X127355159Y-74832972D01*
X127355169Y-74832983D01*
X127359499Y-74837313D01*
X127359500Y-74837314D01*
X127452686Y-74930500D01*
X127547474Y-74985226D01*
X127566814Y-74996392D01*
X127694107Y-75030500D01*
X127694108Y-75030500D01*
X129835193Y-75030500D01*
X129902232Y-75050185D01*
X129934459Y-75080188D01*
X129945312Y-75094686D01*
X129945318Y-75094692D01*
X130054769Y-75176625D01*
X130054770Y-75176625D01*
X130054774Y-75176628D01*
X130182886Y-75224412D01*
X130239515Y-75230500D01*
X130830484Y-75230499D01*
X130887114Y-75224412D01*
X131015226Y-75176628D01*
X131124687Y-75094687D01*
X131206628Y-74985226D01*
X131254412Y-74857114D01*
X131257007Y-74832972D01*
X131260499Y-74800501D01*
X131260499Y-74800494D01*
X131260500Y-74800485D01*
X131260499Y-74259516D01*
X131254412Y-74202886D01*
X131243015Y-74172331D01*
X131233893Y-74147873D01*
X131206628Y-74074774D01*
X131124687Y-73965313D01*
X131044786Y-73905500D01*
X131015228Y-73883373D01*
X131015226Y-73883372D01*
X130982538Y-73871179D01*
X130926608Y-73829310D01*
X130902191Y-73763846D01*
X130917043Y-73695573D01*
X130966448Y-73646168D01*
X130982528Y-73638823D01*
X131015226Y-73626628D01*
X131124687Y-73544687D01*
X131206628Y-73435226D01*
X131254412Y-73307114D01*
X131257652Y-73276975D01*
X131260499Y-73250501D01*
X131260499Y-73250490D01*
X131260500Y-73250485D01*
X131260499Y-72709516D01*
X131254412Y-72652886D01*
X131252970Y-72649021D01*
X131218088Y-72555500D01*
X131206628Y-72524774D01*
X131124687Y-72415313D01*
X131058911Y-72366074D01*
X131015228Y-72333373D01*
X131015226Y-72333372D01*
X130887114Y-72285588D01*
X130887112Y-72285587D01*
X130887110Y-72285587D01*
X130830501Y-72279500D01*
X130830485Y-72279500D01*
X130593676Y-72279500D01*
X130526637Y-72259815D01*
X130505995Y-72243181D01*
X130204995Y-71942181D01*
X130171510Y-71880858D01*
X130176494Y-71811166D01*
X130218366Y-71755233D01*
X130283830Y-71730816D01*
X130292676Y-71730500D01*
X130864270Y-71730500D01*
X130894699Y-71727646D01*
X130894701Y-71727646D01*
X130972844Y-71700302D01*
X131022882Y-71682793D01*
X131132150Y-71602150D01*
X131212793Y-71492882D01*
X131251634Y-71381881D01*
X131257646Y-71364701D01*
X131257646Y-71364699D01*
X131260500Y-71334269D01*
X131260500Y-70825730D01*
X131257646Y-70795300D01*
X131257646Y-70795298D01*
X131212793Y-70667119D01*
X131212792Y-70667117D01*
X131204974Y-70656524D01*
X131144807Y-70575000D01*
X135549723Y-70575000D01*
X135565059Y-70750301D01*
X135568793Y-70792975D01*
X135568793Y-70792979D01*
X135625422Y-71004322D01*
X135625424Y-71004326D01*
X135625425Y-71004330D01*
X135653257Y-71064015D01*
X135717897Y-71202638D01*
X135717898Y-71202639D01*
X135843402Y-71381877D01*
X135998123Y-71536598D01*
X136177361Y-71662102D01*
X136375670Y-71754575D01*
X136375676Y-71754576D01*
X136375677Y-71754577D01*
X136406364Y-71762799D01*
X136587023Y-71811207D01*
X136769926Y-71827208D01*
X136804998Y-71830277D01*
X136805000Y-71830277D01*
X136805002Y-71830277D01*
X136833254Y-71827805D01*
X137022977Y-71811207D01*
X137234330Y-71754575D01*
X137432639Y-71662102D01*
X137611877Y-71536598D01*
X137766598Y-71381877D01*
X137892102Y-71202639D01*
X137984575Y-71004330D01*
X138041207Y-70792977D01*
X138060277Y-70575000D01*
X138041207Y-70357023D01*
X138023297Y-70290183D01*
X138008938Y-70236593D01*
X138010601Y-70166743D01*
X138049764Y-70108881D01*
X138113992Y-70081377D01*
X138128713Y-70080500D01*
X139168921Y-70080500D01*
X139235960Y-70100185D01*
X139268690Y-70130865D01*
X139279615Y-70145668D01*
X139302848Y-70177148D01*
X139302850Y-70177150D01*
X139412118Y-70257793D01*
X139443626Y-70268818D01*
X139540299Y-70302646D01*
X139570730Y-70305500D01*
X139570734Y-70305500D01*
X140079270Y-70305500D01*
X140109699Y-70302646D01*
X140109701Y-70302646D01*
X140173790Y-70280219D01*
X140237882Y-70257793D01*
X140347150Y-70177150D01*
X140427793Y-70067882D01*
X140451546Y-70000000D01*
X140472646Y-69939701D01*
X140472646Y-69939699D01*
X140475500Y-69909269D01*
X140475500Y-69250730D01*
X140472646Y-69220300D01*
X140472646Y-69220298D01*
X140430376Y-69099500D01*
X140427793Y-69092118D01*
X140347150Y-68982850D01*
X140237882Y-68902207D01*
X140237880Y-68902206D01*
X140109700Y-68857353D01*
X140079270Y-68854500D01*
X140079266Y-68854500D01*
X139570734Y-68854500D01*
X139570730Y-68854500D01*
X139540300Y-68857353D01*
X139540298Y-68857353D01*
X139412119Y-68902206D01*
X139412117Y-68902207D01*
X139302850Y-68982850D01*
X139302848Y-68982851D01*
X139268692Y-69029133D01*
X139213044Y-69071384D01*
X139168921Y-69079500D01*
X137734107Y-69079500D01*
X137659466Y-69099499D01*
X137659466Y-69099500D01*
X137606814Y-69113608D01*
X137606813Y-69113608D01*
X137606811Y-69113609D01*
X137551920Y-69145301D01*
X137492686Y-69179500D01*
X137492685Y-69179501D01*
X137352462Y-69319723D01*
X137318416Y-69353769D01*
X137257092Y-69387253D01*
X137198642Y-69385862D01*
X137022977Y-69338793D01*
X136805002Y-69319723D01*
X136804998Y-69319723D01*
X136659682Y-69332436D01*
X136587023Y-69338793D01*
X136587020Y-69338793D01*
X136375677Y-69395422D01*
X136375668Y-69395426D01*
X136177361Y-69487898D01*
X136177357Y-69487900D01*
X135998121Y-69613402D01*
X135843402Y-69768121D01*
X135717900Y-69947357D01*
X135717898Y-69947361D01*
X135656957Y-70078050D01*
X135630547Y-70134687D01*
X135625426Y-70145668D01*
X135625422Y-70145677D01*
X135568793Y-70357020D01*
X135568793Y-70357024D01*
X135558279Y-70477207D01*
X135549723Y-70575000D01*
X131144807Y-70575000D01*
X131132150Y-70557850D01*
X131022882Y-70477207D01*
X131022880Y-70477206D01*
X130894700Y-70432353D01*
X130864270Y-70429500D01*
X130864266Y-70429500D01*
X130205734Y-70429500D01*
X130205730Y-70429500D01*
X130175300Y-70432353D01*
X130175298Y-70432353D01*
X130047119Y-70477206D01*
X130047117Y-70477207D01*
X129937850Y-70557850D01*
X129857207Y-70667117D01*
X129857206Y-70667119D01*
X129812353Y-70795298D01*
X129812353Y-70795300D01*
X129809500Y-70825730D01*
X129809500Y-71247324D01*
X129789815Y-71314363D01*
X129737011Y-71360118D01*
X129667853Y-71370062D01*
X129604297Y-71341037D01*
X129597819Y-71335005D01*
X129287316Y-71024502D01*
X129287314Y-71024500D01*
X129202442Y-70975499D01*
X129173185Y-70958607D01*
X129173182Y-70958606D01*
X129171083Y-70958044D01*
X129146883Y-70948755D01*
X129143343Y-70946951D01*
X129143342Y-70946950D01*
X129030304Y-70889354D01*
X129030303Y-70889353D01*
X129030300Y-70889352D01*
X129030301Y-70889352D01*
X128936524Y-70874500D01*
X127848482Y-70874500D01*
X127767519Y-70887323D01*
X127754696Y-70889354D01*
X127641658Y-70946950D01*
X127641657Y-70946951D01*
X127641652Y-70946954D01*
X127551954Y-71036652D01*
X127551951Y-71036657D01*
X127494352Y-71149698D01*
X127479500Y-71243475D01*
X127479500Y-71606517D01*
X127486139Y-71648433D01*
X127494354Y-71700304D01*
X127551950Y-71813342D01*
X127551952Y-71813344D01*
X127551954Y-71813347D01*
X127641652Y-71903045D01*
X127641654Y-71903046D01*
X127641658Y-71903050D01*
X127754696Y-71960646D01*
X127754698Y-71960647D01*
X127848475Y-71975499D01*
X127848481Y-71975500D01*
X128771323Y-71975499D01*
X128838362Y-71995183D01*
X128859004Y-72011818D01*
X129773181Y-72925995D01*
X129806666Y-72987318D01*
X129809500Y-73013675D01*
X129809500Y-73250480D01*
X129809501Y-73250490D01*
X129815587Y-73307114D01*
X129863372Y-73435226D01*
X129945313Y-73544687D01*
X130054774Y-73626628D01*
X130087458Y-73638818D01*
X130143390Y-73680687D01*
X130167808Y-73746151D01*
X130152957Y-73814424D01*
X130103552Y-73863830D01*
X130087461Y-73871179D01*
X130054774Y-73883371D01*
X130054770Y-73883373D01*
X129945318Y-73965307D01*
X129945312Y-73965313D01*
X129934459Y-73979812D01*
X129878524Y-74021683D01*
X129835193Y-74029500D01*
X128484500Y-74029500D01*
X128417461Y-74009815D01*
X128371706Y-73957011D01*
X128360500Y-73905500D01*
X128360499Y-73132129D01*
X128360498Y-73132123D01*
X128354091Y-73072516D01*
X128303797Y-72937671D01*
X128303793Y-72937664D01*
X128217547Y-72822455D01*
X128217544Y-72822452D01*
X128102335Y-72736206D01*
X128102328Y-72736202D01*
X127967482Y-72685908D01*
X127967483Y-72685908D01*
X127907883Y-72679501D01*
X127907881Y-72679500D01*
X127907873Y-72679500D01*
X127907865Y-72679500D01*
X126742000Y-72679500D01*
X126674961Y-72659815D01*
X126629206Y-72607011D01*
X126618000Y-72555500D01*
X126618000Y-72088298D01*
X126637685Y-72021259D01*
X126690489Y-71975504D01*
X126722600Y-71965825D01*
X126755304Y-71960646D01*
X126868342Y-71903050D01*
X126958050Y-71813342D01*
X127015646Y-71700304D01*
X127015646Y-71700302D01*
X127015647Y-71700301D01*
X127030499Y-71606524D01*
X127030500Y-71606519D01*
X127030499Y-71243482D01*
X127015646Y-71149696D01*
X126958050Y-71036658D01*
X126958044Y-71036652D01*
X126952311Y-71028759D01*
X126953665Y-71027774D01*
X126925590Y-70976368D01*
X126930569Y-70906676D01*
X126953013Y-70871751D01*
X126952311Y-70871241D01*
X126958042Y-70863349D01*
X126958050Y-70863342D01*
X127015646Y-70750304D01*
X127015646Y-70750302D01*
X127015647Y-70750301D01*
X127030499Y-70656524D01*
X127030500Y-70656519D01*
X127030499Y-70293482D01*
X127015646Y-70199696D01*
X126958050Y-70086658D01*
X126958045Y-70086653D01*
X126952311Y-70078759D01*
X126953665Y-70077774D01*
X126925590Y-70026368D01*
X126930569Y-69956676D01*
X126953013Y-69921751D01*
X126952311Y-69921241D01*
X126958042Y-69913349D01*
X126958050Y-69913342D01*
X127015646Y-69800304D01*
X127015646Y-69800302D01*
X127015647Y-69800301D01*
X127030499Y-69706524D01*
X127030500Y-69706519D01*
X127030499Y-69343482D01*
X127030498Y-69343475D01*
X127479500Y-69343475D01*
X127479500Y-69706517D01*
X127489257Y-69768121D01*
X127494354Y-69800304D01*
X127551950Y-69913342D01*
X127551952Y-69913344D01*
X127551954Y-69913347D01*
X127641652Y-70003045D01*
X127641654Y-70003046D01*
X127641658Y-70003050D01*
X127732201Y-70049184D01*
X127754698Y-70060647D01*
X127848475Y-70075499D01*
X127848481Y-70075500D01*
X128936518Y-70075499D01*
X129030304Y-70060646D01*
X129072757Y-70039014D01*
X129129052Y-70025500D01*
X130005206Y-70025500D01*
X130046160Y-70032458D01*
X130093961Y-70049184D01*
X130175301Y-70077646D01*
X130179609Y-70078050D01*
X130205730Y-70080500D01*
X130205734Y-70080500D01*
X130864270Y-70080500D01*
X130894699Y-70077646D01*
X130894701Y-70077646D01*
X130958790Y-70055219D01*
X131022882Y-70032793D01*
X131132150Y-69952150D01*
X131212793Y-69842882D01*
X131250627Y-69734759D01*
X131257646Y-69714701D01*
X131257646Y-69714699D01*
X131260500Y-69684269D01*
X131260500Y-69175730D01*
X131257646Y-69145300D01*
X131257646Y-69145298D01*
X131212793Y-69017119D01*
X131212792Y-69017117D01*
X131212252Y-69016385D01*
X131132150Y-68907850D01*
X131114644Y-68894930D01*
X131085866Y-68873690D01*
X131043615Y-68818042D01*
X131035500Y-68773920D01*
X131035500Y-68236078D01*
X131055185Y-68169039D01*
X131085864Y-68136310D01*
X131132150Y-68102150D01*
X131212793Y-67992882D01*
X131235219Y-67928790D01*
X131257646Y-67864701D01*
X131257646Y-67864699D01*
X131260500Y-67834269D01*
X131260500Y-67325730D01*
X131257646Y-67295300D01*
X131257646Y-67295298D01*
X131212793Y-67167119D01*
X131212792Y-67167117D01*
X131204462Y-67155830D01*
X131132150Y-67057850D01*
X131022882Y-66977207D01*
X131022880Y-66977206D01*
X130894700Y-66932353D01*
X130864270Y-66929500D01*
X130864266Y-66929500D01*
X130205734Y-66929500D01*
X130205730Y-66929500D01*
X130175300Y-66932353D01*
X130175298Y-66932353D01*
X130047119Y-66977206D01*
X130047117Y-66977207D01*
X129937850Y-67057850D01*
X129857207Y-67167117D01*
X129857206Y-67167119D01*
X129812353Y-67295298D01*
X129812353Y-67295300D01*
X129809500Y-67325730D01*
X129809500Y-67834269D01*
X129812353Y-67864699D01*
X129812353Y-67864701D01*
X129857206Y-67992880D01*
X129857207Y-67992882D01*
X129937850Y-68102150D01*
X129984134Y-68136309D01*
X130026384Y-68191954D01*
X130034500Y-68236078D01*
X130034500Y-68773920D01*
X130014815Y-68840959D01*
X129984134Y-68873690D01*
X129937853Y-68907847D01*
X129937850Y-68907850D01*
X129888930Y-68974134D01*
X129833282Y-69016385D01*
X129789160Y-69024500D01*
X129129052Y-69024500D01*
X129072758Y-69010985D01*
X129030301Y-68989352D01*
X128936524Y-68974500D01*
X127848482Y-68974500D01*
X127767519Y-68987323D01*
X127754696Y-68989354D01*
X127641658Y-69046950D01*
X127641657Y-69046951D01*
X127641652Y-69046954D01*
X127551954Y-69136652D01*
X127551951Y-69136657D01*
X127551950Y-69136658D01*
X127532751Y-69174337D01*
X127494352Y-69249698D01*
X127479500Y-69343475D01*
X127030498Y-69343475D01*
X127015646Y-69249696D01*
X126958050Y-69136658D01*
X126958046Y-69136654D01*
X126958045Y-69136652D01*
X126868347Y-69046954D01*
X126868344Y-69046952D01*
X126868342Y-69046950D01*
X126755304Y-68989354D01*
X126755302Y-68989353D01*
X126755301Y-68989353D01*
X126722600Y-68984173D01*
X126659466Y-68954242D01*
X126622536Y-68894930D01*
X126618000Y-68861700D01*
X126618000Y-68261471D01*
X126637685Y-68194432D01*
X126690489Y-68148677D01*
X126701021Y-68144438D01*
X126762882Y-68122793D01*
X126872150Y-68042150D01*
X126952793Y-67932882D01*
X126975219Y-67868790D01*
X126997646Y-67804701D01*
X126997646Y-67804699D01*
X127000500Y-67774269D01*
X127000500Y-67115730D01*
X126997646Y-67085300D01*
X126997646Y-67085298D01*
X126952793Y-66957119D01*
X126952792Y-66957117D01*
X126934516Y-66932354D01*
X126872150Y-66847850D01*
X126762882Y-66767207D01*
X126762880Y-66767206D01*
X126634700Y-66722353D01*
X126604270Y-66719500D01*
X126604266Y-66719500D01*
X126095734Y-66719500D01*
X126095730Y-66719500D01*
X126065300Y-66722353D01*
X126065298Y-66722353D01*
X125937119Y-66767206D01*
X125937117Y-66767207D01*
X125827850Y-66847850D01*
X125747207Y-66957117D01*
X125747206Y-66957119D01*
X125702353Y-67085298D01*
X125702353Y-67085300D01*
X125699500Y-67115730D01*
X125699500Y-67367270D01*
X125682888Y-67429269D01*
X125651108Y-67484313D01*
X125651108Y-67484314D01*
X125617000Y-67611608D01*
X125617000Y-68861701D01*
X125597315Y-68928740D01*
X125544511Y-68974495D01*
X125512398Y-68984174D01*
X125479699Y-68989352D01*
X125437243Y-69010985D01*
X125366658Y-69046950D01*
X125366657Y-69046951D01*
X125366652Y-69046954D01*
X125276954Y-69136652D01*
X125276951Y-69136657D01*
X125276950Y-69136658D01*
X125257751Y-69174337D01*
X125219352Y-69249698D01*
X125204500Y-69343475D01*
X125204500Y-69706517D01*
X125219354Y-69800305D01*
X125222369Y-69809582D01*
X125219321Y-69810572D01*
X125229142Y-69862883D01*
X125202861Y-69927622D01*
X125145752Y-69967875D01*
X125105762Y-69974500D01*
X125088676Y-69974500D01*
X125021637Y-69954815D01*
X125000995Y-69938181D01*
X124636818Y-69574004D01*
X124603333Y-69512681D01*
X124600499Y-69486323D01*
X124600499Y-69249518D01*
X124600498Y-69249509D01*
X124594412Y-69192885D01*
X124565592Y-69115619D01*
X124546628Y-69064774D01*
X124546626Y-69064771D01*
X124546626Y-69064770D01*
X124464692Y-68955318D01*
X124464686Y-68955312D01*
X124450188Y-68944459D01*
X124408317Y-68888524D01*
X124400500Y-68845193D01*
X124400500Y-68521203D01*
X124420185Y-68454164D01*
X124423983Y-68449147D01*
X124423921Y-68449104D01*
X124462555Y-68393131D01*
X124476925Y-68375887D01*
X124477309Y-68375502D01*
X124477314Y-68375500D01*
X124645997Y-68206816D01*
X124707318Y-68173334D01*
X124733676Y-68170500D01*
X124954270Y-68170500D01*
X124984699Y-68167646D01*
X124984701Y-68167646D01*
X125052650Y-68143869D01*
X125112882Y-68122793D01*
X125222150Y-68042150D01*
X125302793Y-67932882D01*
X125325219Y-67868790D01*
X125347646Y-67804701D01*
X125347646Y-67804699D01*
X125350500Y-67774269D01*
X125350500Y-67115730D01*
X125347646Y-67085300D01*
X125347646Y-67085298D01*
X125302793Y-66957119D01*
X125302792Y-66957117D01*
X125284516Y-66932354D01*
X125222150Y-66847850D01*
X125112882Y-66767207D01*
X125112880Y-66767206D01*
X124984700Y-66722353D01*
X124954270Y-66719500D01*
X124954266Y-66719500D01*
X124445734Y-66719500D01*
X124445730Y-66719500D01*
X124415300Y-66722353D01*
X124415298Y-66722353D01*
X124287119Y-66767206D01*
X124287117Y-66767207D01*
X124177850Y-66847850D01*
X124097207Y-66957117D01*
X124097206Y-66957119D01*
X124052353Y-67085298D01*
X124052353Y-67085300D01*
X124049500Y-67115730D01*
X124049500Y-67150500D01*
X124029815Y-67217539D01*
X123977011Y-67263294D01*
X123925500Y-67274500D01*
X123814944Y-67274500D01*
X123649773Y-67315210D01*
X123499150Y-67394263D01*
X123371816Y-67507072D01*
X123275182Y-67647068D01*
X123214860Y-67806125D01*
X123214859Y-67806130D01*
X123194355Y-67975000D01*
X123214859Y-68143869D01*
X123214860Y-68143874D01*
X123275182Y-68302931D01*
X123376078Y-68449103D01*
X123373807Y-68450670D01*
X123398034Y-68502190D01*
X123399500Y-68521204D01*
X123399500Y-68845193D01*
X123379815Y-68912232D01*
X123349812Y-68944459D01*
X123335313Y-68955312D01*
X123335307Y-68955318D01*
X123253374Y-69064769D01*
X123253372Y-69064773D01*
X123253372Y-69064774D01*
X123210580Y-69179502D01*
X123205587Y-69192889D01*
X123199500Y-69249498D01*
X123199500Y-69840481D01*
X123199501Y-69840490D01*
X123205587Y-69897114D01*
X123246980Y-70008088D01*
X123253372Y-70025226D01*
X123335313Y-70134687D01*
X123444774Y-70216628D01*
X123572886Y-70264412D01*
X123629515Y-70270500D01*
X123866322Y-70270499D01*
X123933362Y-70290183D01*
X123954004Y-70306818D01*
X124429500Y-70782314D01*
X124522686Y-70875500D01*
X124636814Y-70941392D01*
X124764108Y-70975500D01*
X125105762Y-70975500D01*
X125172801Y-70995185D01*
X125218556Y-71047989D01*
X125228500Y-71117147D01*
X125221237Y-71140049D01*
X125222369Y-71140417D01*
X125219352Y-71149698D01*
X125204500Y-71243475D01*
X125204500Y-71606517D01*
X125211139Y-71648433D01*
X125219354Y-71700304D01*
X125276950Y-71813342D01*
X125276952Y-71813344D01*
X125276954Y-71813347D01*
X125366652Y-71903045D01*
X125366654Y-71903046D01*
X125366658Y-71903050D01*
X125479696Y-71960646D01*
X125479697Y-71960646D01*
X125479699Y-71960647D01*
X125512397Y-71965826D01*
X125575532Y-71995755D01*
X125612464Y-72055066D01*
X125617000Y-72088299D01*
X125617000Y-72575500D01*
X125597315Y-72642539D01*
X125544511Y-72688294D01*
X125493000Y-72699500D01*
X124679499Y-72699500D01*
X124612460Y-72679815D01*
X124566705Y-72627011D01*
X124555499Y-72575500D01*
X124555499Y-72252129D01*
X124555498Y-72252123D01*
X124555497Y-72252116D01*
X124549091Y-72192517D01*
X124548133Y-72189949D01*
X124498797Y-72057671D01*
X124498793Y-72057664D01*
X124412547Y-71942455D01*
X124412544Y-71942452D01*
X124297335Y-71856206D01*
X124297328Y-71856202D01*
X124162482Y-71805908D01*
X124162483Y-71805908D01*
X124102883Y-71799501D01*
X124102881Y-71799500D01*
X124102873Y-71799500D01*
X124102864Y-71799500D01*
X122007129Y-71799500D01*
X122007123Y-71799501D01*
X121947516Y-71805908D01*
X121812671Y-71856202D01*
X121812664Y-71856206D01*
X121697455Y-71942452D01*
X121697452Y-71942455D01*
X121611206Y-72057664D01*
X121611202Y-72057671D01*
X121560908Y-72192517D01*
X121554501Y-72252116D01*
X121554501Y-72252123D01*
X121554500Y-72252135D01*
X113632246Y-72252135D01*
X113531625Y-72207337D01*
X113492571Y-72189949D01*
X113492569Y-72189948D01*
X113302274Y-72149500D01*
X113107726Y-72149500D01*
X112928488Y-72187598D01*
X112858821Y-72182282D01*
X112815026Y-72153989D01*
X111435563Y-70774526D01*
X111435562Y-70774525D01*
X111349938Y-70725090D01*
X111302186Y-70712295D01*
X111302184Y-70712294D01*
X111302182Y-70712293D01*
X111254436Y-70699500D01*
X111254435Y-70699500D01*
X107454436Y-70699500D01*
X107355564Y-70699500D01*
X107307812Y-70712295D01*
X107307811Y-70712294D01*
X107260063Y-70725089D01*
X107260062Y-70725089D01*
X107192530Y-70764079D01*
X107174574Y-70774447D01*
X107174435Y-70774527D01*
X105704527Y-72244435D01*
X105704525Y-72244437D01*
X105704525Y-72244438D01*
X105655090Y-72330062D01*
X105655090Y-72330063D01*
X105653056Y-72337654D01*
X105632976Y-72412594D01*
X105632975Y-72412597D01*
X105629500Y-72425564D01*
X105629500Y-76013153D01*
X105609815Y-76080192D01*
X105557011Y-76125947D01*
X105487853Y-76135891D01*
X105481309Y-76134770D01*
X105429678Y-76124500D01*
X105429674Y-76124500D01*
X104980326Y-76124500D01*
X104980323Y-76124500D01*
X104907264Y-76139032D01*
X104907260Y-76139033D01*
X104873890Y-76161331D01*
X104807212Y-76182208D01*
X104739832Y-76163723D01*
X104736110Y-76161331D01*
X104702739Y-76139033D01*
X104702735Y-76139032D01*
X104629677Y-76124500D01*
X104629674Y-76124500D01*
X104180326Y-76124500D01*
X104180323Y-76124500D01*
X104107264Y-76139032D01*
X104107260Y-76139033D01*
X104073890Y-76161331D01*
X104007212Y-76182208D01*
X103939832Y-76163723D01*
X103936110Y-76161331D01*
X103902739Y-76139033D01*
X103902735Y-76139032D01*
X103829677Y-76124500D01*
X103829674Y-76124500D01*
X103380326Y-76124500D01*
X103380323Y-76124500D01*
X103307264Y-76139032D01*
X103307260Y-76139033D01*
X103273890Y-76161331D01*
X103207212Y-76182208D01*
X103139832Y-76163723D01*
X103136110Y-76161331D01*
X103102739Y-76139033D01*
X103102735Y-76139032D01*
X103029677Y-76124500D01*
X103029674Y-76124500D01*
X102580326Y-76124500D01*
X102580323Y-76124500D01*
X102507264Y-76139032D01*
X102507260Y-76139033D01*
X102424399Y-76194399D01*
X102369033Y-76277260D01*
X102369032Y-76277264D01*
X102354500Y-76350321D01*
X102354500Y-77199678D01*
X102369032Y-77272735D01*
X102369033Y-77272739D01*
X102375791Y-77282853D01*
X102424399Y-77355601D01*
X102470307Y-77386275D01*
X102507260Y-77410966D01*
X102507264Y-77410967D01*
X102580321Y-77425499D01*
X102580324Y-77425500D01*
X102580326Y-77425500D01*
X103029676Y-77425500D01*
X103029677Y-77425499D01*
X103102735Y-77410967D01*
X103102737Y-77410967D01*
X103102737Y-77410966D01*
X103102740Y-77410966D01*
X103136112Y-77388667D01*
X103202786Y-77367791D01*
X103270166Y-77386275D01*
X103273829Y-77388628D01*
X103307260Y-77410966D01*
X103307262Y-77410966D01*
X103307263Y-77410967D01*
X103380321Y-77425499D01*
X103380324Y-77425500D01*
X103380326Y-77425500D01*
X103829676Y-77425500D01*
X103829677Y-77425499D01*
X103902735Y-77410967D01*
X103902737Y-77410967D01*
X103902737Y-77410966D01*
X103902740Y-77410966D01*
X103936112Y-77388667D01*
X104002786Y-77367791D01*
X104070166Y-77386275D01*
X104073829Y-77388628D01*
X104107260Y-77410966D01*
X104107262Y-77410966D01*
X104107263Y-77410967D01*
X104180321Y-77425499D01*
X104180324Y-77425500D01*
X104180326Y-77425500D01*
X104629676Y-77425500D01*
X104629677Y-77425499D01*
X104702735Y-77410967D01*
X104702737Y-77410967D01*
X104702737Y-77410966D01*
X104702740Y-77410966D01*
X104736112Y-77388667D01*
X104802786Y-77367791D01*
X104870166Y-77386275D01*
X104873829Y-77388628D01*
X104907260Y-77410966D01*
X104907262Y-77410966D01*
X104907263Y-77410967D01*
X104980321Y-77425499D01*
X104980324Y-77425500D01*
X104980326Y-77425500D01*
X105429676Y-77425500D01*
X105429677Y-77425499D01*
X105502735Y-77410967D01*
X105502737Y-77410967D01*
X105502737Y-77410966D01*
X105502740Y-77410966D01*
X105536112Y-77388667D01*
X105602786Y-77367791D01*
X105670166Y-77386275D01*
X105673829Y-77388628D01*
X105707260Y-77410966D01*
X105707262Y-77410966D01*
X105707263Y-77410967D01*
X105780321Y-77425499D01*
X105780324Y-77425500D01*
X105780326Y-77425500D01*
X106229676Y-77425500D01*
X106229677Y-77425499D01*
X106302735Y-77410967D01*
X106302737Y-77410967D01*
X106302737Y-77410966D01*
X106302740Y-77410966D01*
X106336112Y-77388667D01*
X106402786Y-77367791D01*
X106470166Y-77386275D01*
X106473829Y-77388628D01*
X106507260Y-77410966D01*
X106507262Y-77410966D01*
X106507263Y-77410967D01*
X106580321Y-77425499D01*
X106580324Y-77425500D01*
X106580326Y-77425500D01*
X107029676Y-77425500D01*
X107029677Y-77425499D01*
X107102740Y-77410966D01*
X107122114Y-77398020D01*
X107188790Y-77377142D01*
X107256170Y-77395626D01*
X107302861Y-77447604D01*
X107314039Y-77516574D01*
X107293055Y-77571561D01*
X107224783Y-77670470D01*
X107224780Y-77670476D01*
X107168762Y-77818181D01*
X107149722Y-77974999D01*
X107149722Y-77975000D01*
X107168762Y-78131818D01*
X107223065Y-78275000D01*
X107224780Y-78279523D01*
X107295433Y-78381881D01*
X107314518Y-78409531D01*
X107396527Y-78482185D01*
X107433654Y-78541374D01*
X107432886Y-78611240D01*
X107396527Y-78667815D01*
X107314518Y-78740468D01*
X107224781Y-78870475D01*
X107224780Y-78870476D01*
X107168762Y-79018181D01*
X107149722Y-79174999D01*
X107149722Y-79175000D01*
X107168762Y-79331818D01*
X107196731Y-79405564D01*
X107224780Y-79479523D01*
X107314517Y-79609530D01*
X107432760Y-79714283D01*
X107432762Y-79714284D01*
X107572634Y-79787696D01*
X107726014Y-79825500D01*
X107726015Y-79825500D01*
X107883986Y-79825500D01*
X107893791Y-79823083D01*
X107955564Y-79823705D01*
X108007811Y-79837705D01*
X108007812Y-79837705D01*
X108017903Y-79840408D01*
X108055564Y-79850500D01*
X108055565Y-79850500D01*
X110943153Y-79850500D01*
X111010192Y-79870185D01*
X111055947Y-79922989D01*
X111065891Y-79992147D01*
X111064770Y-79998691D01*
X111054500Y-80050321D01*
X111054500Y-80499678D01*
X111069032Y-80572735D01*
X111069033Y-80572739D01*
X111091331Y-80606110D01*
X111112208Y-80672788D01*
X111093723Y-80740168D01*
X111091331Y-80743890D01*
X111069033Y-80777260D01*
X111069032Y-80777264D01*
X111054500Y-80850321D01*
X111054500Y-81299678D01*
X111069032Y-81372735D01*
X111069033Y-81372739D01*
X111091331Y-81406110D01*
X111112208Y-81472788D01*
X111093723Y-81540168D01*
X111091331Y-81543890D01*
X111069033Y-81577260D01*
X111069032Y-81577264D01*
X111054500Y-81650321D01*
X111054500Y-82099678D01*
X111069032Y-82172735D01*
X111069033Y-82172739D01*
X111091331Y-82206110D01*
X111112208Y-82272788D01*
X111093723Y-82340168D01*
X111091331Y-82343890D01*
X111069033Y-82377260D01*
X111069032Y-82377264D01*
X111054500Y-82450321D01*
X111054500Y-82899678D01*
X111069032Y-82972735D01*
X111069033Y-82972739D01*
X111091331Y-83006110D01*
X111112208Y-83072788D01*
X111093723Y-83140168D01*
X111091331Y-83143890D01*
X111069033Y-83177260D01*
X111069032Y-83177264D01*
X111054500Y-83250321D01*
X111054500Y-83699678D01*
X111069032Y-83772735D01*
X111069033Y-83772739D01*
X111069034Y-83772740D01*
X111091329Y-83806108D01*
X111091331Y-83806110D01*
X111112208Y-83872788D01*
X111093723Y-83940168D01*
X111091337Y-83943879D01*
X111086708Y-83950807D01*
X111069033Y-83977260D01*
X111069032Y-83977264D01*
X111054500Y-84050321D01*
X111054500Y-84499678D01*
X111069032Y-84572735D01*
X111069033Y-84572739D01*
X111069034Y-84572740D01*
X111091329Y-84606108D01*
X111091331Y-84606110D01*
X111112208Y-84672788D01*
X111093723Y-84740168D01*
X111091337Y-84743879D01*
X111089476Y-84746666D01*
X111069033Y-84777260D01*
X111069032Y-84777264D01*
X111054500Y-84850321D01*
X111054500Y-85299678D01*
X111069032Y-85372735D01*
X111069033Y-85372739D01*
X111069034Y-85372740D01*
X111124399Y-85455601D01*
X111207260Y-85510966D01*
X111207264Y-85510967D01*
X111280321Y-85525499D01*
X111280324Y-85525500D01*
X111280326Y-85525500D01*
X112129676Y-85525500D01*
X112129677Y-85525499D01*
X112202740Y-85510966D01*
X112285601Y-85455601D01*
X112340966Y-85372740D01*
X112355500Y-85299674D01*
X112355500Y-84850326D01*
X112355500Y-84850323D01*
X112355499Y-84850321D01*
X112340967Y-84777264D01*
X112340967Y-84777262D01*
X112340966Y-84777260D01*
X112318667Y-84743887D01*
X112297791Y-84677214D01*
X112316275Y-84609834D01*
X112318628Y-84606170D01*
X112340966Y-84572740D01*
X112355500Y-84499674D01*
X112355500Y-84050326D01*
X112355500Y-84050323D01*
X112355499Y-84050321D01*
X112340967Y-83977264D01*
X112340967Y-83977262D01*
X112340966Y-83977260D01*
X112318667Y-83943887D01*
X112297791Y-83877214D01*
X112316275Y-83809834D01*
X112318628Y-83806170D01*
X112340966Y-83772740D01*
X112355500Y-83699674D01*
X112355500Y-83250326D01*
X112355500Y-83250323D01*
X112355499Y-83250321D01*
X112345230Y-83198691D01*
X112351457Y-83129099D01*
X112394320Y-83073922D01*
X112460210Y-83050678D01*
X112466847Y-83050500D01*
X114486847Y-83050500D01*
X114486848Y-83050500D01*
X114534598Y-83037705D01*
X114582350Y-83024910D01*
X114667974Y-82975475D01*
X114737887Y-82905562D01*
X114737886Y-82905562D01*
X114796455Y-82846993D01*
X114796454Y-82846993D01*
X115817820Y-81825627D01*
X115879142Y-81792144D01*
X115948834Y-81797128D01*
X116004767Y-81839000D01*
X116029184Y-81904464D01*
X116029500Y-81913310D01*
X116029500Y-89624435D01*
X116055090Y-89719938D01*
X116055091Y-89719939D01*
X116055091Y-89719940D01*
X116104526Y-89805563D01*
X116943181Y-90644218D01*
X116976666Y-90705541D01*
X116979500Y-90731899D01*
X116979500Y-91774678D01*
X116994032Y-91847735D01*
X116994033Y-91847739D01*
X116994034Y-91847740D01*
X117049399Y-91930601D01*
X117124163Y-91980556D01*
X117132260Y-91985966D01*
X117132264Y-91985967D01*
X117205321Y-92000499D01*
X117205324Y-92000500D01*
X117459563Y-92000500D01*
X117526602Y-92020185D01*
X117572357Y-92072989D01*
X117582301Y-92142147D01*
X117553276Y-92205703D01*
X117509998Y-92237780D01*
X117439702Y-92269076D01*
X117282305Y-92383433D01*
X117282302Y-92383435D01*
X117152129Y-92528009D01*
X117054857Y-92696488D01*
X117054856Y-92696489D01*
X116994738Y-92881516D01*
X116974402Y-93075000D01*
X116994738Y-93268483D01*
X117054856Y-93453510D01*
X117054857Y-93453511D01*
X117100382Y-93532362D01*
X117152130Y-93621992D01*
X117180752Y-93653780D01*
X117282302Y-93766564D01*
X117282305Y-93766566D01*
X117282308Y-93766569D01*
X117377270Y-93835563D01*
X117439702Y-93880923D01*
X117621178Y-93961720D01*
X117674415Y-94006970D01*
X117694737Y-94073819D01*
X117675692Y-94141043D01*
X117623326Y-94187299D01*
X117621178Y-94188280D01*
X117439702Y-94269076D01*
X117282305Y-94383433D01*
X117282302Y-94383435D01*
X117152129Y-94528009D01*
X117054857Y-94696488D01*
X117054856Y-94696489D01*
X116994738Y-94881516D01*
X116974402Y-95075000D01*
X116994738Y-95268483D01*
X117054856Y-95453510D01*
X117054857Y-95453511D01*
X117110854Y-95550500D01*
X117152130Y-95621992D01*
X117184220Y-95657631D01*
X117282302Y-95766564D01*
X117282305Y-95766566D01*
X117282308Y-95766569D01*
X117390257Y-95844999D01*
X117439702Y-95880923D01*
X117503363Y-95909266D01*
X117617429Y-95960051D01*
X117807726Y-96000500D01*
X118002273Y-96000500D01*
X118002274Y-96000500D01*
X118181513Y-95962401D01*
X118251177Y-95967717D01*
X118294973Y-95996010D01*
X118386782Y-96087819D01*
X118420267Y-96149142D01*
X118415283Y-96218834D01*
X118373411Y-96274767D01*
X118307947Y-96299184D01*
X118299101Y-96299500D01*
X110611900Y-96299500D01*
X110544861Y-96279815D01*
X110524219Y-96263181D01*
X108916819Y-94655781D01*
X108883334Y-94594458D01*
X108880500Y-94568100D01*
X108880500Y-93599251D01*
X108900185Y-93532212D01*
X108952989Y-93486457D01*
X109022147Y-93476513D01*
X109045456Y-93482210D01*
X109047114Y-93482790D01*
X109047118Y-93482793D01*
X109175301Y-93527646D01*
X109175300Y-93527646D01*
X109205730Y-93530500D01*
X109205734Y-93530500D01*
X109864270Y-93530500D01*
X109894699Y-93527646D01*
X109894701Y-93527646D01*
X109958790Y-93505219D01*
X110022882Y-93482793D01*
X110132150Y-93402150D01*
X110212793Y-93292882D01*
X110238190Y-93220301D01*
X110257646Y-93164701D01*
X110257646Y-93164699D01*
X110260500Y-93134269D01*
X110260500Y-92625730D01*
X110257646Y-92595300D01*
X110257646Y-92595298D01*
X110212793Y-92467119D01*
X110212792Y-92467117D01*
X110205926Y-92457814D01*
X110132150Y-92357850D01*
X110022882Y-92277207D01*
X110022880Y-92277206D01*
X109894700Y-92232353D01*
X109864270Y-92229500D01*
X109864266Y-92229500D01*
X109205734Y-92229500D01*
X109205730Y-92229500D01*
X109175300Y-92232353D01*
X109175298Y-92232353D01*
X109045455Y-92277789D01*
X108975676Y-92281351D01*
X108915049Y-92246623D01*
X108882821Y-92184630D01*
X108880500Y-92160748D01*
X108880500Y-91949251D01*
X108900185Y-91882212D01*
X108952989Y-91836457D01*
X109022147Y-91826513D01*
X109045456Y-91832210D01*
X109047114Y-91832790D01*
X109047118Y-91832793D01*
X109175301Y-91877646D01*
X109175300Y-91877646D01*
X109205730Y-91880500D01*
X109205734Y-91880500D01*
X109624916Y-91880500D01*
X109686914Y-91897112D01*
X109735063Y-91924911D01*
X109830564Y-91950500D01*
X109830565Y-91950500D01*
X114225500Y-91950500D01*
X114292539Y-91970185D01*
X114338294Y-92022989D01*
X114349500Y-92074500D01*
X114349500Y-92340480D01*
X114349501Y-92340490D01*
X114355587Y-92397114D01*
X114394323Y-92500965D01*
X114403372Y-92525226D01*
X114485313Y-92634687D01*
X114594774Y-92716628D01*
X114645481Y-92735541D01*
X114658835Y-92740522D01*
X114714768Y-92782393D01*
X114739184Y-92847858D01*
X114739500Y-92856703D01*
X114739500Y-93703008D01*
X114719815Y-93770047D01*
X114667011Y-93815802D01*
X114639692Y-93824625D01*
X114567263Y-93839032D01*
X114567260Y-93839033D01*
X114484399Y-93894399D01*
X114429033Y-93977260D01*
X114429032Y-93977264D01*
X114414500Y-94050321D01*
X114414500Y-95799678D01*
X114429032Y-95872735D01*
X114429033Y-95872739D01*
X114436791Y-95884350D01*
X114484399Y-95955601D01*
X114556293Y-96003638D01*
X114567260Y-96010966D01*
X114567264Y-96010967D01*
X114640321Y-96025499D01*
X114640324Y-96025500D01*
X114640326Y-96025500D01*
X115589676Y-96025500D01*
X115589677Y-96025499D01*
X115662740Y-96010966D01*
X115745601Y-95955601D01*
X115800966Y-95872740D01*
X115815500Y-95799674D01*
X115815500Y-94050326D01*
X115815500Y-94050323D01*
X115815499Y-94050321D01*
X115800967Y-93977264D01*
X115800966Y-93977260D01*
X115745601Y-93894399D01*
X115690235Y-93857405D01*
X115662739Y-93839033D01*
X115662736Y-93839032D01*
X115590308Y-93824625D01*
X115528397Y-93792240D01*
X115493823Y-93731523D01*
X115490500Y-93703008D01*
X115490500Y-92825543D01*
X115510185Y-92758504D01*
X115548671Y-92722672D01*
X115548126Y-92721943D01*
X115554909Y-92716865D01*
X115555077Y-92716709D01*
X115555217Y-92716630D01*
X115555226Y-92716628D01*
X115664687Y-92634687D01*
X115746628Y-92525226D01*
X115794412Y-92397114D01*
X115797990Y-92363833D01*
X115800499Y-92340501D01*
X115800499Y-92340490D01*
X115800500Y-92340485D01*
X115800499Y-91799516D01*
X115794412Y-91742886D01*
X115793946Y-91741637D01*
X115775705Y-91692731D01*
X115746628Y-91614774D01*
X115664687Y-91505313D01*
X115598911Y-91456074D01*
X115555228Y-91423373D01*
X115555226Y-91423372D01*
X115427114Y-91375588D01*
X115427112Y-91375587D01*
X115427110Y-91375587D01*
X115370501Y-91369500D01*
X115370485Y-91369500D01*
X115016899Y-91369500D01*
X114949860Y-91349815D01*
X114929218Y-91333181D01*
X114870563Y-91274526D01*
X114870562Y-91274525D01*
X114784938Y-91225090D01*
X114737186Y-91212295D01*
X114737184Y-91212294D01*
X114737182Y-91212293D01*
X114689436Y-91199500D01*
X114689435Y-91199500D01*
X110384500Y-91199500D01*
X110317461Y-91179815D01*
X110271706Y-91127011D01*
X110260500Y-91075500D01*
X110260500Y-90975730D01*
X110257646Y-90945300D01*
X110257646Y-90945298D01*
X110215472Y-90824774D01*
X110212793Y-90817118D01*
X110132150Y-90707850D01*
X110022882Y-90627207D01*
X110022880Y-90627206D01*
X109894700Y-90582353D01*
X109864270Y-90579500D01*
X109864266Y-90579500D01*
X109466899Y-90579500D01*
X109399860Y-90559815D01*
X109379218Y-90543181D01*
X108816819Y-89980782D01*
X108783334Y-89919459D01*
X108780500Y-89893101D01*
X108780500Y-89336846D01*
X108800185Y-89269807D01*
X108852989Y-89224052D01*
X108922147Y-89214108D01*
X108928679Y-89215226D01*
X108959996Y-89221456D01*
X108980325Y-89225500D01*
X108980326Y-89225500D01*
X109429676Y-89225500D01*
X109429677Y-89225499D01*
X109502735Y-89210967D01*
X109502737Y-89210967D01*
X109502737Y-89210966D01*
X109502740Y-89210966D01*
X109536112Y-89188667D01*
X109602786Y-89167791D01*
X109670166Y-89186275D01*
X109673829Y-89188628D01*
X109707260Y-89210966D01*
X109707262Y-89210966D01*
X109707263Y-89210967D01*
X109780321Y-89225499D01*
X109780324Y-89225500D01*
X109780326Y-89225500D01*
X110229676Y-89225500D01*
X110229677Y-89225499D01*
X110302740Y-89210966D01*
X110385601Y-89155601D01*
X110440966Y-89072740D01*
X110455500Y-88999674D01*
X110455500Y-88150326D01*
X110455500Y-88150323D01*
X110455499Y-88150321D01*
X110440967Y-88077264D01*
X110440966Y-88077260D01*
X110423086Y-88050500D01*
X110385601Y-87994399D01*
X110302740Y-87939034D01*
X110302739Y-87939033D01*
X110302735Y-87939032D01*
X110229677Y-87924500D01*
X110229674Y-87924500D01*
X109780326Y-87924500D01*
X109780323Y-87924500D01*
X109707264Y-87939032D01*
X109707260Y-87939033D01*
X109673890Y-87961331D01*
X109607212Y-87982208D01*
X109539832Y-87963723D01*
X109536110Y-87961331D01*
X109502739Y-87939033D01*
X109502735Y-87939032D01*
X109429677Y-87924500D01*
X109429674Y-87924500D01*
X108980326Y-87924500D01*
X108980323Y-87924500D01*
X108907264Y-87939032D01*
X108907260Y-87939033D01*
X108873890Y-87961331D01*
X108807212Y-87982208D01*
X108739832Y-87963723D01*
X108736110Y-87961331D01*
X108702739Y-87939033D01*
X108702735Y-87939032D01*
X108629677Y-87924500D01*
X108629674Y-87924500D01*
X108180326Y-87924500D01*
X108180323Y-87924500D01*
X108107264Y-87939032D01*
X108107260Y-87939033D01*
X108073890Y-87961331D01*
X108007212Y-87982208D01*
X107939832Y-87963723D01*
X107936110Y-87961331D01*
X107902739Y-87939033D01*
X107902735Y-87939032D01*
X107829677Y-87924500D01*
X107829674Y-87924500D01*
X107380326Y-87924500D01*
X107380323Y-87924500D01*
X107307264Y-87939032D01*
X107307260Y-87939033D01*
X107273890Y-87961331D01*
X107207212Y-87982208D01*
X107139832Y-87963723D01*
X107136110Y-87961331D01*
X107102739Y-87939033D01*
X107102735Y-87939032D01*
X107029677Y-87924500D01*
X107029674Y-87924500D01*
X106580326Y-87924500D01*
X106580323Y-87924500D01*
X106507264Y-87939032D01*
X106507260Y-87939033D01*
X106473890Y-87961331D01*
X106407212Y-87982208D01*
X106339832Y-87963723D01*
X106336110Y-87961331D01*
X106302739Y-87939033D01*
X106302735Y-87939032D01*
X106229677Y-87924500D01*
X106229674Y-87924500D01*
X105780326Y-87924500D01*
X105780323Y-87924500D01*
X105707264Y-87939032D01*
X105707260Y-87939033D01*
X105673890Y-87961331D01*
X105607212Y-87982208D01*
X105539832Y-87963723D01*
X105536110Y-87961331D01*
X105502739Y-87939033D01*
X105502735Y-87939032D01*
X105429677Y-87924500D01*
X105429674Y-87924500D01*
X104980326Y-87924500D01*
X104980323Y-87924500D01*
X104907264Y-87939032D01*
X104907260Y-87939033D01*
X104873890Y-87961331D01*
X104807212Y-87982208D01*
X104739832Y-87963723D01*
X104736110Y-87961331D01*
X104702739Y-87939033D01*
X104702735Y-87939032D01*
X104629677Y-87924500D01*
X104629674Y-87924500D01*
X104180326Y-87924500D01*
X104180323Y-87924500D01*
X104107264Y-87939032D01*
X104107260Y-87939033D01*
X104024399Y-87994399D01*
X103969033Y-88077260D01*
X103969032Y-88077264D01*
X103954500Y-88150321D01*
X103954500Y-88321062D01*
X103940383Y-88373751D01*
X103941719Y-88374304D01*
X103938608Y-88381814D01*
X103904500Y-88509108D01*
X103904500Y-90461237D01*
X103884815Y-90528276D01*
X103832011Y-90574031D01*
X103767246Y-90584527D01*
X103720486Y-90579500D01*
X103129518Y-90579500D01*
X103129509Y-90579501D01*
X103072885Y-90585587D01*
X102944773Y-90633372D01*
X102835313Y-90715313D01*
X102753373Y-90824771D01*
X102753372Y-90824774D01*
X102708418Y-90945300D01*
X102705587Y-90952889D01*
X102699500Y-91009498D01*
X102699500Y-91550481D01*
X102699501Y-91550490D01*
X102705587Y-91607114D01*
X102745520Y-91714174D01*
X102753372Y-91735226D01*
X102835313Y-91844687D01*
X102944774Y-91926628D01*
X103072886Y-91974412D01*
X103129515Y-91980500D01*
X103720484Y-91980499D01*
X103777114Y-91974412D01*
X103905226Y-91926628D01*
X103905229Y-91926626D01*
X104014681Y-91844692D01*
X104014683Y-91844689D01*
X104014687Y-91844687D01*
X104025541Y-91830188D01*
X104081476Y-91788317D01*
X104124807Y-91780500D01*
X104339108Y-91780500D01*
X104470892Y-91780500D01*
X104685193Y-91780500D01*
X104752232Y-91800185D01*
X104784459Y-91830188D01*
X104795312Y-91844686D01*
X104795318Y-91844692D01*
X104904769Y-91926625D01*
X104904770Y-91926625D01*
X104904774Y-91926628D01*
X105032886Y-91974412D01*
X105089515Y-91980500D01*
X105680484Y-91980499D01*
X105737114Y-91974412D01*
X105865226Y-91926628D01*
X105974687Y-91844687D01*
X106056628Y-91735226D01*
X106104412Y-91607114D01*
X106106687Y-91585944D01*
X106110499Y-91550501D01*
X106110499Y-91550490D01*
X106110500Y-91550485D01*
X106110499Y-91009516D01*
X106104412Y-90952886D01*
X106056628Y-90824774D01*
X105974687Y-90715313D01*
X105879715Y-90644218D01*
X105865228Y-90633373D01*
X105865226Y-90633372D01*
X105737114Y-90585588D01*
X105737112Y-90585587D01*
X105737110Y-90585587D01*
X105680493Y-90579500D01*
X105089518Y-90579500D01*
X105089507Y-90579501D01*
X105042751Y-90584527D01*
X104973992Y-90572119D01*
X104922856Y-90524507D01*
X104905500Y-90461237D01*
X104905500Y-89349500D01*
X104925185Y-89282461D01*
X104977989Y-89236706D01*
X105029500Y-89225500D01*
X105429675Y-89225500D01*
X105450004Y-89221456D01*
X105481308Y-89215229D01*
X105550899Y-89221456D01*
X105606077Y-89264318D01*
X105629322Y-89330207D01*
X105629500Y-89336846D01*
X105629500Y-89750564D01*
X105629500Y-89849436D01*
X105636477Y-89875474D01*
X105655091Y-89944941D01*
X105660935Y-89955063D01*
X105660937Y-89955065D01*
X105704526Y-90030563D01*
X105704528Y-90030565D01*
X106673181Y-90999218D01*
X106706666Y-91060541D01*
X106709500Y-91086899D01*
X106709500Y-91373100D01*
X106689815Y-91440139D01*
X106673181Y-91460781D01*
X106404438Y-91729525D01*
X106334527Y-91799435D01*
X106334525Y-91799437D01*
X106334525Y-91799438D01*
X106326307Y-91813672D01*
X106285090Y-91885060D01*
X106281861Y-91897113D01*
X106273952Y-91926628D01*
X106273951Y-91926629D01*
X106259624Y-91980101D01*
X106259500Y-91980556D01*
X106259500Y-93654435D01*
X106262570Y-93665891D01*
X106262571Y-93665895D01*
X106285090Y-93749939D01*
X106285091Y-93749940D01*
X106328427Y-93825000D01*
X106334523Y-93835559D01*
X106334528Y-93835565D01*
X109561781Y-97062819D01*
X109595266Y-97124142D01*
X109590282Y-97193834D01*
X109548410Y-97249767D01*
X109482946Y-97274184D01*
X109474100Y-97274500D01*
X99807706Y-97274500D01*
X99802297Y-97274382D01*
X99400818Y-97256853D01*
X99390042Y-97255910D01*
X98994314Y-97203811D01*
X98983660Y-97201933D01*
X98593960Y-97115538D01*
X98583512Y-97112738D01*
X98202840Y-96992713D01*
X98192674Y-96989013D01*
X97823903Y-96836263D01*
X97814099Y-96831691D01*
X97460057Y-96647388D01*
X97450689Y-96641980D01*
X97114040Y-96427511D01*
X97105179Y-96421306D01*
X96788512Y-96178319D01*
X96780225Y-96171365D01*
X96485943Y-95901705D01*
X96478294Y-95894056D01*
X96208634Y-95599774D01*
X96201680Y-95591487D01*
X95958693Y-95274820D01*
X95952488Y-95265959D01*
X95738019Y-94929310D01*
X95732611Y-94919942D01*
X95715996Y-94888024D01*
X95548305Y-94565893D01*
X95543736Y-94556096D01*
X95532102Y-94528008D01*
X95390982Y-94187315D01*
X95387286Y-94177159D01*
X95387283Y-94177150D01*
X95267260Y-93796483D01*
X95264461Y-93786039D01*
X95260144Y-93766566D01*
X95178064Y-93396331D01*
X95176188Y-93385685D01*
X95124087Y-92989937D01*
X95123147Y-92979202D01*
X95105618Y-92577702D01*
X95105559Y-92575000D01*
X97499564Y-92575000D01*
X97518027Y-92856703D01*
X97519287Y-92875918D01*
X97519288Y-92875930D01*
X97578118Y-93171683D01*
X97578122Y-93171698D01*
X97675053Y-93457247D01*
X97675062Y-93457268D01*
X97808431Y-93727713D01*
X97808435Y-93727720D01*
X97975973Y-93978459D01*
X98174810Y-94205189D01*
X98401540Y-94404026D01*
X98652279Y-94571564D01*
X98652286Y-94571568D01*
X98922731Y-94704937D01*
X98922736Y-94704939D01*
X98922748Y-94704945D01*
X99208309Y-94801880D01*
X99408251Y-94841651D01*
X99504069Y-94860711D01*
X99504070Y-94860711D01*
X99504080Y-94860713D01*
X99805000Y-94880436D01*
X100105920Y-94860713D01*
X100401691Y-94801880D01*
X100687252Y-94704945D01*
X100957718Y-94571566D01*
X101208461Y-94404025D01*
X101435189Y-94205189D01*
X101634025Y-93978461D01*
X101801566Y-93727718D01*
X101934945Y-93457252D01*
X102031880Y-93171691D01*
X102090713Y-92875920D01*
X102110436Y-92575000D01*
X102090713Y-92274080D01*
X102085251Y-92246623D01*
X102069410Y-92166982D01*
X102031880Y-91978309D01*
X101934945Y-91692748D01*
X101933705Y-91690234D01*
X101801568Y-91422286D01*
X101801564Y-91422279D01*
X101634026Y-91171540D01*
X101435189Y-90944810D01*
X101208459Y-90745973D01*
X100957720Y-90578435D01*
X100957713Y-90578431D01*
X100687268Y-90445062D01*
X100687247Y-90445053D01*
X100401698Y-90348122D01*
X100401692Y-90348120D01*
X100401691Y-90348120D01*
X100401689Y-90348119D01*
X100401683Y-90348118D01*
X100105930Y-90289288D01*
X100105921Y-90289287D01*
X100105920Y-90289287D01*
X99805000Y-90269564D01*
X99504080Y-90289287D01*
X99504079Y-90289287D01*
X99504069Y-90289288D01*
X99208316Y-90348118D01*
X99208301Y-90348122D01*
X98922752Y-90445053D01*
X98922731Y-90445062D01*
X98652286Y-90578431D01*
X98652279Y-90578435D01*
X98401540Y-90745973D01*
X98174810Y-90944810D01*
X97975973Y-91171540D01*
X97808435Y-91422279D01*
X97808431Y-91422286D01*
X97675062Y-91692731D01*
X97675053Y-91692752D01*
X97578122Y-91978301D01*
X97578118Y-91978316D01*
X97519288Y-92274069D01*
X97519287Y-92274079D01*
X97519287Y-92274080D01*
X97499564Y-92575000D01*
X95105559Y-92575000D01*
X95105500Y-92572293D01*
X95105500Y-89699500D01*
X95125185Y-89632461D01*
X95177989Y-89586706D01*
X95229500Y-89575500D01*
X100872658Y-89575500D01*
X100872660Y-89575500D01*
X100872662Y-89575499D01*
X100872666Y-89575499D01*
X101004580Y-89545391D01*
X101004581Y-89545390D01*
X101004588Y-89545389D01*
X101126507Y-89486675D01*
X101232305Y-89402305D01*
X101316675Y-89296507D01*
X101375389Y-89174588D01*
X101375391Y-89174580D01*
X101405499Y-89042666D01*
X101405500Y-89042658D01*
X101405500Y-86450321D01*
X111054500Y-86450321D01*
X111054500Y-86899678D01*
X111069032Y-86972735D01*
X111069033Y-86972739D01*
X111070543Y-86974999D01*
X111086913Y-86999499D01*
X111091331Y-87006110D01*
X111112208Y-87072788D01*
X111093723Y-87140168D01*
X111091337Y-87143879D01*
X111090137Y-87145677D01*
X111069033Y-87177260D01*
X111069032Y-87177264D01*
X111054500Y-87250321D01*
X111054500Y-87699678D01*
X111069032Y-87772735D01*
X111069033Y-87772739D01*
X111069034Y-87772740D01*
X111124399Y-87855601D01*
X111207260Y-87910966D01*
X111207264Y-87910967D01*
X111280321Y-87925499D01*
X111280324Y-87925500D01*
X111280326Y-87925500D01*
X112129676Y-87925500D01*
X112129677Y-87925499D01*
X112202740Y-87910966D01*
X112261960Y-87871396D01*
X112328638Y-87850520D01*
X112330850Y-87850500D01*
X112390257Y-87850500D01*
X112457296Y-87870185D01*
X112503051Y-87922989D01*
X112506195Y-87930518D01*
X112509425Y-87939034D01*
X112524781Y-87979525D01*
X112551464Y-88018182D01*
X112614517Y-88109530D01*
X112732760Y-88214283D01*
X112732762Y-88214284D01*
X112872634Y-88287696D01*
X113026014Y-88325500D01*
X113026015Y-88325500D01*
X113183985Y-88325500D01*
X113337365Y-88287696D01*
X113407789Y-88250734D01*
X113477240Y-88214283D01*
X113595483Y-88109530D01*
X113685220Y-87979523D01*
X113741237Y-87831818D01*
X113760278Y-87675000D01*
X113741237Y-87518182D01*
X113739758Y-87514283D01*
X113700031Y-87409531D01*
X113685220Y-87370477D01*
X113595483Y-87240470D01*
X113513471Y-87167814D01*
X113476346Y-87108627D01*
X113477113Y-87038761D01*
X113513471Y-86982185D01*
X113595483Y-86909530D01*
X113685220Y-86779523D01*
X113741237Y-86631818D01*
X113760278Y-86475000D01*
X113757282Y-86450321D01*
X113741237Y-86318181D01*
X113705708Y-86224500D01*
X113685220Y-86170477D01*
X113595483Y-86040470D01*
X113477240Y-85935717D01*
X113477238Y-85935716D01*
X113477237Y-85935715D01*
X113337365Y-85862303D01*
X113183986Y-85824500D01*
X113183985Y-85824500D01*
X113026015Y-85824500D01*
X113026014Y-85824500D01*
X112872634Y-85862303D01*
X112732762Y-85935715D01*
X112614516Y-86040471D01*
X112524781Y-86170474D01*
X112524780Y-86170477D01*
X112509163Y-86211657D01*
X112506199Y-86219472D01*
X112464021Y-86275174D01*
X112398423Y-86299231D01*
X112390257Y-86299500D01*
X112330850Y-86299500D01*
X112263811Y-86279815D01*
X112261960Y-86278603D01*
X112202739Y-86239033D01*
X112202735Y-86239032D01*
X112129677Y-86224500D01*
X112129674Y-86224500D01*
X111280326Y-86224500D01*
X111280323Y-86224500D01*
X111207264Y-86239032D01*
X111207260Y-86239033D01*
X111124399Y-86294399D01*
X111069033Y-86377260D01*
X111069032Y-86377264D01*
X111054500Y-86450321D01*
X101405500Y-86450321D01*
X101405500Y-76307341D01*
X101405499Y-76307333D01*
X101375391Y-76175419D01*
X101375389Y-76175416D01*
X101375389Y-76175412D01*
X101316675Y-76053493D01*
X101260340Y-75982850D01*
X101232305Y-75947694D01*
X101134221Y-75869477D01*
X101126507Y-75863325D01*
X101126505Y-75863324D01*
X101126504Y-75863323D01*
X101004588Y-75804611D01*
X101004580Y-75804608D01*
X100872666Y-75774500D01*
X100872660Y-75774500D01*
X100844562Y-75774500D01*
X95229500Y-75774500D01*
X95162461Y-75754815D01*
X95116706Y-75702011D01*
X95105500Y-75650500D01*
X95105500Y-68635000D01*
X98409706Y-68635000D01*
X98428853Y-68878297D01*
X98428853Y-68878300D01*
X98428854Y-68878302D01*
X98480187Y-69092118D01*
X98485830Y-69115619D01*
X98579222Y-69341089D01*
X98706737Y-69549173D01*
X98706738Y-69549176D01*
X98760449Y-69612063D01*
X98865241Y-69734759D01*
X98956062Y-69812327D01*
X99050823Y-69893261D01*
X99050826Y-69893262D01*
X99258910Y-70020777D01*
X99484381Y-70114169D01*
X99484378Y-70114169D01*
X99484384Y-70114170D01*
X99484388Y-70114172D01*
X99721698Y-70171146D01*
X99965000Y-70190294D01*
X100208302Y-70171146D01*
X100445612Y-70114172D01*
X100671089Y-70020777D01*
X100879179Y-69893259D01*
X101064759Y-69734759D01*
X101223259Y-69549179D01*
X101350777Y-69341089D01*
X101444172Y-69115612D01*
X101501146Y-68878302D01*
X101520294Y-68635000D01*
X101501146Y-68391698D01*
X101444172Y-68154388D01*
X101444169Y-68154380D01*
X101350777Y-67928910D01*
X101223262Y-67720826D01*
X101223261Y-67720823D01*
X101129982Y-67611608D01*
X101064759Y-67535241D01*
X100942063Y-67430449D01*
X100879176Y-67376738D01*
X100879173Y-67376737D01*
X100671089Y-67249222D01*
X100445618Y-67155830D01*
X100445621Y-67155830D01*
X100278594Y-67115730D01*
X100208302Y-67098854D01*
X100208300Y-67098853D01*
X100208297Y-67098853D01*
X99965000Y-67079706D01*
X99721702Y-67098853D01*
X99721698Y-67098854D01*
X99506581Y-67150500D01*
X99484380Y-67155830D01*
X99258910Y-67249222D01*
X99050826Y-67376737D01*
X99050823Y-67376738D01*
X98865241Y-67535241D01*
X98706738Y-67720823D01*
X98706737Y-67720826D01*
X98579222Y-67928910D01*
X98485830Y-68154380D01*
X98485828Y-68154387D01*
X98485828Y-68154388D01*
X98466216Y-68236078D01*
X98428853Y-68391702D01*
X98409706Y-68635000D01*
X95105500Y-68635000D01*
X95105500Y-57577706D01*
X95105559Y-57575000D01*
X97499564Y-57575000D01*
X97519287Y-57875918D01*
X97519288Y-57875930D01*
X97578118Y-58171683D01*
X97578122Y-58171698D01*
X97675053Y-58457247D01*
X97675062Y-58457268D01*
X97808431Y-58727713D01*
X97808435Y-58727720D01*
X97975973Y-58978459D01*
X98174810Y-59205189D01*
X98401540Y-59404026D01*
X98652279Y-59571564D01*
X98652286Y-59571568D01*
X98922731Y-59704937D01*
X98922736Y-59704939D01*
X98922748Y-59704945D01*
X99208309Y-59801880D01*
X99408251Y-59841651D01*
X99504069Y-59860711D01*
X99504070Y-59860711D01*
X99504080Y-59860713D01*
X99805000Y-59880436D01*
X100105920Y-59860713D01*
X100401691Y-59801880D01*
X100687252Y-59704945D01*
X100957718Y-59571566D01*
X101208461Y-59404025D01*
X101435189Y-59205189D01*
X101634025Y-58978461D01*
X101801566Y-58727718D01*
X101934945Y-58457252D01*
X102031880Y-58171691D01*
X102090713Y-57875920D01*
X102099949Y-57735000D01*
X107309706Y-57735000D01*
X107328853Y-57978297D01*
X107328853Y-57978300D01*
X107328854Y-57978302D01*
X107375283Y-58171691D01*
X107385830Y-58215619D01*
X107479222Y-58441089D01*
X107606737Y-58649173D01*
X107606738Y-58649176D01*
X107606741Y-58649179D01*
X107765241Y-58834759D01*
X107845988Y-58903723D01*
X107950823Y-58993261D01*
X107950826Y-58993262D01*
X108158910Y-59120777D01*
X108384381Y-59214169D01*
X108384378Y-59214169D01*
X108384384Y-59214170D01*
X108384388Y-59214172D01*
X108621698Y-59271146D01*
X108865000Y-59290294D01*
X109108302Y-59271146D01*
X109345612Y-59214172D01*
X109571089Y-59120777D01*
X109779179Y-58993259D01*
X109964759Y-58834759D01*
X110080710Y-58698998D01*
X118299500Y-58698998D01*
X118299500Y-63451002D01*
X118305338Y-63505312D01*
X118316543Y-63556818D01*
X118316546Y-63556827D01*
X118323779Y-63583192D01*
X118323783Y-63583203D01*
X118373105Y-63669818D01*
X118373110Y-63669825D01*
X118373112Y-63669828D01*
X118399580Y-63700374D01*
X118418863Y-63722628D01*
X118418866Y-63722631D01*
X118418867Y-63722632D01*
X118451641Y-63754257D01*
X118539976Y-63800465D01*
X118539977Y-63800465D01*
X118539977Y-63800466D01*
X118584218Y-63813456D01*
X118607015Y-63820150D01*
X118607019Y-63820150D01*
X118607021Y-63820151D01*
X118618652Y-63821823D01*
X118679000Y-63830500D01*
X118679001Y-63830500D01*
X121181000Y-63830500D01*
X121235313Y-63824661D01*
X121286824Y-63813455D01*
X121313198Y-63806219D01*
X121342074Y-63789775D01*
X121399818Y-63756894D01*
X121399819Y-63756892D01*
X121399828Y-63756888D01*
X121452632Y-63711133D01*
X121484257Y-63678359D01*
X121530465Y-63590024D01*
X121532470Y-63583198D01*
X121534878Y-63574997D01*
X135549723Y-63574997D01*
X135549723Y-63575002D01*
X135551037Y-63590022D01*
X135565405Y-63754256D01*
X135568793Y-63792975D01*
X135568793Y-63792979D01*
X135625422Y-64004322D01*
X135625424Y-64004326D01*
X135625425Y-64004330D01*
X135636485Y-64028048D01*
X135717897Y-64202638D01*
X135717898Y-64202639D01*
X135843402Y-64381877D01*
X135998123Y-64536598D01*
X136177361Y-64662102D01*
X136375670Y-64754575D01*
X136587023Y-64811207D01*
X136769926Y-64827208D01*
X136804998Y-64830277D01*
X136805000Y-64830277D01*
X136805002Y-64830277D01*
X136833254Y-64827805D01*
X137022977Y-64811207D01*
X137234330Y-64754575D01*
X137432639Y-64662102D01*
X137611877Y-64536598D01*
X137766598Y-64381877D01*
X137892102Y-64202639D01*
X137984575Y-64004330D01*
X138041207Y-63792977D01*
X138060277Y-63575000D01*
X138041207Y-63357023D01*
X138019148Y-63274697D01*
X138008938Y-63236593D01*
X138010601Y-63166743D01*
X138049764Y-63108881D01*
X138113992Y-63081377D01*
X138128713Y-63080500D01*
X139168921Y-63080500D01*
X139235960Y-63100185D01*
X139268690Y-63130865D01*
X139279615Y-63145668D01*
X139302848Y-63177148D01*
X139302850Y-63177150D01*
X139412118Y-63257793D01*
X139443626Y-63268818D01*
X139540299Y-63302646D01*
X139570730Y-63305500D01*
X139570734Y-63305500D01*
X140079270Y-63305500D01*
X140109699Y-63302646D01*
X140109701Y-63302646D01*
X140173790Y-63280219D01*
X140237882Y-63257793D01*
X140347150Y-63177150D01*
X140427793Y-63067882D01*
X140450219Y-63003790D01*
X140472646Y-62939701D01*
X140472646Y-62939699D01*
X140475500Y-62909269D01*
X140475500Y-62250730D01*
X140824500Y-62250730D01*
X140824500Y-62909269D01*
X140827353Y-62939699D01*
X140827353Y-62939701D01*
X140872206Y-63067880D01*
X140872209Y-63067886D01*
X140950270Y-63173655D01*
X140974241Y-63239284D01*
X140974500Y-63247288D01*
X140974500Y-63912711D01*
X140954815Y-63979750D01*
X140950271Y-63986344D01*
X140872207Y-64092118D01*
X140872206Y-64092119D01*
X140827353Y-64220298D01*
X140827353Y-64220300D01*
X140824500Y-64250730D01*
X140824500Y-64909269D01*
X140827353Y-64939699D01*
X140827353Y-64939701D01*
X140872206Y-65067880D01*
X140872207Y-65067882D01*
X140952850Y-65177150D01*
X141062118Y-65257793D01*
X141104845Y-65272744D01*
X141190299Y-65302646D01*
X141220730Y-65305500D01*
X141220734Y-65305500D01*
X141729270Y-65305500D01*
X141759699Y-65302646D01*
X141759701Y-65302646D01*
X141823790Y-65280219D01*
X141887882Y-65257793D01*
X141997150Y-65177150D01*
X142077793Y-65067882D01*
X142100219Y-65003790D01*
X142122646Y-64939701D01*
X142122646Y-64939699D01*
X142125500Y-64909269D01*
X142125500Y-64250730D01*
X142122646Y-64220300D01*
X142122646Y-64220298D01*
X142080726Y-64100500D01*
X142077793Y-64092118D01*
X141999729Y-63986344D01*
X141975759Y-63920715D01*
X141975500Y-63912711D01*
X141975500Y-63247288D01*
X141995185Y-63180249D01*
X141999729Y-63173655D01*
X142016548Y-63150865D01*
X142072194Y-63108616D01*
X142116318Y-63100500D01*
X142800948Y-63100500D01*
X142857242Y-63114015D01*
X142899698Y-63135647D01*
X142993475Y-63150499D01*
X142993481Y-63150500D01*
X144231518Y-63150499D01*
X144325304Y-63135646D01*
X144339273Y-63128528D01*
X144407938Y-63115632D01*
X144472679Y-63141907D01*
X144512937Y-63199012D01*
X144515768Y-63265039D01*
X144515880Y-63265057D01*
X144515793Y-63265605D01*
X144515931Y-63268818D01*
X144514481Y-63273888D01*
X144499500Y-63368475D01*
X144499500Y-63731517D01*
X144509234Y-63792975D01*
X144514354Y-63825304D01*
X144571950Y-63938342D01*
X144571952Y-63938344D01*
X144571954Y-63938347D01*
X144661652Y-64028045D01*
X144661654Y-64028046D01*
X144661658Y-64028050D01*
X144774696Y-64085646D01*
X144774698Y-64085647D01*
X144868475Y-64100499D01*
X144868481Y-64100500D01*
X145278823Y-64100499D01*
X145345862Y-64120183D01*
X145366504Y-64136818D01*
X151067505Y-69837819D01*
X151100990Y-69899142D01*
X151096006Y-69968834D01*
X151054134Y-70024767D01*
X150988670Y-70049184D01*
X150979824Y-70049500D01*
X146299052Y-70049500D01*
X146242758Y-70035985D01*
X146200301Y-70014352D01*
X146106524Y-69999500D01*
X144868482Y-69999500D01*
X144774696Y-70014354D01*
X144760724Y-70021473D01*
X144692055Y-70034367D01*
X144627315Y-70008088D01*
X144587060Y-69950981D01*
X144584232Y-69884960D01*
X144584120Y-69884943D01*
X144584207Y-69884389D01*
X144584070Y-69881175D01*
X144585519Y-69876105D01*
X144591583Y-69837819D01*
X144600500Y-69781519D01*
X144600499Y-69418482D01*
X144585646Y-69324696D01*
X144528050Y-69211658D01*
X144528046Y-69211654D01*
X144528045Y-69211652D01*
X144438347Y-69121954D01*
X144438344Y-69121952D01*
X144438342Y-69121950D01*
X144355030Y-69079500D01*
X144325301Y-69064352D01*
X144231524Y-69049500D01*
X142993482Y-69049500D01*
X142899694Y-69064354D01*
X142857243Y-69085985D01*
X142800948Y-69099500D01*
X142145840Y-69099500D01*
X142078801Y-69079815D01*
X142046070Y-69049134D01*
X142027889Y-69024500D01*
X141997150Y-68982850D01*
X141887882Y-68902207D01*
X141887880Y-68902206D01*
X141759700Y-68857353D01*
X141729270Y-68854500D01*
X141729266Y-68854500D01*
X141220734Y-68854500D01*
X141220730Y-68854500D01*
X141190300Y-68857353D01*
X141190298Y-68857353D01*
X141062119Y-68902206D01*
X141062117Y-68902207D01*
X140952850Y-68982850D01*
X140872207Y-69092117D01*
X140872206Y-69092119D01*
X140827353Y-69220298D01*
X140827353Y-69220300D01*
X140824500Y-69250730D01*
X140824500Y-69909269D01*
X140827353Y-69939699D01*
X140827353Y-69939701D01*
X140872206Y-70067880D01*
X140872209Y-70067886D01*
X140950270Y-70173655D01*
X140974241Y-70239284D01*
X140974500Y-70247288D01*
X140974500Y-70912711D01*
X140954815Y-70979750D01*
X140950271Y-70986344D01*
X140872207Y-71092118D01*
X140872206Y-71092119D01*
X140827353Y-71220298D01*
X140827353Y-71220300D01*
X140824500Y-71250730D01*
X140824500Y-71909269D01*
X140827353Y-71939699D01*
X140827353Y-71939701D01*
X140868633Y-72057669D01*
X140872207Y-72067882D01*
X140952850Y-72177150D01*
X141062118Y-72257793D01*
X141067897Y-72259815D01*
X141190299Y-72302646D01*
X141220730Y-72305500D01*
X141220734Y-72305500D01*
X141729270Y-72305500D01*
X141759699Y-72302646D01*
X141759701Y-72302646D01*
X141825847Y-72279500D01*
X141887882Y-72257793D01*
X141997150Y-72177150D01*
X142077793Y-72067882D01*
X142106343Y-71986291D01*
X142122646Y-71939701D01*
X142122646Y-71939699D01*
X142125500Y-71909269D01*
X142125500Y-71250730D01*
X142122646Y-71220300D01*
X142122646Y-71220298D01*
X142080726Y-71100500D01*
X142077793Y-71092118D01*
X141999729Y-70986344D01*
X141975759Y-70920715D01*
X141975500Y-70912711D01*
X141975500Y-70247288D01*
X141995185Y-70180249D01*
X141999729Y-70173655D01*
X142001581Y-70171146D01*
X142016548Y-70150865D01*
X142072194Y-70108616D01*
X142116318Y-70100500D01*
X142800948Y-70100500D01*
X142857242Y-70114015D01*
X142899698Y-70135647D01*
X142993475Y-70150499D01*
X142993481Y-70150500D01*
X144231518Y-70150499D01*
X144325304Y-70135646D01*
X144339273Y-70128528D01*
X144407938Y-70115632D01*
X144472679Y-70141907D01*
X144512937Y-70199012D01*
X144515768Y-70265039D01*
X144515880Y-70265057D01*
X144515793Y-70265605D01*
X144515931Y-70268818D01*
X144514481Y-70273888D01*
X144499500Y-70368475D01*
X144499500Y-70731517D01*
X144509234Y-70792975D01*
X144514354Y-70825304D01*
X144571950Y-70938342D01*
X144571952Y-70938344D01*
X144571954Y-70938347D01*
X144661652Y-71028045D01*
X144661654Y-71028046D01*
X144661658Y-71028050D01*
X144774694Y-71085645D01*
X144774698Y-71085647D01*
X144868475Y-71100499D01*
X144868481Y-71100500D01*
X146106518Y-71100499D01*
X146200304Y-71085646D01*
X146242757Y-71064014D01*
X146299052Y-71050500D01*
X150771336Y-71050500D01*
X150838375Y-71070185D01*
X150859017Y-71086819D01*
X151242383Y-71470185D01*
X151624886Y-71852687D01*
X151658371Y-71914010D01*
X151658822Y-71964557D01*
X151656647Y-71975500D01*
X151654499Y-71986297D01*
X151654499Y-72163682D01*
X151689102Y-72337645D01*
X151689105Y-72337654D01*
X151756982Y-72501527D01*
X151756989Y-72501540D01*
X151855534Y-72649021D01*
X151855537Y-72649025D01*
X151980960Y-72774448D01*
X151980964Y-72774451D01*
X152128445Y-72872996D01*
X152128458Y-72873003D01*
X152251362Y-72923910D01*
X152292333Y-72940881D01*
X152312776Y-72944947D01*
X152355112Y-72953369D01*
X152417022Y-72985754D01*
X152451597Y-73046470D01*
X152447857Y-73116239D01*
X152406990Y-73172911D01*
X152355112Y-73196603D01*
X152292339Y-73209089D01*
X152292331Y-73209091D01*
X152128458Y-73276968D01*
X152128445Y-73276975D01*
X151980964Y-73375520D01*
X151980960Y-73375523D01*
X151855537Y-73500946D01*
X151855534Y-73500950D01*
X151756989Y-73648431D01*
X151756982Y-73648444D01*
X151689105Y-73812317D01*
X151689102Y-73812326D01*
X151654499Y-73986289D01*
X151654499Y-73986294D01*
X151654499Y-74163676D01*
X151654499Y-74163677D01*
X151654498Y-74163677D01*
X151658822Y-74185414D01*
X151652592Y-74255006D01*
X151624885Y-74297283D01*
X148908989Y-77013181D01*
X148847666Y-77046666D01*
X148821308Y-77049500D01*
X146299052Y-77049500D01*
X146242758Y-77035985D01*
X146200301Y-77014352D01*
X146106524Y-76999500D01*
X144868482Y-76999500D01*
X144774696Y-77014354D01*
X144760724Y-77021473D01*
X144692055Y-77034367D01*
X144627315Y-77008088D01*
X144587060Y-76950981D01*
X144584232Y-76884960D01*
X144584120Y-76884943D01*
X144584207Y-76884389D01*
X144584070Y-76881175D01*
X144585519Y-76876105D01*
X144585646Y-76875304D01*
X144600500Y-76781519D01*
X144600499Y-76418482D01*
X144585646Y-76324696D01*
X144528050Y-76211658D01*
X144528046Y-76211654D01*
X144528045Y-76211652D01*
X144438347Y-76121954D01*
X144438344Y-76121952D01*
X144438342Y-76121950D01*
X144349468Y-76076666D01*
X144325301Y-76064352D01*
X144231524Y-76049500D01*
X142993482Y-76049500D01*
X142899694Y-76064354D01*
X142875532Y-76076666D01*
X142857630Y-76085788D01*
X142857243Y-76085985D01*
X142800948Y-76099500D01*
X142145840Y-76099500D01*
X142078801Y-76079815D01*
X142046070Y-76049134D01*
X142024413Y-76019790D01*
X141997150Y-75982850D01*
X141887882Y-75902207D01*
X141887880Y-75902206D01*
X141759700Y-75857353D01*
X141729270Y-75854500D01*
X141729266Y-75854500D01*
X141220734Y-75854500D01*
X141220730Y-75854500D01*
X141190300Y-75857353D01*
X141190298Y-75857353D01*
X141062119Y-75902206D01*
X141062117Y-75902207D01*
X140952850Y-75982850D01*
X140872207Y-76092117D01*
X140872206Y-76092119D01*
X140827353Y-76220298D01*
X140827353Y-76220300D01*
X140824500Y-76250730D01*
X140824500Y-76909269D01*
X140827353Y-76939699D01*
X140827353Y-76939701D01*
X140872206Y-77067880D01*
X140872209Y-77067886D01*
X140950270Y-77173655D01*
X140974241Y-77239284D01*
X140974500Y-77247288D01*
X140974500Y-77912711D01*
X140954815Y-77979750D01*
X140950271Y-77986344D01*
X140872207Y-78092118D01*
X140872206Y-78092119D01*
X140827353Y-78220298D01*
X140827353Y-78220300D01*
X140824500Y-78250730D01*
X140824500Y-78909269D01*
X140827353Y-78939699D01*
X140827353Y-78939701D01*
X140872206Y-79067880D01*
X140872207Y-79067882D01*
X140952850Y-79177150D01*
X141062118Y-79257793D01*
X141104845Y-79272744D01*
X141190299Y-79302646D01*
X141220730Y-79305500D01*
X141220734Y-79305500D01*
X141729270Y-79305500D01*
X141759699Y-79302646D01*
X141759701Y-79302646D01*
X141823790Y-79280219D01*
X141887882Y-79257793D01*
X141997150Y-79177150D01*
X142077793Y-79067882D01*
X142100219Y-79003790D01*
X142122646Y-78939701D01*
X142122646Y-78939699D01*
X142125500Y-78909269D01*
X142125500Y-78250730D01*
X142122646Y-78220300D01*
X142122646Y-78220298D01*
X142080726Y-78100500D01*
X142077793Y-78092118D01*
X141999729Y-77986344D01*
X141975759Y-77920715D01*
X141975500Y-77912711D01*
X141975500Y-77247288D01*
X141995185Y-77180249D01*
X141999729Y-77173655D01*
X142016548Y-77150865D01*
X142072194Y-77108616D01*
X142116318Y-77100500D01*
X142800948Y-77100500D01*
X142857242Y-77114015D01*
X142899698Y-77135647D01*
X142993475Y-77150499D01*
X142993481Y-77150500D01*
X144231518Y-77150499D01*
X144325304Y-77135646D01*
X144339273Y-77128528D01*
X144407938Y-77115632D01*
X144472679Y-77141907D01*
X144512937Y-77199012D01*
X144515768Y-77265039D01*
X144515880Y-77265057D01*
X144515793Y-77265605D01*
X144515931Y-77268818D01*
X144514481Y-77273888D01*
X144499500Y-77368475D01*
X144499500Y-77731517D01*
X144506387Y-77775000D01*
X144514354Y-77825304D01*
X144571950Y-77938342D01*
X144571952Y-77938344D01*
X144571954Y-77938347D01*
X144661652Y-78028045D01*
X144661654Y-78028046D01*
X144661658Y-78028050D01*
X144756929Y-78076593D01*
X144774698Y-78085647D01*
X144868475Y-78100499D01*
X144868481Y-78100500D01*
X146106518Y-78100499D01*
X146200304Y-78085646D01*
X146242757Y-78064014D01*
X146299052Y-78050500D01*
X149145874Y-78050500D01*
X149145876Y-78050500D01*
X149273170Y-78016392D01*
X149387298Y-77950500D01*
X151442818Y-75894978D01*
X151504141Y-75861494D01*
X151573833Y-75866478D01*
X151629766Y-75908350D01*
X151654183Y-75973814D01*
X151654499Y-75982660D01*
X151654499Y-75986295D01*
X151654499Y-76163677D01*
X151654499Y-76163678D01*
X151654498Y-76163678D01*
X151658822Y-76185415D01*
X151652592Y-76255007D01*
X151624885Y-76297284D01*
X150180186Y-77741985D01*
X150087002Y-77835168D01*
X150087000Y-77835171D01*
X150021108Y-77949297D01*
X149987000Y-78076593D01*
X149987000Y-86875548D01*
X149967315Y-86942587D01*
X149914511Y-86988342D01*
X149872737Y-86999165D01*
X149868493Y-86999499D01*
X149774696Y-87014354D01*
X149760724Y-87021473D01*
X149692055Y-87034367D01*
X149627315Y-87008088D01*
X149587060Y-86950981D01*
X149584232Y-86884960D01*
X149584120Y-86884943D01*
X149584207Y-86884389D01*
X149584070Y-86881175D01*
X149585519Y-86876105D01*
X149600499Y-86781524D01*
X149600500Y-86781519D01*
X149600499Y-86418482D01*
X149585646Y-86324696D01*
X149528050Y-86211658D01*
X149528046Y-86211654D01*
X149528045Y-86211652D01*
X149438347Y-86121954D01*
X149438344Y-86121952D01*
X149438342Y-86121950D01*
X149355030Y-86079500D01*
X149325301Y-86064352D01*
X149231524Y-86049500D01*
X147993482Y-86049500D01*
X147899694Y-86064354D01*
X147857243Y-86085985D01*
X147800948Y-86099500D01*
X147145840Y-86099500D01*
X147078801Y-86079815D01*
X147046070Y-86049134D01*
X147030722Y-86028339D01*
X146997150Y-85982850D01*
X146887882Y-85902207D01*
X146887880Y-85902206D01*
X146759700Y-85857353D01*
X146729270Y-85854500D01*
X146729266Y-85854500D01*
X146220734Y-85854500D01*
X146220730Y-85854500D01*
X146190300Y-85857353D01*
X146190298Y-85857353D01*
X146062119Y-85902206D01*
X146062117Y-85902207D01*
X145952850Y-85982850D01*
X145872207Y-86092117D01*
X145872206Y-86092119D01*
X145827353Y-86220298D01*
X145827353Y-86220300D01*
X145824500Y-86250730D01*
X145824500Y-86909269D01*
X145827353Y-86939699D01*
X145827353Y-86939701D01*
X145872206Y-87067880D01*
X145872209Y-87067886D01*
X145950270Y-87173655D01*
X145974241Y-87239284D01*
X145974500Y-87247288D01*
X145974500Y-87912711D01*
X145954815Y-87979750D01*
X145950271Y-87986344D01*
X145872207Y-88092118D01*
X145872206Y-88092119D01*
X145827353Y-88220298D01*
X145827353Y-88220300D01*
X145824500Y-88250730D01*
X145824500Y-88909269D01*
X145827353Y-88939699D01*
X145827353Y-88939701D01*
X145870612Y-89063325D01*
X145872207Y-89067882D01*
X145952850Y-89177150D01*
X146062118Y-89257793D01*
X146096452Y-89269807D01*
X146190299Y-89302646D01*
X146220730Y-89305500D01*
X146220734Y-89305500D01*
X146729270Y-89305500D01*
X146759699Y-89302646D01*
X146759701Y-89302646D01*
X146823790Y-89280219D01*
X146887882Y-89257793D01*
X146997150Y-89177150D01*
X147077793Y-89067882D01*
X147110469Y-88974500D01*
X147122646Y-88939701D01*
X147122646Y-88939699D01*
X147125500Y-88909269D01*
X147125500Y-88250730D01*
X147122646Y-88220300D01*
X147122646Y-88220298D01*
X147080726Y-88100500D01*
X147077793Y-88092118D01*
X146999729Y-87986344D01*
X146975759Y-87920715D01*
X146975500Y-87912711D01*
X146975500Y-87247288D01*
X146995185Y-87180249D01*
X146999729Y-87173655D01*
X147016548Y-87150865D01*
X147072194Y-87108616D01*
X147116318Y-87100500D01*
X147800948Y-87100500D01*
X147857242Y-87114015D01*
X147899698Y-87135647D01*
X147993475Y-87150499D01*
X147993481Y-87150500D01*
X149231518Y-87150499D01*
X149325304Y-87135646D01*
X149339273Y-87128528D01*
X149407938Y-87115632D01*
X149472679Y-87141907D01*
X149512937Y-87199012D01*
X149515768Y-87265039D01*
X149515880Y-87265057D01*
X149515793Y-87265605D01*
X149515931Y-87268818D01*
X149514481Y-87273888D01*
X149499500Y-87368475D01*
X149499500Y-87731517D01*
X149506029Y-87772739D01*
X149514354Y-87825304D01*
X149571950Y-87938342D01*
X149571952Y-87938344D01*
X149571954Y-87938347D01*
X149661652Y-88028045D01*
X149661654Y-88028046D01*
X149661658Y-88028050D01*
X149774694Y-88085645D01*
X149774698Y-88085647D01*
X149868475Y-88100499D01*
X149868481Y-88100500D01*
X151106518Y-88100499D01*
X151200304Y-88085646D01*
X151313342Y-88028050D01*
X151403050Y-87938342D01*
X151460646Y-87825304D01*
X151460646Y-87825302D01*
X151460647Y-87825301D01*
X151474082Y-87740470D01*
X151475500Y-87731519D01*
X151475499Y-87368482D01*
X151460646Y-87274696D01*
X151403050Y-87161658D01*
X151403046Y-87161654D01*
X151403045Y-87161652D01*
X151313347Y-87071954D01*
X151313344Y-87071952D01*
X151313342Y-87071950D01*
X151214276Y-87021473D01*
X151200301Y-87014352D01*
X151106517Y-86999498D01*
X151102265Y-86999164D01*
X151036978Y-86974278D01*
X150995510Y-86918045D01*
X150988000Y-86875547D01*
X150988000Y-78401160D01*
X151007685Y-78334121D01*
X151024314Y-78313484D01*
X151442819Y-77894979D01*
X151504141Y-77861495D01*
X151573833Y-77866479D01*
X151629766Y-77908351D01*
X151654183Y-77973815D01*
X151654499Y-77982661D01*
X151654499Y-78163680D01*
X151689102Y-78337643D01*
X151689105Y-78337652D01*
X151756982Y-78501525D01*
X151756989Y-78501538D01*
X151855534Y-78649019D01*
X151855537Y-78649023D01*
X151980960Y-78774446D01*
X151980964Y-78774449D01*
X152128445Y-78872994D01*
X152128458Y-78873001D01*
X152216019Y-78909269D01*
X152292333Y-78940879D01*
X152292335Y-78940879D01*
X152292340Y-78940881D01*
X152355118Y-78953368D01*
X152417029Y-78985752D01*
X152451603Y-79046468D01*
X152447864Y-79116238D01*
X152406998Y-79172910D01*
X152355120Y-79196602D01*
X152292337Y-79209090D01*
X152292331Y-79209092D01*
X152217600Y-79240047D01*
X152170148Y-79249486D01*
X151955322Y-79249486D01*
X151882263Y-79264018D01*
X151882259Y-79264019D01*
X151799398Y-79319385D01*
X151744032Y-79402246D01*
X151744031Y-79402250D01*
X151729499Y-79475307D01*
X151729499Y-79690135D01*
X151720060Y-79737587D01*
X151689105Y-79812318D01*
X151689102Y-79812327D01*
X151654499Y-79986290D01*
X151654499Y-80163681D01*
X151689103Y-80337644D01*
X151689106Y-80337656D01*
X151720060Y-80412385D01*
X151729499Y-80459837D01*
X151729499Y-80674664D01*
X151744031Y-80747721D01*
X151744032Y-80747725D01*
X151744033Y-80747726D01*
X151799398Y-80830587D01*
X151863026Y-80873101D01*
X151882259Y-80885952D01*
X151882263Y-80885953D01*
X151955320Y-80900485D01*
X151955323Y-80900486D01*
X151955325Y-80900486D01*
X152170148Y-80900486D01*
X152217600Y-80909925D01*
X152292333Y-80940880D01*
X152292335Y-80940880D01*
X152292340Y-80940882D01*
X152466303Y-80975485D01*
X152466306Y-80975486D01*
X152466308Y-80975486D01*
X152643692Y-80975486D01*
X152643693Y-80975485D01*
X152701681Y-80963950D01*
X152817657Y-80940882D01*
X152817660Y-80940880D01*
X152817665Y-80940880D01*
X152892398Y-80909925D01*
X152939850Y-80900486D01*
X153154671Y-80900486D01*
X153154673Y-80900486D01*
X153156306Y-80900161D01*
X153157180Y-80900239D01*
X153160738Y-80899889D01*
X153160804Y-80900563D01*
X153225896Y-80906387D01*
X153281075Y-80949248D01*
X153304322Y-81015137D01*
X153304500Y-81021778D01*
X153304500Y-87973824D01*
X153284815Y-88040863D01*
X153268181Y-88061505D01*
X150087002Y-91242683D01*
X150087000Y-91242686D01*
X150021108Y-91356812D01*
X149987000Y-91484108D01*
X149987000Y-93875548D01*
X149967315Y-93942587D01*
X149914511Y-93988342D01*
X149872737Y-93999165D01*
X149868493Y-93999499D01*
X149774696Y-94014354D01*
X149760724Y-94021473D01*
X149692055Y-94034367D01*
X149627315Y-94008088D01*
X149587060Y-93950981D01*
X149584232Y-93884960D01*
X149584120Y-93884943D01*
X149584207Y-93884389D01*
X149584070Y-93881175D01*
X149585519Y-93876105D01*
X149589620Y-93850210D01*
X149600500Y-93781519D01*
X149600499Y-93418482D01*
X149585646Y-93324696D01*
X149528050Y-93211658D01*
X149528046Y-93211654D01*
X149528045Y-93211652D01*
X149438347Y-93121954D01*
X149438344Y-93121952D01*
X149438342Y-93121950D01*
X149346198Y-93075000D01*
X149325301Y-93064352D01*
X149231524Y-93049500D01*
X147993482Y-93049500D01*
X147899694Y-93064354D01*
X147857243Y-93085985D01*
X147800948Y-93099500D01*
X147145840Y-93099500D01*
X147078801Y-93079815D01*
X147046070Y-93049134D01*
X147030722Y-93028339D01*
X146997150Y-92982850D01*
X146887882Y-92902207D01*
X146887880Y-92902206D01*
X146759700Y-92857353D01*
X146729270Y-92854500D01*
X146729266Y-92854500D01*
X146220734Y-92854500D01*
X146220730Y-92854500D01*
X146190300Y-92857353D01*
X146190298Y-92857353D01*
X146062119Y-92902206D01*
X146062117Y-92902207D01*
X145952850Y-92982850D01*
X145872207Y-93092117D01*
X145872206Y-93092119D01*
X145827353Y-93220298D01*
X145827353Y-93220300D01*
X145824500Y-93250730D01*
X145824500Y-93909269D01*
X145827353Y-93939699D01*
X145827353Y-93939701D01*
X145872206Y-94067880D01*
X145872209Y-94067886D01*
X145950270Y-94173655D01*
X145974241Y-94239284D01*
X145974500Y-94247288D01*
X145974500Y-94912711D01*
X145954815Y-94979750D01*
X145950271Y-94986344D01*
X145872207Y-95092118D01*
X145872206Y-95092119D01*
X145827353Y-95220298D01*
X145827353Y-95220300D01*
X145824500Y-95250730D01*
X145824500Y-95909269D01*
X145827353Y-95939699D01*
X145827353Y-95939701D01*
X145872206Y-96067880D01*
X145872207Y-96067882D01*
X145952850Y-96177150D01*
X146062118Y-96257793D01*
X146104845Y-96272744D01*
X146190299Y-96302646D01*
X146220730Y-96305500D01*
X146220734Y-96305500D01*
X146729270Y-96305500D01*
X146759699Y-96302646D01*
X146759701Y-96302646D01*
X146824946Y-96279815D01*
X146887882Y-96257793D01*
X146997150Y-96177150D01*
X147077793Y-96067882D01*
X147102942Y-95996010D01*
X147122646Y-95939701D01*
X147122646Y-95939699D01*
X147125500Y-95909269D01*
X147125500Y-95250730D01*
X147122646Y-95220300D01*
X147122646Y-95220298D01*
X147080726Y-95100500D01*
X147077793Y-95092118D01*
X146999729Y-94986344D01*
X146975759Y-94920715D01*
X146975500Y-94912711D01*
X146975500Y-94247288D01*
X146995185Y-94180249D01*
X146999729Y-94173655D01*
X147016548Y-94150865D01*
X147072194Y-94108616D01*
X147116318Y-94100500D01*
X147800948Y-94100500D01*
X147857242Y-94114015D01*
X147899698Y-94135647D01*
X147993475Y-94150499D01*
X147993481Y-94150500D01*
X149231518Y-94150499D01*
X149325304Y-94135646D01*
X149339273Y-94128528D01*
X149407938Y-94115632D01*
X149472679Y-94141907D01*
X149512937Y-94199012D01*
X149515768Y-94265039D01*
X149515880Y-94265057D01*
X149515793Y-94265605D01*
X149515931Y-94268818D01*
X149514481Y-94273888D01*
X149499500Y-94368475D01*
X149499500Y-94731517D01*
X149509234Y-94792975D01*
X149514354Y-94825304D01*
X149571950Y-94938342D01*
X149571952Y-94938344D01*
X149571954Y-94938347D01*
X149661652Y-95028045D01*
X149661654Y-95028046D01*
X149661658Y-95028050D01*
X149774694Y-95085645D01*
X149774698Y-95085647D01*
X149868475Y-95100499D01*
X149868481Y-95100500D01*
X151106518Y-95100499D01*
X151200304Y-95085646D01*
X151313342Y-95028050D01*
X151403050Y-94938342D01*
X151460646Y-94825304D01*
X151460646Y-94825302D01*
X151460647Y-94825301D01*
X151475499Y-94731524D01*
X151475500Y-94731519D01*
X151475499Y-94368482D01*
X151460646Y-94274696D01*
X151403050Y-94161658D01*
X151403046Y-94161654D01*
X151403045Y-94161652D01*
X151313347Y-94071954D01*
X151313344Y-94071952D01*
X151313342Y-94071950D01*
X151214276Y-94021473D01*
X151200301Y-94014352D01*
X151106517Y-93999498D01*
X151102265Y-93999164D01*
X151036978Y-93974278D01*
X150995510Y-93918045D01*
X150988000Y-93875547D01*
X150988000Y-92575000D01*
X152499564Y-92575000D01*
X152518027Y-92856703D01*
X152519287Y-92875918D01*
X152519288Y-92875930D01*
X152578118Y-93171683D01*
X152578122Y-93171698D01*
X152675053Y-93457247D01*
X152675062Y-93457268D01*
X152808431Y-93727713D01*
X152808435Y-93727720D01*
X152975973Y-93978459D01*
X153174810Y-94205189D01*
X153401540Y-94404026D01*
X153652279Y-94571564D01*
X153652286Y-94571568D01*
X153922731Y-94704937D01*
X153922736Y-94704939D01*
X153922748Y-94704945D01*
X154208309Y-94801880D01*
X154408251Y-94841651D01*
X154504069Y-94860711D01*
X154504070Y-94860711D01*
X154504080Y-94860713D01*
X154805000Y-94880436D01*
X155105920Y-94860713D01*
X155401691Y-94801880D01*
X155687252Y-94704945D01*
X155957718Y-94571566D01*
X156208461Y-94404025D01*
X156435189Y-94205189D01*
X156634025Y-93978461D01*
X156801566Y-93727718D01*
X156934945Y-93457252D01*
X157031880Y-93171691D01*
X157090713Y-92875920D01*
X157110436Y-92575000D01*
X157090713Y-92274080D01*
X157085251Y-92246623D01*
X157069410Y-92166982D01*
X157031880Y-91978309D01*
X156934945Y-91692748D01*
X156933705Y-91690234D01*
X156801568Y-91422286D01*
X156801564Y-91422279D01*
X156634026Y-91171540D01*
X156435189Y-90944810D01*
X156208459Y-90745973D01*
X155957720Y-90578435D01*
X155957713Y-90578431D01*
X155687268Y-90445062D01*
X155687247Y-90445053D01*
X155401698Y-90348122D01*
X155401692Y-90348120D01*
X155401691Y-90348120D01*
X155401689Y-90348119D01*
X155401683Y-90348118D01*
X155105930Y-90289288D01*
X155105921Y-90289287D01*
X155105920Y-90289287D01*
X154805000Y-90269564D01*
X154504080Y-90289287D01*
X154504079Y-90289287D01*
X154504069Y-90289288D01*
X154208316Y-90348118D01*
X154208301Y-90348122D01*
X153922752Y-90445053D01*
X153922731Y-90445062D01*
X153652286Y-90578431D01*
X153652279Y-90578435D01*
X153401540Y-90745973D01*
X153174810Y-90944810D01*
X152975973Y-91171540D01*
X152808435Y-91422279D01*
X152808431Y-91422286D01*
X152675062Y-91692731D01*
X152675053Y-91692752D01*
X152578122Y-91978301D01*
X152578118Y-91978316D01*
X152519288Y-92274069D01*
X152519287Y-92274079D01*
X152519287Y-92274080D01*
X152499564Y-92575000D01*
X150988000Y-92575000D01*
X150988000Y-91808676D01*
X151007685Y-91741637D01*
X151024319Y-91720995D01*
X154205496Y-88539818D01*
X154205499Y-88539815D01*
X154207357Y-88536598D01*
X154271392Y-88425686D01*
X154276784Y-88405562D01*
X154305500Y-88298393D01*
X154305500Y-88166608D01*
X154305500Y-79259094D01*
X154305200Y-79257976D01*
X154271392Y-79131800D01*
X154252980Y-79099910D01*
X154205500Y-79017672D01*
X154112314Y-78924486D01*
X153485111Y-78297283D01*
X153451626Y-78235960D01*
X153451176Y-78185408D01*
X153455499Y-78163676D01*
X153455499Y-77986294D01*
X153455499Y-77986291D01*
X153455498Y-77986289D01*
X153420895Y-77812326D01*
X153420892Y-77812317D01*
X153412880Y-77792975D01*
X153392776Y-77744437D01*
X153353015Y-77648444D01*
X153353008Y-77648431D01*
X153254463Y-77500950D01*
X153254460Y-77500946D01*
X153129037Y-77375523D01*
X153129033Y-77375520D01*
X152981552Y-77276975D01*
X152981539Y-77276968D01*
X152817666Y-77209091D01*
X152817658Y-77209089D01*
X152754883Y-77196602D01*
X152692972Y-77164217D01*
X152658398Y-77103501D01*
X152662139Y-77033731D01*
X152703005Y-76977059D01*
X152754881Y-76953368D01*
X152817665Y-76940880D01*
X152961807Y-76881175D01*
X152981539Y-76873002D01*
X152981539Y-76873001D01*
X152981546Y-76872999D01*
X153129034Y-76774450D01*
X153254463Y-76649021D01*
X153353012Y-76501533D01*
X153420893Y-76337652D01*
X153421334Y-76335438D01*
X153452351Y-76179501D01*
X153455499Y-76163677D01*
X153455499Y-75986295D01*
X153455499Y-75986292D01*
X153455498Y-75986290D01*
X153420895Y-75812327D01*
X153420892Y-75812318D01*
X153417698Y-75804608D01*
X153392879Y-75744687D01*
X153353015Y-75648445D01*
X153353008Y-75648432D01*
X153254463Y-75500951D01*
X153254460Y-75500947D01*
X153129037Y-75375524D01*
X153129033Y-75375521D01*
X152981552Y-75276976D01*
X152981539Y-75276969D01*
X152817666Y-75209092D01*
X152817658Y-75209090D01*
X152754878Y-75196602D01*
X152692967Y-75164217D01*
X152658393Y-75103501D01*
X152662134Y-75033731D01*
X152703000Y-74977059D01*
X152754876Y-74953368D01*
X152817665Y-74940879D01*
X152981546Y-74872998D01*
X153129034Y-74774449D01*
X153254463Y-74649020D01*
X153353012Y-74501532D01*
X153420893Y-74337651D01*
X153430860Y-74287547D01*
X153451175Y-74185414D01*
X153455499Y-74163676D01*
X153455499Y-73986294D01*
X153455499Y-73986291D01*
X153455498Y-73986289D01*
X153420895Y-73812326D01*
X153420892Y-73812317D01*
X153353015Y-73648444D01*
X153353008Y-73648431D01*
X153254463Y-73500950D01*
X153254460Y-73500946D01*
X153129037Y-73375523D01*
X153129033Y-73375520D01*
X152981552Y-73276975D01*
X152981539Y-73276968D01*
X152817666Y-73209091D01*
X152817657Y-73209088D01*
X152754886Y-73196603D01*
X152692975Y-73164218D01*
X152658401Y-73103503D01*
X152662140Y-73033733D01*
X152703007Y-72977061D01*
X152754886Y-72953369D01*
X152817657Y-72940883D01*
X152817660Y-72940881D01*
X152817665Y-72940881D01*
X152981546Y-72873000D01*
X153129034Y-72774451D01*
X153254463Y-72649022D01*
X153353012Y-72501534D01*
X153420893Y-72337653D01*
X153421745Y-72333373D01*
X153446815Y-72207337D01*
X153455499Y-72163678D01*
X153455499Y-71986296D01*
X153455499Y-71986293D01*
X153455498Y-71986291D01*
X153420895Y-71812328D01*
X153420892Y-71812319D01*
X153420431Y-71811207D01*
X153374494Y-71700302D01*
X153353015Y-71648446D01*
X153353008Y-71648433D01*
X153254463Y-71500952D01*
X153254460Y-71500948D01*
X153129037Y-71375525D01*
X153129033Y-71375522D01*
X152981552Y-71276977D01*
X152981539Y-71276970D01*
X152817666Y-71209093D01*
X152817658Y-71209091D01*
X152754878Y-71196603D01*
X152692967Y-71164218D01*
X152658393Y-71103502D01*
X152662134Y-71033732D01*
X152703000Y-70977060D01*
X152754876Y-70953369D01*
X152817665Y-70940880D01*
X152975508Y-70875500D01*
X152981539Y-70873002D01*
X152981539Y-70873001D01*
X152981546Y-70872999D01*
X153129034Y-70774450D01*
X153254463Y-70649021D01*
X153353012Y-70501533D01*
X153420893Y-70337652D01*
X153427027Y-70306818D01*
X153449641Y-70193128D01*
X153455499Y-70163677D01*
X153455499Y-69986295D01*
X153455499Y-69986292D01*
X153455498Y-69986290D01*
X153420895Y-69812327D01*
X153420892Y-69812318D01*
X153415914Y-69800301D01*
X153388766Y-69734758D01*
X153353015Y-69648445D01*
X153353008Y-69648432D01*
X153254463Y-69500951D01*
X153254460Y-69500947D01*
X153129037Y-69375524D01*
X153129033Y-69375521D01*
X152981552Y-69276976D01*
X152981539Y-69276969D01*
X152817666Y-69209092D01*
X152817657Y-69209089D01*
X152643693Y-69174486D01*
X152643690Y-69174486D01*
X152466308Y-69174486D01*
X152466305Y-69174486D01*
X152292340Y-69209089D01*
X152292331Y-69209092D01*
X152128459Y-69276969D01*
X152128445Y-69276977D01*
X152089475Y-69303015D01*
X152022797Y-69323891D01*
X151955418Y-69305405D01*
X151932906Y-69287592D01*
X146506684Y-63861370D01*
X146473199Y-63800047D01*
X146471892Y-63754296D01*
X146475500Y-63731519D01*
X146475499Y-63368482D01*
X146460646Y-63274696D01*
X146403050Y-63161658D01*
X146403046Y-63161654D01*
X146403045Y-63161652D01*
X146313347Y-63071954D01*
X146313344Y-63071952D01*
X146313342Y-63071950D01*
X146214276Y-63021473D01*
X146200301Y-63014352D01*
X146106524Y-62999500D01*
X144868482Y-62999500D01*
X144774696Y-63014354D01*
X144760724Y-63021473D01*
X144692055Y-63034367D01*
X144627315Y-63008088D01*
X144587060Y-62950981D01*
X144584232Y-62884960D01*
X144584120Y-62884943D01*
X144584207Y-62884389D01*
X144584070Y-62881175D01*
X144585519Y-62876105D01*
X144600499Y-62781524D01*
X144600500Y-62781519D01*
X144600499Y-62418482D01*
X144585646Y-62324696D01*
X144528050Y-62211658D01*
X144528046Y-62211654D01*
X144528045Y-62211652D01*
X144438347Y-62121954D01*
X144438344Y-62121952D01*
X144438342Y-62121950D01*
X144355030Y-62079500D01*
X144325301Y-62064352D01*
X144231524Y-62049500D01*
X142993482Y-62049500D01*
X142899694Y-62064354D01*
X142857243Y-62085985D01*
X142800948Y-62099500D01*
X142145840Y-62099500D01*
X142078801Y-62079815D01*
X142046070Y-62049134D01*
X142030722Y-62028339D01*
X141997150Y-61982850D01*
X141887882Y-61902207D01*
X141887880Y-61902206D01*
X141759700Y-61857353D01*
X141729270Y-61854500D01*
X141729266Y-61854500D01*
X141220734Y-61854500D01*
X141220730Y-61854500D01*
X141190300Y-61857353D01*
X141190298Y-61857353D01*
X141062119Y-61902206D01*
X141062117Y-61902207D01*
X140952850Y-61982850D01*
X140872207Y-62092117D01*
X140872206Y-62092119D01*
X140827353Y-62220298D01*
X140827353Y-62220300D01*
X140824500Y-62250730D01*
X140475500Y-62250730D01*
X140472646Y-62220300D01*
X140472646Y-62220298D01*
X140430376Y-62099500D01*
X140427793Y-62092118D01*
X140347150Y-61982850D01*
X140237882Y-61902207D01*
X140237880Y-61902206D01*
X140109700Y-61857353D01*
X140079270Y-61854500D01*
X140079266Y-61854500D01*
X139570734Y-61854500D01*
X139570730Y-61854500D01*
X139540300Y-61857353D01*
X139540298Y-61857353D01*
X139412119Y-61902206D01*
X139412117Y-61902207D01*
X139302850Y-61982850D01*
X139302848Y-61982851D01*
X139268692Y-62029133D01*
X139213044Y-62071384D01*
X139168921Y-62079500D01*
X137734107Y-62079500D01*
X137659466Y-62099499D01*
X137659466Y-62099500D01*
X137606814Y-62113608D01*
X137606813Y-62113608D01*
X137606811Y-62113609D01*
X137492686Y-62179500D01*
X137492685Y-62179501D01*
X137421456Y-62250730D01*
X137318416Y-62353769D01*
X137257092Y-62387253D01*
X137198642Y-62385862D01*
X137022977Y-62338793D01*
X136805002Y-62319723D01*
X136804998Y-62319723D01*
X136659682Y-62332436D01*
X136587023Y-62338793D01*
X136587020Y-62338793D01*
X136375677Y-62395422D01*
X136375668Y-62395426D01*
X136177361Y-62487898D01*
X136177357Y-62487900D01*
X135998121Y-62613402D01*
X135843402Y-62768121D01*
X135717900Y-62947357D01*
X135717898Y-62947361D01*
X135625426Y-63145668D01*
X135625422Y-63145677D01*
X135568793Y-63357020D01*
X135568793Y-63357023D01*
X135564025Y-63411517D01*
X135549723Y-63574997D01*
X121534878Y-63574997D01*
X121540215Y-63556818D01*
X121550150Y-63522985D01*
X121560500Y-63451000D01*
X121560500Y-61699377D01*
X121580185Y-61632338D01*
X121632989Y-61586583D01*
X121702146Y-61576639D01*
X121729000Y-61580500D01*
X121729001Y-61580500D01*
X125181000Y-61580500D01*
X125235313Y-61574661D01*
X125286824Y-61563455D01*
X125313198Y-61556219D01*
X125350380Y-61535046D01*
X125399818Y-61506894D01*
X125399819Y-61506892D01*
X125399828Y-61506888D01*
X125452632Y-61461133D01*
X125484257Y-61428359D01*
X125530465Y-61340024D01*
X125550150Y-61272985D01*
X125560500Y-61201000D01*
X125560500Y-57575000D01*
X152499564Y-57575000D01*
X152519287Y-57875918D01*
X152519288Y-57875930D01*
X152578118Y-58171683D01*
X152578122Y-58171698D01*
X152675053Y-58457247D01*
X152675062Y-58457268D01*
X152808431Y-58727713D01*
X152808435Y-58727720D01*
X152975973Y-58978459D01*
X153174810Y-59205189D01*
X153401540Y-59404026D01*
X153652279Y-59571564D01*
X153652286Y-59571568D01*
X153922731Y-59704937D01*
X153922736Y-59704939D01*
X153922748Y-59704945D01*
X154208309Y-59801880D01*
X154408251Y-59841651D01*
X154504069Y-59860711D01*
X154504070Y-59860711D01*
X154504080Y-59860713D01*
X154805000Y-59880436D01*
X155105920Y-59860713D01*
X155401691Y-59801880D01*
X155687252Y-59704945D01*
X155957718Y-59571566D01*
X156208461Y-59404025D01*
X156435189Y-59205189D01*
X156634025Y-58978461D01*
X156801566Y-58727718D01*
X156934945Y-58457252D01*
X157031880Y-58171691D01*
X157090713Y-57875920D01*
X157110436Y-57575000D01*
X157090713Y-57274080D01*
X157086794Y-57254380D01*
X157031881Y-56978316D01*
X157031880Y-56978309D01*
X156934945Y-56692748D01*
X156801566Y-56422282D01*
X156752749Y-56349222D01*
X156634026Y-56171540D01*
X156435189Y-55944810D01*
X156208459Y-55745973D01*
X155957720Y-55578435D01*
X155957713Y-55578431D01*
X155687268Y-55445062D01*
X155687247Y-55445053D01*
X155401698Y-55348122D01*
X155401692Y-55348120D01*
X155401691Y-55348120D01*
X155401689Y-55348119D01*
X155401683Y-55348118D01*
X155105930Y-55289288D01*
X155105921Y-55289287D01*
X155105920Y-55289287D01*
X154805000Y-55269564D01*
X154504080Y-55289287D01*
X154504079Y-55289287D01*
X154504069Y-55289288D01*
X154208316Y-55348118D01*
X154208301Y-55348122D01*
X153922752Y-55445053D01*
X153922731Y-55445062D01*
X153652286Y-55578431D01*
X153652279Y-55578435D01*
X153401540Y-55745973D01*
X153174810Y-55944810D01*
X152975973Y-56171540D01*
X152808435Y-56422279D01*
X152808431Y-56422286D01*
X152675062Y-56692731D01*
X152675053Y-56692752D01*
X152578122Y-56978301D01*
X152578118Y-56978316D01*
X152519288Y-57274069D01*
X152519287Y-57274081D01*
X152499564Y-57575000D01*
X125560500Y-57575000D01*
X125560500Y-54699000D01*
X125554661Y-54644687D01*
X125543455Y-54593176D01*
X125536219Y-54566802D01*
X125532332Y-54559976D01*
X125486894Y-54480181D01*
X125486890Y-54480176D01*
X125486888Y-54480172D01*
X125451097Y-54438867D01*
X125441136Y-54427371D01*
X125408359Y-54395743D01*
X125320022Y-54349534D01*
X125320022Y-54349533D01*
X125252990Y-54329851D01*
X125252978Y-54329848D01*
X125181001Y-54319500D01*
X125181000Y-54319500D01*
X121729000Y-54319500D01*
X121728997Y-54319500D01*
X121674687Y-54325338D01*
X121623181Y-54336543D01*
X121623172Y-54336546D01*
X121596807Y-54343779D01*
X121596796Y-54343783D01*
X121510181Y-54393105D01*
X121510173Y-54393111D01*
X121457371Y-54438863D01*
X121425743Y-54471640D01*
X121379534Y-54559977D01*
X121379533Y-54559977D01*
X121359851Y-54627009D01*
X121359848Y-54627021D01*
X121349500Y-54698998D01*
X121349500Y-58200622D01*
X121329815Y-58267661D01*
X121277011Y-58313416D01*
X121207857Y-58323360D01*
X121181009Y-58319500D01*
X121181000Y-58319500D01*
X118679000Y-58319500D01*
X118678997Y-58319500D01*
X118624687Y-58325338D01*
X118573181Y-58336543D01*
X118573172Y-58336546D01*
X118546807Y-58343779D01*
X118546796Y-58343783D01*
X118460181Y-58393105D01*
X118460173Y-58393111D01*
X118407371Y-58438863D01*
X118375743Y-58471640D01*
X118329534Y-58559977D01*
X118329533Y-58559977D01*
X118309851Y-58627009D01*
X118309848Y-58627021D01*
X118299500Y-58698998D01*
X110080710Y-58698998D01*
X110123259Y-58649179D01*
X110250777Y-58441089D01*
X110344172Y-58215612D01*
X110401146Y-57978302D01*
X110420294Y-57735000D01*
X110401146Y-57491698D01*
X110344172Y-57254388D01*
X110344169Y-57254380D01*
X110250777Y-57028910D01*
X110123262Y-56820826D01*
X110123261Y-56820823D01*
X110087453Y-56778897D01*
X109964759Y-56635241D01*
X109790402Y-56486326D01*
X109779176Y-56476738D01*
X109779173Y-56476737D01*
X109571089Y-56349222D01*
X109345618Y-56255830D01*
X109345621Y-56255830D01*
X109239992Y-56230470D01*
X109108302Y-56198854D01*
X109108300Y-56198853D01*
X109108297Y-56198853D01*
X108865000Y-56179706D01*
X108621702Y-56198853D01*
X108384380Y-56255830D01*
X108158910Y-56349222D01*
X107950826Y-56476737D01*
X107950823Y-56476738D01*
X107765241Y-56635241D01*
X107606738Y-56820823D01*
X107606737Y-56820826D01*
X107479222Y-57028910D01*
X107385830Y-57254380D01*
X107328853Y-57491702D01*
X107309706Y-57735000D01*
X102099949Y-57735000D01*
X102110436Y-57575000D01*
X102090713Y-57274080D01*
X102086794Y-57254380D01*
X102031881Y-56978316D01*
X102031880Y-56978309D01*
X101934945Y-56692748D01*
X101801566Y-56422282D01*
X101752749Y-56349222D01*
X101634026Y-56171540D01*
X101435189Y-55944810D01*
X101208459Y-55745973D01*
X100957720Y-55578435D01*
X100957713Y-55578431D01*
X100687268Y-55445062D01*
X100687247Y-55445053D01*
X100401698Y-55348122D01*
X100401692Y-55348120D01*
X100401691Y-55348120D01*
X100401689Y-55348119D01*
X100401683Y-55348118D01*
X100105930Y-55289288D01*
X100105921Y-55289287D01*
X100105920Y-55289287D01*
X99805000Y-55269564D01*
X99504080Y-55289287D01*
X99504079Y-55289287D01*
X99504069Y-55289288D01*
X99208316Y-55348118D01*
X99208301Y-55348122D01*
X98922752Y-55445053D01*
X98922731Y-55445062D01*
X98652286Y-55578431D01*
X98652279Y-55578435D01*
X98401540Y-55745973D01*
X98174810Y-55944810D01*
X97975973Y-56171540D01*
X97808435Y-56422279D01*
X97808431Y-56422286D01*
X97675062Y-56692731D01*
X97675053Y-56692752D01*
X97578122Y-56978301D01*
X97578118Y-56978316D01*
X97519288Y-57274069D01*
X97519287Y-57274081D01*
X97499564Y-57575000D01*
X95105559Y-57575000D01*
X95105618Y-57572297D01*
X95109137Y-57491698D01*
X95123147Y-57170795D01*
X95124087Y-57160064D01*
X95176189Y-56764302D01*
X95178063Y-56753672D01*
X95264463Y-56363950D01*
X95267261Y-56353512D01*
X95387291Y-55972823D01*
X95390979Y-55962691D01*
X95543742Y-55593888D01*
X95548300Y-55584114D01*
X95732617Y-55230045D01*
X95738012Y-55220700D01*
X95952495Y-54884029D01*
X95958685Y-54875189D01*
X96201687Y-54558503D01*
X96208625Y-54550234D01*
X96478304Y-54255932D01*
X96485932Y-54248304D01*
X96780234Y-53978625D01*
X96788503Y-53971687D01*
X97105189Y-53728685D01*
X97114029Y-53722495D01*
X97450700Y-53508012D01*
X97460045Y-53502617D01*
X97814114Y-53318300D01*
X97823888Y-53313742D01*
X98192691Y-53160979D01*
X98202823Y-53157291D01*
X98583521Y-53037258D01*
X98593950Y-53034463D01*
X98983672Y-52948063D01*
X98994302Y-52946189D01*
X99390064Y-52894087D01*
X99400795Y-52893147D01*
X99802297Y-52875617D01*
X99807706Y-52875500D01*
X99852595Y-52875500D01*
X154757405Y-52875500D01*
X154802294Y-52875500D01*
X154807702Y-52875617D01*
G37*
%TD.AperFunction*%
%TD*%
%TA.AperFunction,Conductor*%
%TO.N,+3.3V*%
G36*
X128148039Y-75694685D02*
G01*
X128193794Y-75747489D01*
X128205000Y-75799000D01*
X128205000Y-78151000D01*
X128185315Y-78218039D01*
X128132511Y-78263794D01*
X128081000Y-78275000D01*
X125529000Y-78275000D01*
X125461961Y-78255315D01*
X125416206Y-78202511D01*
X125405000Y-78151000D01*
X125405000Y-75799000D01*
X125424685Y-75731961D01*
X125477489Y-75686206D01*
X125529000Y-75675000D01*
X128081000Y-75675000D01*
X128148039Y-75694685D01*
G37*
%TD.AperFunction*%
%TD*%
%TA.AperFunction,Conductor*%
%TO.N,Net-(J1-Pin_2)*%
G36*
X121248039Y-58594685D02*
G01*
X121293794Y-58647489D01*
X121305000Y-58699000D01*
X121305000Y-63451000D01*
X121285315Y-63518039D01*
X121232511Y-63563794D01*
X121181000Y-63575000D01*
X118679000Y-63575000D01*
X118611961Y-63555315D01*
X118566206Y-63502511D01*
X118555000Y-63451000D01*
X118555000Y-58699000D01*
X118574685Y-58631961D01*
X118627489Y-58586206D01*
X118679000Y-58575000D01*
X121181000Y-58575000D01*
X121248039Y-58594685D01*
G37*
%TD.AperFunction*%
%TD*%
M02*
