%TF.GenerationSoftware,KiCad,Pcbnew,8.0.2*%
%TF.CreationDate,2024-06-05T10:22:25+03:00*%
%TF.ProjectId,LED driver,4c454420-6472-4697-9665-722e6b696361,rev?*%
%TF.SameCoordinates,Original*%
%TF.FileFunction,Soldermask,Top*%
%TF.FilePolarity,Negative*%
%FSLAX46Y46*%
G04 Gerber Fmt 4.6, Leading zero omitted, Abs format (unit mm)*
G04 Created by KiCad (PCBNEW 8.0.2) date 2024-06-05 10:22:25*
%MOMM*%
%LPD*%
G01*
G04 APERTURE LIST*
G04 Aperture macros list*
%AMRoundRect*
0 Rectangle with rounded corners*
0 $1 Rounding radius*
0 $2 $3 $4 $5 $6 $7 $8 $9 X,Y pos of 4 corners*
0 Add a 4 corners polygon primitive as box body*
4,1,4,$2,$3,$4,$5,$6,$7,$8,$9,$2,$3,0*
0 Add four circle primitives for the rounded corners*
1,1,$1+$1,$2,$3*
1,1,$1+$1,$4,$5*
1,1,$1+$1,$6,$7*
1,1,$1+$1,$8,$9*
0 Add four rect primitives between the rounded corners*
20,1,$1+$1,$2,$3,$4,$5,0*
20,1,$1+$1,$4,$5,$6,$7,0*
20,1,$1+$1,$6,$7,$8,$9,0*
20,1,$1+$1,$8,$9,$2,$3,0*%
%AMFreePoly0*
4,1,19,0.500000,-0.750000,0.000000,-0.750000,0.000000,-0.744911,-0.071157,-0.744911,-0.207708,-0.704816,-0.327430,-0.627875,-0.420627,-0.520320,-0.479746,-0.390866,-0.500000,-0.250000,-0.500000,0.250000,-0.479746,0.390866,-0.420627,0.520320,-0.327430,0.627875,-0.207708,0.704816,-0.071157,0.744911,0.000000,0.744911,0.000000,0.750000,0.500000,0.750000,0.500000,-0.750000,0.500000,-0.750000,
$1*%
%AMFreePoly1*
4,1,19,0.000000,0.744911,0.071157,0.744911,0.207708,0.704816,0.327430,0.627875,0.420627,0.520320,0.479746,0.390866,0.500000,0.250000,0.500000,-0.250000,0.479746,-0.390866,0.420627,-0.520320,0.327430,-0.627875,0.207708,-0.704816,0.071157,-0.744911,0.000000,-0.744911,0.000000,-0.750000,-0.500000,-0.750000,-0.500000,0.750000,0.000000,0.750000,0.000000,0.744911,0.000000,0.744911,
$1*%
G04 Aperture macros list end*
%ADD10R,1.700000X1.700000*%
%ADD11O,1.700000X1.700000*%
%ADD12RoundRect,0.225000X-0.250000X0.225000X-0.250000X-0.225000X0.250000X-0.225000X0.250000X0.225000X0*%
%ADD13R,2.600000X2.600000*%
%ADD14C,2.600000*%
%ADD15RoundRect,0.200000X0.200000X0.275000X-0.200000X0.275000X-0.200000X-0.275000X0.200000X-0.275000X0*%
%ADD16C,2.000000*%
%ADD17RoundRect,0.200000X0.275000X-0.200000X0.275000X0.200000X-0.275000X0.200000X-0.275000X-0.200000X0*%
%ADD18RoundRect,0.250000X-1.075000X0.375000X-1.075000X-0.375000X1.075000X-0.375000X1.075000X0.375000X0*%
%ADD19RoundRect,0.150000X0.512500X0.150000X-0.512500X0.150000X-0.512500X-0.150000X0.512500X-0.150000X0*%
%ADD20R,0.900000X1.700000*%
%ADD21RoundRect,0.225000X0.250000X-0.225000X0.250000X0.225000X-0.250000X0.225000X-0.250000X-0.225000X0*%
%ADD22RoundRect,0.150000X-0.587500X-0.150000X0.587500X-0.150000X0.587500X0.150000X-0.587500X0.150000X0*%
%ADD23RoundRect,0.200000X-0.275000X0.200000X-0.275000X-0.200000X0.275000X-0.200000X0.275000X0.200000X0*%
%ADD24R,1.350000X1.350000*%
%ADD25O,1.350000X1.350000*%
%ADD26FreePoly0,90.000000*%
%ADD27FreePoly1,90.000000*%
%ADD28RoundRect,0.225000X0.225000X0.250000X-0.225000X0.250000X-0.225000X-0.250000X0.225000X-0.250000X0*%
%ADD29RoundRect,0.250001X0.462499X0.624999X-0.462499X0.624999X-0.462499X-0.624999X0.462499X-0.624999X0*%
%ADD30RoundRect,0.237500X-0.237500X0.250000X-0.237500X-0.250000X0.237500X-0.250000X0.237500X0.250000X0*%
%ADD31RoundRect,0.237500X-0.237500X0.287500X-0.237500X-0.287500X0.237500X-0.287500X0.237500X0.287500X0*%
%ADD32RoundRect,0.250000X0.400000X0.450000X-0.400000X0.450000X-0.400000X-0.450000X0.400000X-0.450000X0*%
%ADD33RoundRect,0.250000X1.000000X0.900000X-1.000000X0.900000X-1.000000X-0.900000X1.000000X-0.900000X0*%
%ADD34R,0.400000X0.800000*%
%ADD35R,0.800000X0.400000*%
%ADD36R,1.450000X1.450000*%
%ADD37R,0.700000X0.700000*%
%ADD38R,1.150000X1.150000*%
%ADD39C,1.150000*%
G04 APERTURE END LIST*
D10*
%TO.C,J3*%
X129005000Y-91285000D03*
D11*
X129005000Y-93825000D03*
X131545000Y-91285000D03*
X131545000Y-93825000D03*
X134085000Y-91285000D03*
X134085000Y-93825000D03*
X136625000Y-91285000D03*
X136625000Y-93825000D03*
%TD*%
D12*
%TO.C,C6*%
X123875000Y-76780000D03*
X123875000Y-78330000D03*
%TD*%
D13*
%TO.C,J1*%
X113865000Y-57735000D03*
D14*
X108865000Y-57735000D03*
%TD*%
D15*
%TO.C,R10*%
X141475000Y-64580000D03*
X139825000Y-64580000D03*
%TD*%
%TO.C,R14*%
X126350000Y-67445000D03*
X124700000Y-67445000D03*
%TD*%
D16*
%TO.C,TP3*%
X136805000Y-77575000D03*
%TD*%
D17*
%TO.C,R12*%
X107435000Y-92880000D03*
X107435000Y-91230000D03*
%TD*%
D15*
%TO.C,R3*%
X146475000Y-86580000D03*
X144825000Y-86580000D03*
%TD*%
D18*
%TO.C,L1*%
X126785000Y-73555000D03*
X126785000Y-76355000D03*
%TD*%
D19*
%TO.C,U2*%
X128392500Y-71425000D03*
X128392500Y-70475000D03*
X128392500Y-69525000D03*
X126117500Y-69525000D03*
X126117500Y-70475000D03*
X126117500Y-71425000D03*
%TD*%
D20*
%TO.C,SW1*%
X111715000Y-94925000D03*
X115115000Y-94925000D03*
%TD*%
D21*
%TO.C,C1*%
X103425000Y-92830000D03*
X103425000Y-91280000D03*
%TD*%
D16*
%TO.C,TP4*%
X136805000Y-70575000D03*
%TD*%
D12*
%TO.C,C5*%
X130535000Y-72980000D03*
X130535000Y-74530000D03*
%TD*%
D22*
%TO.C,Q5*%
X143612500Y-62600000D03*
X143612500Y-64500000D03*
X145487500Y-63550000D03*
%TD*%
D13*
%TO.C,J1*%
X99965000Y-63635000D03*
D14*
X99965000Y-68635000D03*
%TD*%
D15*
%TO.C,R13*%
X122310000Y-95845000D03*
X120660000Y-95845000D03*
%TD*%
D23*
%TO.C,R16*%
X130535000Y-65930000D03*
X130535000Y-67580000D03*
%TD*%
D22*
%TO.C,Q4*%
X143612500Y-69600000D03*
X143612500Y-71500000D03*
X145487500Y-70550000D03*
%TD*%
D24*
%TO.C,J4*%
X109205000Y-73075000D03*
D25*
X111205000Y-73075000D03*
X113205000Y-73075000D03*
X115205000Y-73075000D03*
%TD*%
D16*
%TO.C,TP1*%
X141805000Y-94575000D03*
%TD*%
D15*
%TO.C,R9*%
X141475000Y-62580000D03*
X139825000Y-62580000D03*
%TD*%
D21*
%TO.C,C3*%
X105385000Y-92830000D03*
X105385000Y-91280000D03*
%TD*%
D22*
%TO.C,Q3*%
X143612500Y-76600000D03*
X143612500Y-78500000D03*
X145487500Y-77550000D03*
%TD*%
D15*
%TO.C,R8*%
X141475000Y-71580000D03*
X139825000Y-71580000D03*
%TD*%
D26*
%TO.C,JP3*%
X115205000Y-78635000D03*
D27*
X115205000Y-77335000D03*
%TD*%
D15*
%TO.C,R6*%
X141475000Y-78580000D03*
X139825000Y-78580000D03*
%TD*%
D23*
%TO.C,R15*%
X130535000Y-69430000D03*
X130535000Y-71080000D03*
%TD*%
D16*
%TO.C,TP2*%
X141805000Y-87575000D03*
%TD*%
D12*
%TO.C,C2*%
X115075000Y-90520000D03*
X115075000Y-92070000D03*
%TD*%
D28*
%TO.C,C4*%
X123900000Y-69545000D03*
X122350000Y-69545000D03*
%TD*%
D29*
%TO.C,F1*%
X122792500Y-59825000D03*
X119817500Y-59825000D03*
%TD*%
D24*
%TO.C,JP1*%
X121505000Y-91075000D03*
D25*
X121505000Y-93075000D03*
%TD*%
D30*
%TO.C,R17*%
X124075000Y-91342500D03*
X124075000Y-93167500D03*
%TD*%
D31*
%TO.C,D3*%
X126135000Y-91380000D03*
X126135000Y-93130000D03*
%TD*%
D32*
%TO.C,D1*%
X122755000Y-56075000D03*
X119855000Y-56075000D03*
%TD*%
D16*
%TO.C,TP5*%
X136805000Y-63575000D03*
%TD*%
D33*
%TO.C,D2*%
X123055000Y-73200000D03*
X118755000Y-73200000D03*
%TD*%
D15*
%TO.C,R1*%
X146475000Y-93580000D03*
X144825000Y-93580000D03*
%TD*%
D10*
%TO.C,J5*%
X135330000Y-81575000D03*
D11*
X132790000Y-81575000D03*
X130250000Y-81575000D03*
%TD*%
D15*
%TO.C,R2*%
X146475000Y-95580000D03*
X144825000Y-95580000D03*
%TD*%
D22*
%TO.C,Q1*%
X148612500Y-93600000D03*
X148612500Y-95500000D03*
X150487500Y-94550000D03*
%TD*%
D15*
%TO.C,R7*%
X141475000Y-69580000D03*
X139825000Y-69580000D03*
%TD*%
D22*
%TO.C,Q2*%
X148612500Y-86600000D03*
X148612500Y-88500000D03*
X150487500Y-87550000D03*
%TD*%
D15*
%TO.C,R4*%
X146475000Y-88580000D03*
X144825000Y-88580000D03*
%TD*%
%TO.C,R5*%
X141475000Y-76580000D03*
X139825000Y-76580000D03*
%TD*%
D17*
%TO.C,R11*%
X109535000Y-92880000D03*
X109535000Y-91230000D03*
%TD*%
D34*
%TO.C,U1*%
X102805000Y-88575000D03*
X103605000Y-88575000D03*
X104405000Y-88575000D03*
X105205000Y-88575000D03*
X106005000Y-88575000D03*
X106805000Y-88575000D03*
X107605000Y-88575000D03*
X108405000Y-88575000D03*
X109205000Y-88575000D03*
X110005000Y-88575000D03*
X110805000Y-88575000D03*
D35*
X111705000Y-87475000D03*
X111705000Y-86675000D03*
X111705000Y-85875000D03*
X111705000Y-85075000D03*
X111705000Y-84275000D03*
X111705000Y-83475000D03*
X111705000Y-82675000D03*
X111705000Y-81875000D03*
X111705000Y-81075000D03*
X111705000Y-80275000D03*
X111705000Y-79475000D03*
X111705000Y-78675000D03*
X111705000Y-77875000D03*
D34*
X110805000Y-76775000D03*
X110005000Y-76775000D03*
X109205000Y-76775000D03*
X108405000Y-76775000D03*
X107605000Y-76775000D03*
X106805000Y-76775000D03*
X106005000Y-76775000D03*
X105205000Y-76775000D03*
X104405000Y-76775000D03*
X103605000Y-76775000D03*
X102805000Y-76775000D03*
D35*
X101905000Y-77875000D03*
X101905000Y-78675000D03*
X101905000Y-79475000D03*
X101905000Y-80275000D03*
X101905000Y-81075000D03*
X101905000Y-81875000D03*
X101905000Y-82675000D03*
X101905000Y-83475000D03*
X101905000Y-84275000D03*
X101905000Y-85075000D03*
X101905000Y-85875000D03*
X101905000Y-86675000D03*
X101905000Y-87475000D03*
D36*
X106805000Y-82675000D03*
X104830000Y-80700000D03*
X104830000Y-82675000D03*
X104830000Y-84650000D03*
X106805000Y-84650000D03*
X108780000Y-84650000D03*
X108780000Y-82675000D03*
X108780000Y-80700000D03*
X106805000Y-80700000D03*
D37*
X101855000Y-88625000D03*
X111755000Y-88625000D03*
X111755000Y-76725000D03*
X101855000Y-76725000D03*
%TD*%
D24*
%TO.C,JP2*%
X117905000Y-91075000D03*
D25*
X117905000Y-93075000D03*
X117905000Y-95075000D03*
%TD*%
D38*
%TO.C,J2*%
X152554999Y-80074986D03*
D39*
X152554999Y-78074985D03*
X152554999Y-76074986D03*
X152554999Y-74074985D03*
X152554999Y-72074987D03*
X152554999Y-70074986D03*
%TD*%
M02*
