M48
; DRILL file {KiCad 9.0.0} date 2025-04-03T15:52:57+0300
; FORMAT={-:-/ absolute / inch / decimal}
; #@! TF.CreationDate,2025-04-03T15:52:57+03:00
; #@! TF.GenerationSoftware,Kicad,Pcbnew,9.0.0
; #@! TF.FileFunction,Plated,1,2,PTH
FMAT,2
INCH
; #@! TA.AperFunction,Plated,PTH,ViaDrill
T1C0.0118
; #@! TA.AperFunction,Plated,PTH,ComponentDrill
T2C0.0118
; #@! TA.AperFunction,Plated,PTH,ComponentDrill
T3C0.0130
; #@! TA.AperFunction,Plated,PTH,ViaDrill
T4C0.0197
; #@! TA.AperFunction,Plated,PTH,ComponentDrill
T5C0.0197
; #@! TA.AperFunction,Plated,PTH,ViaDrill
T6C0.0295
; #@! TA.AperFunction,Plated,PTH,ComponentDrill
T7C0.0299
; #@! TA.AperFunction,Plated,PTH,ComponentDrill
T8C0.0512
; #@! TA.AperFunction,Plated,PTH,ComponentDrill
T9C0.0669
%
G90
G05
T1
X3.6928Y-3.2164
X3.6929Y-3.1732
X3.8071Y-3.1083
X3.8071Y-3.1437
X4.271Y-2.532
X4.2945Y-2.5111
X4.4882Y-2.626
X4.4882Y-2.7087
X4.9331Y-2.2835
X4.9331Y-2.3189
X5.2087Y-2.2402
X5.2087Y-2.2756
X5.2087Y-2.311
X5.2087Y-2.3465
X5.2087Y-2.3819
T2
X4.2213Y-2.2236
X4.2213Y-2.2677
X4.2213Y-2.3388
X4.2213Y-2.3829
X4.2213Y-2.427
X4.2654Y-2.2236
X4.2654Y-2.2677
X4.2654Y-2.3388
X4.2654Y-2.3829
X4.2654Y-2.427
X4.3094Y-2.2236
X4.3094Y-2.2677
X4.3094Y-2.3388
X4.3094Y-2.3829
X4.3094Y-2.427
X4.3535Y-2.2236
X4.3535Y-2.2677
X4.3535Y-2.3388
X4.3535Y-2.3829
X4.3535Y-2.427
T3
X5.0394Y-2.2591
X5.0394Y-2.2898
X5.0394Y-2.3205
X5.0394Y-2.3512
X5.0394Y-2.3819
X5.0701Y-2.2591
X5.0701Y-2.2898
X5.0701Y-2.3205
X5.0701Y-2.3512
X5.0701Y-2.3819
X5.1008Y-2.2591
X5.1008Y-2.2898
X5.1008Y-2.3205
X5.1008Y-2.3512
X5.1008Y-2.3819
T4
X3.5639Y-2.4204
X3.6015Y-2.3828
T5
X4.0118Y-3.07
X4.1339Y-2.6417
X4.1693Y-3.07
X4.2126Y-2.7205
X4.2913Y-2.7992
X4.3268Y-3.0709
X4.3583Y-2.0906
X4.3701Y-2.878
X4.4843Y-3.0709
X4.5906Y-2.1614
X4.5906Y-2.4843
X4.6417Y-3.0709
X4.7047Y-2.622
X4.7047Y-2.7087
X5.2638Y-2.2008
X5.2638Y-2.4843
T6
X4.1181Y-2.3268
X4.3268Y-2.6378
X4.4055Y-2.5591
X4.4567Y-2.2283
X4.4567Y-2.3268
X4.4567Y-2.4173
X4.5906Y-2.2283
X4.5906Y-2.4173
X4.9882Y-2.4843
T7
X2.9717Y-2.1541
X2.9717Y-2.2541
X2.9717Y-2.3541
X2.9717Y-2.4541
X2.9717Y-3.1258
X2.9717Y-3.2258
X2.9717Y-3.3258
X2.9717Y-3.4258
X3.0717Y-2.2041
X3.0717Y-2.3041
X3.0717Y-2.4041
X3.0717Y-2.5041
X3.0717Y-3.1758
X3.0717Y-3.2758
X3.0717Y-3.3758
X3.0717Y-3.4758
T8
X5.1406Y-2.7362
X5.1406Y-2.9331
T9
X5.1398Y-3.2479
X5.1398Y-3.4038
M30
