%TF.GenerationSoftware,KiCad,Pcbnew,9.0.0*%
%TF.CreationDate,2025-04-03T15:52:47+03:00*%
%TF.ProjectId,poe splitter,706f6520-7370-46c6-9974-7465722e6b69,rev?*%
%TF.SameCoordinates,Original*%
%TF.FileFunction,Copper,L2,Bot*%
%TF.FilePolarity,Positive*%
%FSLAX46Y46*%
G04 Gerber Fmt 4.6, Leading zero omitted, Abs format (unit mm)*
G04 Created by KiCad (PCBNEW 9.0.0) date 2025-04-03 15:52:47*
%MOMM*%
%LPD*%
G01*
G04 APERTURE LIST*
G04 Aperture macros list*
%AMRoundRect*
0 Rectangle with rounded corners*
0 $1 Rounding radius*
0 $2 $3 $4 $5 $6 $7 $8 $9 X,Y pos of 4 corners*
0 Add a 4 corners polygon primitive as box body*
4,1,4,$2,$3,$4,$5,$6,$7,$8,$9,$2,$3,0*
0 Add four circle primitives for the rounded corners*
1,1,$1+$1,$2,$3*
1,1,$1+$1,$4,$5*
1,1,$1+$1,$6,$7*
1,1,$1+$1,$8,$9*
0 Add four rect primitives between the rounded corners*
20,1,$1+$1,$2,$3,$4,$5,0*
20,1,$1+$1,$4,$5,$6,$7,0*
20,1,$1+$1,$6,$7,$8,$9,0*
20,1,$1+$1,$8,$9,$2,$3,0*%
%AMOutline4P*
0 Free polygon, 4 corners , with rotation*
0 The origin of the aperture is its center*
0 number of corners: always 4*
0 $1 to $8 corner X, Y*
0 $9 Rotation angle, in degrees counterclockwise*
0 create outline with 4 corners*
4,1,4,$1,$2,$3,$4,$5,$6,$7,$8,$1,$2,$9*%
G04 Aperture macros list end*
%TA.AperFunction,ComponentPad*%
%ADD10R,1.000000X1.000000*%
%TD*%
%TA.AperFunction,ComponentPad*%
%ADD11RoundRect,0.250001X1.099999X-1.099999X1.099999X1.099999X-1.099999X1.099999X-1.099999X-1.099999X0*%
%TD*%
%TA.AperFunction,ComponentPad*%
%ADD12C,2.700000*%
%TD*%
%TA.AperFunction,ComponentPad*%
%ADD13C,0.600000*%
%TD*%
%TA.AperFunction,SMDPad,CuDef*%
%ADD14R,4.370000X2.290000*%
%TD*%
%TA.AperFunction,SMDPad,CuDef*%
%ADD15R,4.370000X3.560000*%
%TD*%
%TA.AperFunction,ComponentPad*%
%ADD16R,1.500000X1.500000*%
%TD*%
%TA.AperFunction,ComponentPad*%
%ADD17C,1.500000*%
%TD*%
%TA.AperFunction,ComponentPad*%
%ADD18RoundRect,0.250000X1.050000X-1.050000X1.050000X1.050000X-1.050000X1.050000X-1.050000X-1.050000X0*%
%TD*%
%TA.AperFunction,ComponentPad*%
%ADD19C,2.600000*%
%TD*%
%TA.AperFunction,HeatsinkPad*%
%ADD20C,0.500000*%
%TD*%
%TA.AperFunction,HeatsinkPad*%
%ADD21Outline4P,-1.225000X-2.175000X1.225000X-2.175000X1.225000X2.175000X-1.225000X2.175000X0.000000*%
%TD*%
%TA.AperFunction,ViaPad*%
%ADD22C,1.250000*%
%TD*%
%TA.AperFunction,ViaPad*%
%ADD23C,0.600000*%
%TD*%
%TA.AperFunction,ViaPad*%
%ADD24C,1.000000*%
%TD*%
%TA.AperFunction,Conductor*%
%ADD25C,0.750000*%
%TD*%
%TA.AperFunction,Conductor*%
%ADD26C,0.200000*%
%TD*%
%TA.AperFunction,Conductor*%
%ADD27C,0.500000*%
%TD*%
%TA.AperFunction,Conductor*%
%ADD28C,0.250000*%
%TD*%
G04 APERTURE END LIST*
D10*
%TO.P,TP11,1,1*%
%TO.N,/4P_HD*%
X105900000Y-77977500D03*
%TD*%
D11*
%TO.P,J4,1,Pin_1*%
%TO.N,/VPN_out*%
X130550000Y-86457500D03*
D12*
%TO.P,J4,2,Pin_2*%
%TO.N,/VPP*%
X130550000Y-82497500D03*
%TD*%
D10*
%TO.P,TP12,1,1*%
%TO.N,/4P_AT*%
X109900000Y-78000000D03*
%TD*%
D13*
%TO.P,U1,33*%
%TO.N,/VPP*%
X107220000Y-56480000D03*
X107220000Y-57600000D03*
X108340000Y-56480000D03*
X108340000Y-57600000D03*
D14*
X108900000Y-57040000D03*
D13*
X109460000Y-56480000D03*
X109460000Y-57600000D03*
X110580000Y-56480000D03*
X110580000Y-57600000D03*
%TO.P,U1,34*%
%TO.N,/VPN_in*%
X107220000Y-59405000D03*
X107220000Y-60525000D03*
X107220000Y-61645000D03*
X108340000Y-59405000D03*
X108340000Y-60525000D03*
X108340000Y-61645000D03*
D15*
X108900000Y-60525000D03*
D13*
X109460000Y-59405000D03*
X109460000Y-60525000D03*
X109460000Y-61645000D03*
X110580000Y-59405000D03*
X110580000Y-60525000D03*
X110580000Y-61645000D03*
%TD*%
D16*
%TO.P,J1,1*%
%TO.N,/IN_DA+*%
X75480000Y-54715000D03*
D17*
%TO.P,J1,2*%
%TO.N,/IN_DA-*%
X78020000Y-55985000D03*
%TO.P,J1,3*%
%TO.N,/IN_DB+*%
X75480000Y-57255000D03*
%TO.P,J1,4*%
%TO.N,/IN_DC+*%
X78020000Y-58525000D03*
%TO.P,J1,5*%
%TO.N,/IN_DC-*%
X75480000Y-59795000D03*
%TO.P,J1,6*%
%TO.N,/IN_DB-*%
X78020000Y-61065000D03*
%TO.P,J1,7*%
%TO.N,/IN_DD+*%
X75480000Y-62335000D03*
%TO.P,J1,8*%
%TO.N,/IN_DD-*%
X78020000Y-63605000D03*
%TD*%
D10*
%TO.P,TP10,1,1*%
%TO.N,/PGOOD*%
X101900000Y-77977500D03*
%TD*%
D16*
%TO.P,J2,1*%
%TO.N,/OUT_DA+*%
X75480000Y-79395000D03*
D17*
%TO.P,J2,2*%
%TO.N,/OUT_DA-*%
X78020000Y-80665000D03*
%TO.P,J2,3*%
%TO.N,/OUT_DB+*%
X75480000Y-81935000D03*
%TO.P,J2,4*%
%TO.N,/OUT_DC+*%
X78020000Y-83205000D03*
%TO.P,J2,5*%
%TO.N,/OUT_DC-*%
X75480000Y-84475000D03*
%TO.P,J2,6*%
%TO.N,/OUT_DB-*%
X78020000Y-85745000D03*
%TO.P,J2,7*%
%TO.N,/OUT_DD+*%
X75480000Y-87015000D03*
%TO.P,J2,8*%
%TO.N,/OUT_DD-*%
X78020000Y-88285000D03*
%TD*%
D10*
%TO.P,TP7,1,1*%
%TO.N,/PS+*%
X111000000Y-73100000D03*
%TD*%
D18*
%TO.P,J3,1,Pin_1*%
%TO.N,/VPN_out*%
X130572500Y-74500000D03*
D19*
%TO.P,J3,2,Pin_2*%
%TO.N,/VPP*%
X130572500Y-69500000D03*
%TD*%
D10*
%TO.P,TP3,1,1*%
%TO.N,Net-(U2-VAUX)*%
X133700000Y-55900000D03*
%TD*%
%TO.P,TP9,1,1*%
%TO.N,/VPN_out*%
X133700000Y-63100000D03*
%TD*%
%TO.P,TP15,1,1*%
%TO.N,/WA_EN*%
X110700000Y-53100000D03*
%TD*%
%TO.P,TP5,1,1*%
%TO.N,/PD+*%
X107000000Y-69100000D03*
%TD*%
D20*
%TO.P,U2,7,VPN_IN*%
%TO.N,/VPN_in*%
X128000000Y-57380000D03*
X128000000Y-58160000D03*
X128000000Y-58940000D03*
X128000000Y-59720000D03*
X128000000Y-60500000D03*
X128780000Y-57380000D03*
X128780000Y-58160000D03*
X128780000Y-58940000D03*
D21*
X128780000Y-58940000D03*
D20*
X128780000Y-59720000D03*
X128780000Y-60500000D03*
X129560000Y-57380000D03*
X129560000Y-58160000D03*
X129560000Y-58940000D03*
X129560000Y-59720000D03*
X129560000Y-60500000D03*
%TD*%
D10*
%TO.P,TP16,1,1*%
%TO.N,/SUPP_S2*%
X119500000Y-66600000D03*
%TD*%
%TO.P,TP8,1,1*%
%TO.N,/SUPP_S1*%
X119500000Y-68800000D03*
%TD*%
%TO.P,TP6,1,1*%
%TO.N,/PS-*%
X109000000Y-71100000D03*
%TD*%
%TO.P,TP1,1,1*%
%TO.N,/VPP*%
X116600000Y-54900000D03*
%TD*%
%TO.P,TP13,1,1*%
%TO.N,/HD*%
X113900000Y-78000000D03*
%TD*%
%TO.P,TP2,1,1*%
%TO.N,/VPN_in*%
X116600000Y-63100000D03*
%TD*%
%TO.P,TP14,1,1*%
%TO.N,/AT*%
X117900000Y-78000000D03*
%TD*%
%TO.P,TP4,1,1*%
%TO.N,/PD-*%
X105000000Y-67100000D03*
%TD*%
D22*
%TO.N,/VPP*%
X113200000Y-56600000D03*
X116600000Y-56600000D03*
X126700000Y-63100000D03*
%TO.N,/PS+*%
X113200000Y-59100000D03*
X111900000Y-65000000D03*
%TO.N,/PS-*%
X109900000Y-67000000D03*
X104600000Y-59100000D03*
D23*
%TO.N,/SUPP_S1*%
X125300000Y-58000000D03*
%TO.N,Net-(U1-SUPP_SA)*%
X114000000Y-68800000D03*
X108484385Y-64313934D03*
%TO.N,Net-(U1-SUPP_SB)*%
X109081281Y-63781281D03*
X114000000Y-66700000D03*
%TO.N,/SUPP_S2*%
X125300000Y-58900000D03*
%TO.N,/PGOOD*%
X132300000Y-56900000D03*
%TO.N,/4P_HD*%
X132300000Y-57800000D03*
%TO.N,/4P_AT*%
X132300000Y-58700000D03*
%TO.N,/HD*%
X132300000Y-59600000D03*
%TO.N,/AT*%
X132300000Y-60500000D03*
D24*
%TO.N,/IN_DB-*%
X90522703Y-61477297D03*
%TO.N,/IN_DB+*%
X91477297Y-60522703D03*
D23*
%TO.N,/OUT_DA-*%
X96700000Y-79850000D03*
%TO.N,/OUT_DB+*%
X93800000Y-80600000D03*
%TO.N,/OUT_DB-*%
X93797487Y-81697489D03*
%TO.N,/OUT_DA+*%
X96700000Y-78950000D03*
D22*
%TO.N,/VPN_in*%
X113200000Y-61400000D03*
X116600000Y-61400000D03*
%TD*%
D25*
%TO.N,/VPP*%
X126700000Y-63100000D02*
X126700000Y-58161148D01*
X116600000Y-56600000D02*
X113200000Y-56600000D01*
X126700000Y-58161148D02*
X125138852Y-56600000D01*
X125138852Y-56600000D02*
X116600000Y-56600000D01*
%TO.N,/PS+*%
X113200000Y-59100000D02*
X111900000Y-60400000D01*
X111900000Y-60400000D02*
X111900000Y-65000000D01*
%TO.N,/PS-*%
X104600000Y-59100000D02*
X104600000Y-61700000D01*
X104600000Y-61700000D02*
X109900000Y-67000000D01*
D26*
%TO.N,/SUPP_S1*%
X125900000Y-62400000D02*
X119500000Y-68800000D01*
X125300000Y-58000000D02*
X125900000Y-58600000D01*
X125900000Y-58600000D02*
X125900000Y-62400000D01*
%TO.N,Net-(U1-SUPP_SA)*%
X114000000Y-68800000D02*
X113100000Y-68800000D01*
X113100000Y-68800000D02*
X108613934Y-64313934D01*
X108613934Y-64313934D02*
X108484385Y-64313934D01*
%TO.N,Net-(U1-SUPP_SB)*%
X114000000Y-66700000D02*
X112000000Y-66700000D01*
X112000000Y-66700000D02*
X109081281Y-63781281D01*
%TO.N,/SUPP_S2*%
X125300000Y-60800000D02*
X125300000Y-58900000D01*
X119500000Y-66600000D02*
X125300000Y-60800000D01*
%TO.N,/PGOOD*%
X104477500Y-75400000D02*
X113100000Y-75400000D01*
X130500000Y-58700000D02*
X132300000Y-56900000D01*
X113100000Y-75400000D02*
X118100000Y-75400000D01*
X101900000Y-77977500D02*
X104477500Y-75400000D01*
X130500000Y-63000000D02*
X130500000Y-58700000D01*
X118100000Y-75400000D02*
X130500000Y-63000000D01*
%TO.N,/4P_HD*%
X108077500Y-75800000D02*
X113267100Y-75800000D01*
X105900000Y-77977500D02*
X108077500Y-75800000D01*
X130900000Y-59200000D02*
X132300000Y-57800000D01*
X130900000Y-63167100D02*
X130900000Y-59200000D01*
X113267100Y-75800000D02*
X118267100Y-75800000D01*
X118267100Y-75800000D02*
X130900000Y-63167100D01*
%TO.N,/4P_AT*%
X131300000Y-59700000D02*
X132300000Y-58700000D01*
X131300000Y-63334200D02*
X131300000Y-59700000D01*
X118467100Y-76200000D02*
X131299000Y-63368100D01*
X113467100Y-76200000D02*
X118467100Y-76200000D01*
X131299000Y-63368100D02*
X131299000Y-63335200D01*
X109900000Y-78000000D02*
X111700000Y-76200000D01*
X131299000Y-63335200D02*
X131300000Y-63334200D01*
X111700000Y-76200000D02*
X113467100Y-76200000D01*
%TO.N,/HD*%
X113900000Y-78000000D02*
X115300000Y-76600000D01*
X115300000Y-76600000D02*
X118700000Y-76600000D01*
X131700000Y-60200000D02*
X132300000Y-59600000D01*
X131700000Y-63600000D02*
X131700000Y-60200000D01*
X118700000Y-76600000D02*
X131700000Y-63600000D01*
%TO.N,/AT*%
X117900000Y-77967100D02*
X132100000Y-63767100D01*
X132100000Y-63767100D02*
X132100000Y-60700000D01*
X132100000Y-60700000D02*
X132300000Y-60500000D01*
D27*
%TO.N,/IN_DB-*%
X82607413Y-61345000D02*
X82607413Y-61720652D01*
X83307413Y-61720652D02*
X83307413Y-61345000D01*
X84987413Y-61065000D02*
X85127413Y-61065000D01*
X82887413Y-62000652D02*
X83027413Y-62000652D01*
X82187413Y-61065000D02*
X82327413Y-61065000D01*
X90463959Y-61065000D02*
X90522703Y-61123744D01*
X78090000Y-61120000D02*
X78145000Y-61065000D01*
X84007413Y-61345000D02*
X84007413Y-61720652D01*
X80507413Y-61720668D02*
X80507413Y-61345000D01*
X87178062Y-61065000D02*
X90463959Y-61065000D01*
X84287413Y-62000652D02*
X84427413Y-62000652D01*
X83587413Y-61065000D02*
X83727413Y-61065000D01*
X81487413Y-62000652D02*
X81627413Y-62000652D01*
X81207413Y-61345000D02*
X81207413Y-61720652D01*
X80087413Y-62000668D02*
X80227413Y-62000668D01*
X80787413Y-61065000D02*
X80927413Y-61065000D01*
X84707413Y-61720652D02*
X84707413Y-61345000D01*
X79807413Y-61345000D02*
X79807413Y-61720668D01*
X85127413Y-61065000D02*
X87178062Y-61065000D01*
X81907413Y-61720652D02*
X81907413Y-61345000D01*
X90522703Y-61123744D02*
X90522703Y-61477297D01*
X78145000Y-61065000D02*
X79527413Y-61065000D01*
X79807413Y-61720668D02*
G75*
G03*
X80087413Y-62000687I279987J-32D01*
G01*
X81627413Y-62000652D02*
G75*
G03*
X81907352Y-61720652I-13J279952D01*
G01*
X83727413Y-61065000D02*
G75*
G02*
X84007400Y-61345000I-13J-280000D01*
G01*
X84707413Y-61345000D02*
G75*
G02*
X84987413Y-61065013I279987J0D01*
G01*
X82327413Y-61065000D02*
G75*
G02*
X82607400Y-61345000I-13J-280000D01*
G01*
X81907413Y-61345000D02*
G75*
G02*
X82187413Y-61065013I279987J0D01*
G01*
X84007413Y-61720652D02*
G75*
G03*
X84287413Y-62000687I279987J-48D01*
G01*
X79527413Y-61065000D02*
G75*
G02*
X79807400Y-61345000I-13J-280000D01*
G01*
X81207413Y-61720652D02*
G75*
G03*
X81487413Y-62000687I279987J-48D01*
G01*
X83307413Y-61345000D02*
G75*
G02*
X83587413Y-61065013I279987J0D01*
G01*
X84427413Y-62000652D02*
G75*
G03*
X84707352Y-61720652I-13J279952D01*
G01*
X80927413Y-61065000D02*
G75*
G02*
X81207400Y-61345000I-13J-280000D01*
G01*
X83027413Y-62000652D02*
G75*
G03*
X83307352Y-61720652I-13J279952D01*
G01*
X80227413Y-62000668D02*
G75*
G03*
X80507368Y-61720668I-13J279968D01*
G01*
X80507413Y-61345000D02*
G75*
G02*
X80787413Y-61065013I279987J0D01*
G01*
X82607413Y-61720652D02*
G75*
G03*
X82887413Y-62000687I279987J-48D01*
G01*
%TO.N,/IN_DB+*%
X76600000Y-59100000D02*
X77300000Y-59800000D01*
X79060000Y-60060000D02*
X90661041Y-60060000D01*
X77300000Y-59800000D02*
X78800000Y-59800000D01*
X78800000Y-59800000D02*
X79060000Y-60060000D01*
X91123744Y-60522703D02*
X91477297Y-60522703D01*
X76600000Y-58360000D02*
X76600000Y-59100000D01*
X75550000Y-57310000D02*
X76600000Y-58360000D01*
X90661041Y-60060000D02*
X91123744Y-60522703D01*
D28*
%TO.N,/OUT_DA-*%
X78020000Y-79826409D02*
X78171409Y-79675000D01*
X78020000Y-80665000D02*
X78020000Y-79826409D01*
X96525000Y-79675000D02*
X96700000Y-79850000D01*
X80058392Y-79992570D02*
X80058392Y-79915000D01*
X78171409Y-79675000D02*
X79218392Y-79675000D01*
X79698392Y-80232570D02*
X79818392Y-80232570D01*
X79458392Y-79915000D02*
X79458392Y-79992570D01*
X82896885Y-79675000D02*
X96525000Y-79675000D01*
X80418392Y-79675000D02*
X82896885Y-79675000D01*
X80298392Y-79675000D02*
X80418392Y-79675000D01*
X80058392Y-79915000D02*
G75*
G02*
X80298392Y-79674992I240008J0D01*
G01*
X79818392Y-80232570D02*
G75*
G03*
X80058370Y-79992570I8J239970D01*
G01*
X79458392Y-79992570D02*
G75*
G03*
X79698392Y-80232608I240008J-30D01*
G01*
X79218392Y-79675000D02*
G75*
G02*
X79458400Y-79915000I8J-240000D01*
G01*
%TO.N,/OUT_DB+*%
X78547097Y-84400000D02*
X77600000Y-84400000D01*
X75480000Y-82280000D02*
X75480000Y-81935000D01*
X78904597Y-84757500D02*
X78547097Y-84400000D01*
X93800000Y-80600000D02*
X93781802Y-80618198D01*
X77600000Y-84400000D02*
X75480000Y-82280000D01*
X93781802Y-80829289D02*
X89853591Y-84757500D01*
X89853591Y-84757500D02*
X78904597Y-84757500D01*
X93781802Y-80618198D02*
X93781802Y-80829289D01*
%TO.N,/OUT_DB-*%
X78020000Y-85745000D02*
X78062500Y-85745000D01*
X81165657Y-85972673D02*
X81165657Y-85547500D01*
X78500000Y-85307500D02*
X79125657Y-85307500D01*
X81405657Y-85307500D02*
X81525657Y-85307500D01*
X79965657Y-85972673D02*
X79965657Y-85547500D01*
X78062500Y-85745000D02*
X78500000Y-85307500D01*
X93691420Y-81697489D02*
X93797487Y-81697489D01*
X90081409Y-85307500D02*
X93691420Y-81697489D01*
X79365657Y-85547500D02*
X79365657Y-85972673D01*
X83839693Y-85307500D02*
X90081409Y-85307500D01*
X80805657Y-86212673D02*
X80925657Y-86212673D01*
X81525657Y-85307500D02*
X83839693Y-85307500D01*
X79605657Y-86212673D02*
X79725657Y-86212673D01*
X80205657Y-85307500D02*
X80325657Y-85307500D01*
X80565657Y-85547500D02*
X80565657Y-85972673D01*
X79365657Y-85972673D02*
G75*
G03*
X79605657Y-86212743I240043J-27D01*
G01*
X80565657Y-85972673D02*
G75*
G03*
X80805657Y-86212743I240043J-27D01*
G01*
X80325657Y-85307500D02*
G75*
G02*
X80565700Y-85547500I43J-240000D01*
G01*
X79725657Y-86212673D02*
G75*
G03*
X79965673Y-85972673I43J239973D01*
G01*
X80925657Y-86212673D02*
G75*
G03*
X81165673Y-85972673I43J239973D01*
G01*
X79965657Y-85547500D02*
G75*
G02*
X80205657Y-85307457I240043J0D01*
G01*
X79125657Y-85307500D02*
G75*
G02*
X79365700Y-85547500I43J-240000D01*
G01*
X81165657Y-85547500D02*
G75*
G02*
X81405657Y-85307457I240043J0D01*
G01*
%TO.N,/OUT_DA+*%
X75480000Y-79395000D02*
X75750000Y-79125000D01*
X96525000Y-79125000D02*
X96700000Y-78950000D01*
X75522500Y-79395000D02*
X75480000Y-79395000D01*
X75600000Y-79317500D02*
X75522500Y-79395000D01*
X75750000Y-79125000D02*
X96525000Y-79125000D01*
D25*
%TO.N,/VPN_in*%
X116600000Y-61400000D02*
X113200000Y-61400000D01*
%TD*%
M02*
