%TF.GenerationSoftware,KiCad,Pcbnew,9.0.0*%
%TF.CreationDate,2025-04-03T15:52:47+03:00*%
%TF.ProjectId,poe splitter,706f6520-7370-46c6-9974-7465722e6b69,rev?*%
%TF.SameCoordinates,Original*%
%TF.FileFunction,Paste,Top*%
%TF.FilePolarity,Positive*%
%FSLAX46Y46*%
G04 Gerber Fmt 4.6, Leading zero omitted, Abs format (unit mm)*
G04 Created by KiCad (PCBNEW 9.0.0) date 2025-04-03 15:52:47*
%MOMM*%
%LPD*%
G01*
G04 APERTURE LIST*
G04 Aperture macros list*
%AMRoundRect*
0 Rectangle with rounded corners*
0 $1 Rounding radius*
0 $2 $3 $4 $5 $6 $7 $8 $9 X,Y pos of 4 corners*
0 Add a 4 corners polygon primitive as box body*
4,1,4,$2,$3,$4,$5,$6,$7,$8,$9,$2,$3,0*
0 Add four circle primitives for the rounded corners*
1,1,$1+$1,$2,$3*
1,1,$1+$1,$4,$5*
1,1,$1+$1,$6,$7*
1,1,$1+$1,$8,$9*
0 Add four rect primitives between the rounded corners*
20,1,$1+$1,$2,$3,$4,$5,0*
20,1,$1+$1,$4,$5,$6,$7,0*
20,1,$1+$1,$6,$7,$8,$9,0*
20,1,$1+$1,$8,$9,$2,$3,0*%
%AMOutline4P*
0 Free polygon, 4 corners , with rotation*
0 The origin of the aperture is its center*
0 number of corners: always 4*
0 $1 to $8 corner X, Y*
0 $9 Rotation angle, in degrees counterclockwise*
0 create outline with 4 corners*
4,1,4,$1,$2,$3,$4,$5,$6,$7,$8,$1,$2,$9*%
G04 Aperture macros list end*
%ADD10RoundRect,0.250000X-0.475000X0.250000X-0.475000X-0.250000X0.475000X-0.250000X0.475000X0.250000X0*%
%ADD11RoundRect,0.250000X0.262500X0.450000X-0.262500X0.450000X-0.262500X-0.450000X0.262500X-0.450000X0*%
%ADD12RoundRect,0.195000X-0.195000X0.805000X-0.195000X-0.805000X0.195000X-0.805000X0.195000X0.805000X0*%
%ADD13RoundRect,0.250000X0.450000X-0.262500X0.450000X0.262500X-0.450000X0.262500X-0.450000X-0.262500X0*%
%ADD14RoundRect,0.243750X-0.456250X0.243750X-0.456250X-0.243750X0.456250X-0.243750X0.456250X0.243750X0*%
%ADD15R,1.680000X1.680000*%
%ADD16R,1.680000X2.950000*%
%ADD17R,0.560000X0.280000*%
%ADD18C,0.280000*%
%ADD19R,0.280000X0.560000*%
%ADD20RoundRect,0.250000X-0.262500X-0.450000X0.262500X-0.450000X0.262500X0.450000X-0.262500X0.450000X0*%
%ADD21RoundRect,0.125000X-0.275000X-0.000010X0.275000X-0.000010X0.275000X0.000010X-0.275000X0.000010X0*%
%ADD22Outline4P,-0.450000X-0.925000X0.450000X-0.925000X0.450000X0.925000X-0.450000X0.925000X0.000000*%
%ADD23RoundRect,0.250000X0.475000X-0.250000X0.475000X0.250000X-0.475000X0.250000X-0.475000X-0.250000X0*%
G04 APERTURE END LIST*
D10*
%TO.C,C1*%
X116600000Y-58050000D03*
X116600000Y-59950000D03*
%TD*%
D11*
%TO.C,R4*%
X124012500Y-59000000D03*
X122187500Y-59000000D03*
%TD*%
D12*
%TO.C,TR2*%
X98140000Y-66750000D03*
X97150000Y-66750000D03*
X96160000Y-66750000D03*
X95170000Y-66750000D03*
X94180000Y-66750000D03*
X93190000Y-66750000D03*
X92200000Y-66750000D03*
X91210000Y-66750000D03*
X90220000Y-66750000D03*
X89230000Y-66750000D03*
X88240000Y-66750000D03*
X87250000Y-66750000D03*
X87250000Y-76150000D03*
X88240000Y-76150000D03*
X89230000Y-76150000D03*
X90220000Y-76150000D03*
X91210000Y-76150000D03*
X92200000Y-76150000D03*
X93190000Y-76150000D03*
X94180000Y-76150000D03*
X95170000Y-76150000D03*
X96160000Y-76150000D03*
X97150000Y-76150000D03*
X98140000Y-76150000D03*
%TD*%
D13*
%TO.C,R7*%
X105900000Y-81890000D03*
X105900000Y-80065000D03*
%TD*%
D10*
%TO.C,C4*%
X133700000Y-58050000D03*
X133700000Y-59950000D03*
%TD*%
D14*
%TO.C,D3*%
X109900000Y-84062500D03*
X109900000Y-85937500D03*
%TD*%
D15*
%TO.C,U1*%
X107860000Y-57040000D03*
D16*
X107860000Y-60525000D03*
D15*
X109940000Y-57040000D03*
D16*
X109940000Y-60525000D03*
D17*
X105980000Y-56350000D03*
D18*
X106260000Y-56350000D03*
D17*
X105980000Y-56850000D03*
D18*
X106260000Y-56850000D03*
D17*
X105980000Y-57350000D03*
D18*
X106260000Y-57350000D03*
D17*
X105980000Y-58350000D03*
D18*
X106260000Y-58350000D03*
D17*
X105980000Y-58850000D03*
D18*
X106260000Y-58850000D03*
D17*
X105980000Y-59350000D03*
D18*
X106260000Y-59350000D03*
D17*
X105980000Y-59850000D03*
D18*
X106260000Y-59850000D03*
D17*
X105980000Y-60850000D03*
D18*
X106260000Y-60850000D03*
D17*
X105980000Y-61350000D03*
D18*
X106260000Y-61350000D03*
D17*
X105980000Y-61850000D03*
D18*
X106260000Y-61850000D03*
X107150000Y-62745000D03*
D19*
X107150000Y-63025000D03*
D18*
X107650000Y-62745000D03*
D19*
X107650000Y-63025000D03*
D18*
X108650000Y-62745000D03*
D19*
X108650000Y-63025000D03*
D18*
X109150000Y-62745000D03*
D19*
X109150000Y-63025000D03*
D18*
X110150000Y-62745000D03*
D19*
X110150000Y-63025000D03*
D18*
X110650000Y-62745000D03*
D19*
X110650000Y-63025000D03*
D18*
X111540000Y-61850000D03*
D17*
X111820000Y-61850000D03*
D18*
X111540000Y-61350000D03*
D17*
X111820000Y-61350000D03*
D18*
X111540000Y-60850000D03*
D17*
X111820000Y-60850000D03*
D18*
X111540000Y-59850000D03*
D17*
X111820000Y-59850000D03*
D18*
X111540000Y-59350000D03*
D17*
X111820000Y-59350000D03*
D18*
X111540000Y-58850000D03*
D17*
X111820000Y-58850000D03*
D18*
X111540000Y-58350000D03*
D17*
X111820000Y-58350000D03*
D18*
X111540000Y-57350000D03*
D17*
X111820000Y-57350000D03*
D18*
X111540000Y-56850000D03*
D17*
X111820000Y-56850000D03*
D18*
X111540000Y-56350000D03*
D17*
X111820000Y-56350000D03*
D19*
X110650000Y-55175000D03*
D18*
X110650000Y-55455000D03*
D19*
X110150000Y-55175000D03*
D18*
X110150000Y-55455000D03*
D19*
X109150000Y-55175000D03*
D18*
X109150000Y-55455000D03*
D19*
X108650000Y-55175000D03*
D18*
X108650000Y-55455000D03*
D19*
X107650000Y-55175000D03*
D18*
X107650000Y-55455000D03*
D19*
X107150000Y-55175000D03*
D18*
X107150000Y-55455000D03*
%TD*%
D14*
%TO.C,D4*%
X113900000Y-84062500D03*
X113900000Y-85937500D03*
%TD*%
D11*
%TO.C,R2*%
X117112500Y-68800000D03*
X115287500Y-68800000D03*
%TD*%
D14*
%TO.C,D2*%
X105900000Y-84062500D03*
X105900000Y-85937500D03*
%TD*%
D20*
%TO.C,R3*%
X115287500Y-66700000D03*
X117112500Y-66700000D03*
%TD*%
D13*
%TO.C,R8*%
X109900000Y-81912500D03*
X109900000Y-80087500D03*
%TD*%
%TO.C,R6*%
X101900000Y-81890000D03*
X101900000Y-80065000D03*
%TD*%
D14*
%TO.C,D5*%
X117900000Y-84062500D03*
X117900000Y-85937500D03*
%TD*%
%TO.C,D1*%
X101900000Y-84040000D03*
X101900000Y-85915000D03*
%TD*%
D20*
%TO.C,R5*%
X122187500Y-61100000D03*
X124012500Y-61100000D03*
%TD*%
D21*
%TO.C,U2*%
X126780000Y-57190000D03*
X126780000Y-57690000D03*
X126780000Y-58190000D03*
X126780000Y-58690000D03*
X126780000Y-59190000D03*
X126780000Y-59690000D03*
X126780000Y-60190000D03*
X126780000Y-60690000D03*
X130780000Y-60690000D03*
X130780000Y-60190000D03*
X130780000Y-59690000D03*
X130780000Y-59190000D03*
X130780000Y-58690000D03*
X130780000Y-58190000D03*
X130780000Y-57690000D03*
X130780000Y-57190000D03*
D22*
X128105000Y-57790000D03*
X128105000Y-60090000D03*
X128105000Y-60090000D03*
X129455000Y-57790000D03*
X129455000Y-60090000D03*
X129455000Y-60090000D03*
%TD*%
D20*
%TO.C,R1*%
X122187500Y-56900000D03*
X124012500Y-56900000D03*
%TD*%
D23*
%TO.C,C3*%
X101900000Y-74400000D03*
X101900000Y-72500000D03*
%TD*%
%TO.C,C2*%
X101900000Y-70000000D03*
X101900000Y-68100000D03*
%TD*%
D13*
%TO.C,R10*%
X117900000Y-81912500D03*
X117900000Y-80087500D03*
%TD*%
%TO.C,R9*%
X113900000Y-81912500D03*
X113900000Y-80087500D03*
%TD*%
M02*
